<mxfile host="app.diagrams.net" modified="2023-04-03T13:01:28.797Z" agent="Mozilla/5.0 (Windows NT 10.0; Win64; x64) AppleWebKit/537.36 (KHTML, like Gecko) Chrome/111.0.0.0 Safari/537.36" etag="X0tC7qS_UssGrsORLD7T" version="21.1.4" type="device">
  <diagram name="Page-1" id="xge8y5J_52HdHtk9nhVA">
    <mxGraphModel dx="1434" dy="764" grid="1" gridSize="10" guides="1" tooltips="1" connect="1" arrows="1" fold="1" page="1" pageScale="1" pageWidth="827" pageHeight="1169" math="0" shadow="0">
      <root>
        <mxCell id="0" />
        <mxCell id="1" parent="0" />
        <mxCell id="TRVxPomc37XZtXrlSaVd-1" value="" style="rounded=0;whiteSpace=wrap;html=1;" vertex="1" parent="1">
          <mxGeometry x="60" y="30" width="720" height="660" as="geometry" />
        </mxCell>
        <mxCell id="TRVxPomc37XZtXrlSaVd-2" value="" style="shape=image;verticalLabelPosition=bottom;labelBackgroundColor=default;verticalAlign=top;aspect=fixed;imageAspect=0;image=data:image/png,iVBORw0KGgoAAAANSUhEUgAAAdAAAABzCAYAAAAoolP0AAAAAXNSR0IArs4c6QAAAARnQU1BAACxjwv8YQUAAAAJcEhZcwAADsMAAA7DAcdvqGQAACJ4SURBVHhe7Z3Pax1HtsdP3n6yMlzjyBtP3ouSRWRDnMmAQeGBbLDllbMw+G3EhYgYklkkIWDZK0smxlnMDMRGkIsWj4Ah9iaWDY55EIHATGwiKYtE7zHRxp5EIl7lH9CrUz+6q6qruqv7/tCV9f1Ac2/3rdv161SdqlPddV7YFhAAAAAAavFv+hMAAAAANYACBQAAABoABQoAAAA0AAoUAAAAaAAUKAAAANAAKFAAAACgAVCgAAAAQAOgQAEAAIAGQIECAAAADYACBQAAABoABQoAAAA0AAoUAAAAaAAUKAAAANAAKFAAAACgAVCgAAAAQAOgQAEAAIAGQIECAAAADXhhW6C/g36z0qHRS2v6xDBGNxfbdFif9YJnd+bo2PyWPmvRbGeGXr79AZ29Z8W19Q1NtxeJpi/Q/On9MuRO8+xOh759s03vtNT56nVOs/ouOdmm9fNj+sRmk259dIUuruvTSDi3XASjk7T82XHap08NqeGS0WW9pE+nLv+dPjmiTzLW6Opkhxb0WThMPZzyS8lrt/lMxs0rE81vUtmly0qhbqMylYjTplVbM/Kb4eQhEqYWafLulEkgDJdFZ2Smaznb07ACBf3m1+2vPnx/+5VT729/+r2+ZPj+C3H9i+0Vfdo18n6BeHw272+/K8K9+/Wv+sLO8tvXs9uvfHh/+zfr3MmDTu8rn6/qC4bV7U+d67qs/XCiXNy86v9ZcUpSw6Xi14fOR7R+UuuvFF0GVppXPi/LQzF8/+C4XHmXdR/Kc2LZJcuKX7dRmUpDpXt2+6tNfUGm1zr3KIRvRKK8Z/jhbdRv3cna3gYm3AHAM6uL6zzyDIyej4iRYY9noLsOMUKfmSea/Tif/ew77Y2MW8fpvZPi895jWlVXJM/uLIqZjJhZZ6Pr/fTOx5M0fq9DV1f0JUaUszvTHqP2dIto/RF9a01IksMlIWYKX4rZiRj9Z3kR+ZgT91u41HHy0VNW7ip5s8rz8Pk2Ta0v0sydTX1lpxD185kr7/tOT9KU+Fx4aFtn0ssuVVYKddt6nSZGxefGFj1TV2qwRh0xkx2fzi0mfP+bJ7fo4rVvGtwvjWR5T2KMPrk81l9ZfM6BAu07qqHRyclEsw2btz6g0eui82DzEH//KG+QbHaR1/RhNxr5mzYnLVxyf2dzzuhkRUPR8U37naxJhzms9CisNJvv8pijW5VKR3SU1xZpKaF8Rg76ATbp2yUu2zfcAYjuGN0Ouci+kTTTdWq4Als/0IN1oqk/u6azfW8epXFRTvdrd3hprHK+R4/S205xjdEJoVSWln7oW+fenBb9kRWZTZdlV5SVEg616putVx4LRdaiiTdd2TjM6W002EqhO3kPcuQUzY6u0Y0dH1jtTqBA+83WFm2ID78jqGRjkaYfviFmp3+ndb0uxQpyhnjGKq6J46boEO3RI4/E18WIkuG1Ig5TmPHG4HUaoXzHvTVRo5TN/dYXL9AsLdKxoDJ+LJTnYzphwo0mjMYjHWUR3XmMHqQRfUX8mX4W/x0vdJb76eVD4qNiZiEVDYet6GtTwxX45QktsXI4oM8NrRbJ5D3tR6e1Sf9kgQsoBalU1p/QU30+NGgZcOqxq7ILyUqR1eu8jmjP5tJ5JuMPyMSBg0LBC7n8RZ/3lO7kPYz673AOrIYfKNB+IzuCJhylOa9hs4K0lZsc7XKH2fVoV8wa+SGHk7750syeLTOaaHDSZCR+K4xa75FQnsY8pxt1VYcd6yh9pFlSKNpz1kMuenASpSxuMWC4IdI7Pn2q3HyeGi6A6mTjLD3puuICqE42Ti/kpbes3uYHbMboPXvg1k3ZhWRFY1twzm5M0nLD5ZOnFXXXl8FRN/JeghpY9WvW/HwDBTqsJJuVuh3tbtGtjzq0wE9g+iPx2OxZm4wKo1bftJRAVUcpsWbHyTPqUmIDBp/UcKAprNDO3uPnA3r0HECFrEgrjbbgLI8/omNCkRaWLPYYjZcoABRo35EmnThJa5MWKrw+9HpnNyzN8wNOYoY1/npRYTeePfcQXn8VSiz4uo0250UJmfC4g+VXKIRSLH19oSKcPZPxD9MhV3VMRVNcBf5atH3I9WcmsJ7o0MAUHSAl/1WwLB/jh8cCr3U0KrsyWQnAypSXQZbm71rtj18RCefLXtOvWmM9VFcppdRtE3kHfQUKtN9ooW+0wO+gGrYarev1SL3e2Q08Ul+ebolO5ErxKb4K5d8LSjtKazYR7hCVsiia82LrgPmMsvzdv+pw9kzGP7K0xtbD9My+dicrn9gOx5mnM74eJs2OPepkk/JfQj7zjLwTWbfsKmUljFKEtlmbnxIO52t9MU+rktuAOTx1ScInqW7rynsaSVYgEAQKtO/o1yAaPWZuYR60sB+b7xFmJL5wyXtqNqb8TVpCs9a6RB+6SDGf7qe3x7lsvdcVgg8m8QAkYqp2SA2XQOTpyGffPZJrfid6Yo4uEn4SdI3u81puL+qsW8RsizczmLpcsqFArbLbAVP7kTdoSsjtg+9c5RN+ArpX1JH3dNTAql9pfr6BAh0A+063aZY7g0vuaye10MosH32Kjp7fk+sRh8/rp2bbtjk5pPxFvPzaiffQR2MiHeXqdaHExIh79kx5p6DeIVyjs5kJU6dPdKb2Gph6Fzf8YIlNarg0xGzmnEi/XX5ipjQjlUcf3/2Vrya4T0DL8hSDgrlBKZgoQtnx0oNIS7t0AJFedqmywrNep/1pRZ7+ipmNahu8BJINOsX95Kzaev+216TKezpq9joUA6tdCLbyGyS8zhFat3RMhaKDia29Of9n81eb6Jra0iszXekw/pZnaluvqq38dNzy3tbswE83z86cLd/CaS7EGUOm5RFNZHHyLNDaqswhdD8vfKDsVFr0iYOb19RwtdBlXbUdnSRSf01w8lKoMxtdflQWpkd4ZeEQkvnKsqsnK3791jX5Fii0ybiMsAKPrfnWo1rec0r6E0amn6rbKAgCBQqGAtm5LB0d0F6sAACjXKkHg7W9Cky4YCjgddjl8Sd4Fw2AAcHbAkJ5dgdmoAAAAEADMAMFAAAAGgAFCgAAADQAChQAAABoABQoAAAA0AAoUAAAAKABUKAAAABAA6BAAQAAgAZAgQIAAAANgAIFAAAAGgAFCgAAADQAChQAAABoABQoAAAA0ICh3Ez+999/px9//JGePn1K//rXv/RVAAAAoMiLL74oP1999VV666235PdBMHQKlJXm7du36U9/+hMdPHiQXnrpJf0LAAAAUIQnXcxPP/0kJ1+sP1577TV5rZ8MnQJdWFigiYkJGhkZ0VcAAACANFiZ8iRsampKX+kfQ7UG+uDBAzkFh/IEAADQBDbnsh5hfdJvhkqBsvl2ENNuAAAAzy+sR1if9JuhUqA89TaLwQAAAMAwg9dYAAAAPFfwRMw8WNRPoEABAACABkCBAgAAAA3Y8wp09foHNPrRN/RMnxue3Zmj0etr4tsaXZ2co1tb6rqCr4n/OUeHVvWvYTbp1kehuNT16Tub+lzHre97dUVfrMNKJ/Jfle5G92yCTEegXLa+oena6QjVg64/WU9Dhsx7Mb05Wh50Pdep62T5iJV/T1EyZctvmKKcB4nJbp/zIuWo72UFnjf2vAI9fGaSxtcf0bdOR7dJ3y5t0dSfx/S5hez8O7QxfYHWF/9uHW06rIME2fqBHqyLz0JcPmvUmSea7aj7fnJEX67B6kOlUBb053AhOtJrj2hC5K9J3nYHQqlcIrq5OEPvtPSlCFOXVT0vT7do4VJKB969fPSS1esdIpGH+dP79ZUY++mdz6rD7YzsrtH9e/pzUINL8FwAE27rdZoY3aIH31kjY6nsxuhEoHNavb1ISyfbCR2Gy7PvHhFNt2nWj8tna4s29NdmcGcwRjcvC+V/7/HwjahF/l7+OKBYBjJbGhCiEz5RNaDy2PfmURrX30vpWj40tco7ZrnYpJEzvVTiOyS7K49pQbTpmyeHddCZyPPUhnYJUKBiZPz2eIuWln7ITKus7JZOvhHoANVINTgzLUXNGibeHFNxzd+NCLnoqNpCQdMWXWx/oE2TvqmvvIE8u7MoOgOR9iNv0JS4342QyeypMqHK+9kmZW1aVfHk5kdl3nKP3BTnpS9gDlfoTviXMToslafVKXO8lziva3TWuXd93LTaZaXiy3/jw+TR+83Og+mU5Kf6ndMXNKPK8hP3PCDyaJ+XWhwUamBmyZwVX56ekHwInHqLyYeuJ75XrLyD9+H/dWhBfFu4pP+fXb9CxzgdIrytXO2yccOX122S7Eo8mQvU89U7Vl7s+iwg7vXlmmzTh7ld31ssry+njOy69dJkx6ll6JYsl1i76lJWY3UK+gtv5Tcs/PWvf9XfInwrktvNEWPz/va7p2a3v9rkk1+3v/rQfGdWtz/NfrO/1+D7L7Zf+fD+9m/8Xcb1/van38tfBBzf+9vvfv2rOnXS4uOFLaB+N/de+fz9PF4Jp9++5t5Phv98VX6P8dvXs9uvnPpie0Wf+/9x4uR8Z2FV3Hm+vXMnbAid9tCh45dps/LrpzVH5Tuc11C6vDjEuSkzJ06/7hLq0uTBqVP5P7eM4/LB6c3PZXpMvrIyDchNobxL7uOXiaCYJnOvYlhFIA0O6nfzP0eOmKh8+PdV8cdkvEAg7fE0FuXd4F930q9lyL6vIzfmvCR/oTgLZR0to71JpT7pAZiBMtqMe/G2GMGx+ZaO0tst/VuBLfr5F/3VIEelsZG/GGk+FCPcc8dpH5+0jtN7NU1F+Yj+Cl3kddQYMu2T1NYmtfD6rphBm7R4s281Ahej5ciIndNxbH4/3czMk8UZuYrzCfVnD5BWtvZnDja7KdS69fj46zpvRPtOT4qZzCb908m/mjldPNSm9fN5uvPZgJptuYzRTR1238h+EoFo7nQ9E34MswY6R3qmK65JC4ieSXCazooyXnriVaKBzY9mRirCHpsX4Ta2nPq7f13lt3TZIeE+Oarel+avyLCjclZsynmMTrB8i9lqrVlQouwaqtpETMZ91NLKKS3PY9Sejodlwm0kpR2M0XtZ+fdTVsEg2V0KdHy7uyPKfnrnHDeMx3SLG5Ql2C66c6i1TqIalzR/SaFXHWLyGs9KR3Rm5qGRCzQ7qq8HkB3v+iId0/Gojq1izZU51FL5PSIaqujMl8cfyXv4ZjlXee5Gwh0S5+0sr71JpdwWHdng2Xea18cts6VQ0st6kCAPK71FTNr18ZlRHswabWyI0WCSvJXdp4hR/urI17UPn+fzCzSxxAo2PrC0qSW7NdpEhpFxB6XIsoGAOOTAoexBv5I20luGV1ZBDmagBr3uclGuVcZH6nJkKUagqaNrta6jGl1+cKMvW+Px2U8vR2fEBvfpzOy4PFZYc914auLl/4iR8EH35vtOz8iZnQkXV556QPFlPhqXa3mjB6nKHQA/vdnb0bOeaVh5lWWflV24Q8pISHM9RHzXWAkkop/SPiRmuPKBIqFMZlLkQ8vt2eirPGLm89kMLU9vihltiTKrvI+NmWWWKUd+6pY7eH9WFSJddnPK20SVjEtW7tJFMet1BiriuHlSW6NKcNtI3XYwbLIKmgIFmqEaAY2WmW8FreM0LxTJIWvUqkbLIXiEKzqGM34jKDcrORw5JZWtMud16GcxkuYRc2HkK58knCw+3ao7xvzx/BYdemIeUBFKzHqi2H6ogUe5yuSkOiD+NCZFPswA4vB5MRigfOZwdkN0SMGZizKPmZn4/T97o2crn00fgFCdWp5OR+lzZ8mmPja/6d/NgxnSfJbNfh4TSeWQ9vCPgzTPGzNoh+icGGzpn2JklgmWIVEX8olWlrHOJJEtYyUK8hOeidj5Cpjg7bKRslMo77L7WHWnr/Es0y7r8EMuLF8BmfRJll1NSptYCsu4jbO0YqHMtOEZe7iN1GkHir7Iag/aEKjHUPkD/dvf/kZ/+ctf9BkAANSFFbh6N/X5fc8YpDAIfYIZKAAAANAAKFAAwHMEm6Ix+wSDAQoUAAAAaAAUKAAAANAAKFAAAACgAVCgAAAAQAOgQAEAAIAGQIECAAAADdjzClTuLBLYuUVuVi13f+EXs/1daULuhmLbmvlhG+xwk4J2maTSwFuBhdMk8yXS0b89PD1st1yFo2wruAY4ZeBTrLNh3a0llz2NdFbQJ7mRqLLpdXkYWcuOpG0CGauuAm0zR8l5v+tR5SNBVkvlz6DbZiFffc6LdsOGHYp6y55XoGGvD2qT6aDfT+15ZWP6grN/Jm/sHN9kPfciIvfZvFbWKfQSfxs0sy3fANGbb8uDHSWTvWH5oDemt7y5lO6zOkwIZdJ+RBMd2wk5KxjVUfMAsNvBEO9LzDv31HUSn4TZB7qj9pBOSauzf3TFhvZ9R7T3maWjtJwiq1LWK8LpPY9LN6zvA8rDD6VtHwqSgQlXuzJzvD5IIR+jE4GXsZXj4wrXUCXIfTYHQovGR8n1HMN7jo6K6/p0V5A0qm/AgYOiHFI2OtczkNKZUL/gWQkP1trePrFq31ruqHlPWmfTgNrltUkjZwaw8YBsZ/p7BU9jrttqUW9GF6/j12muh0pcuU9jzzsJXpJ6ht6T+3JosrCbUJaJgVnPEoACDWzsLkdr7Blfn+cU/f7VQzTqL9ccP4C+iTMXDtMBrCmTD//uNXB7Y+urD/VFi4lxd1NstXn2JB3S5xIv/qzD0dfz9NhmPm1is0xyMVN4Etq8VEgDXy942VflYsI2Va7KW4brOMAuT7sclIsrtYG3LA+ZXsuk6pybevvGKqPqugzx7E5HeuQoDNZqlBfnKfudkf81ZcbpukLHtA9Qv66vruh65sPUdUBBF+IIITdItwelbj2auFmRKXd/HI9bpn7YApbMrrIPVDHTU67K8vQm17G+PtoW5cPhnfqyysUPXyqPyuvMxJtjBW8sBXReCmkVGGV/y8pLtEwY6XVGyPoRy+9xlEjeGC9N+W8hmRfE5FRg14P/uzKZ59dVPByH8uBkOzXYcaRb7SGhyoP4/478V1dHlE3byz97gI95/Le/p6I95OvD8dTvxGvOTRjtid6JO/+/79FeesDPvNGbPNje+Pn//Lt7Hwffo72VPr6/66nfujf/z0pLlKDHfD896jyLq9TLvp0/QWlYdV9TD76Hf1me2TUOm9eLX9bhejPnpt7sdJhrJkxJHQhkfDqdxTA1y8urG763CevUqcyD+Z8pK33u5M+Lz/mfi50PXz7icWtZtuonHtaTQScdnmwI6texmyZzr0JYQ6n8Cey6kPe367GY3gzvvqZcs/9WxFtIe0nYaN5ken2ZN2kIyXyFnFqUpclNj3/Pcqr0SS/ADJTRZlw5MpOe8ctcmm3Rz7/orwZnVB8iX3s78TAfPcmZrj0Lku6wbF+GROOZ+a5Ff8xMYEWP9mHTcD67XpXrSuFZdTbilLMXC3ardXm/dM/F7pnmTtszIeXvUbp1u7RJsx83NHOxWZnsmYlynbVUYsbLR6hqlpGOrgdei3XcVanyzN1H8Ug3UM81GJ8+VSjrcF1GONmmZelCzHt4qG55sYsrWqSOHMWbGRDXo7KmZM6kpUs+16Q9dVmv57ValtVCx6ctNjyTp0BeM8xa5sdEMyIeNZuojjsnIeyTu2LmLWSwU7b+WK+O1Zph7m6MZ8WmjI2/1mOlbb6I4z5Nt/W4c/6SdsmMTlLbyEDM7ZuEyy93uybdoUXDxvOW1ldZcpAop9yWC76GrZmrtAwMMbtKgf7Hk//u6ogjlME51ane4jUK28TqIASiVOirOXy+Lf35qQ6t/5gGcVYIYtH0rM0ippOTD/m4cKOPIhvJgJHmNuN8mR2T6+t1ONJWvhi9p0LHvQfDdnpDcuUzkv2L1uuoXdQgSsos15fnd3Pqcp7f9UX7QaU4SqZ4Lc3tnEsRHe4cDwgsp9N14i4Lu7TBnXjammKtOhZKynG2bZxb88CSzy9TDd+baiCQ+X8VhzJVh/yOVrfLImJQdkB/tZFtNB8IqIFDSR/WKG/NCCpPkdarYpBEup54EDnMYAZq0KO4i9kIPYx8aleMYhsLlhRoJexGuWXKVIy8bohGdWikqkPaTy+LKUG+bisa3JexBqEf3rBHrB5Bb/2MUFbsNPgmKyp2FuwoHCHoYmTMHdvyNDXv5HW538jKUz0pHE2TxHjub46pRzUj0jP1+U6DV0VE2V/jWVF/kI6a2UmyWfNpUF5Szu4t0rSQkXwQpQeDlxrUm5x9KMUetmqE0DPAQy0xOK0Td3XY8fF25uQ+3i7r1bFpmzNl7VwMxLiDL7OWGJwni7ND1W1ely6lbWD9CT3VX+W9g21C9Qvu4EMc8onoxfJy8PJWu6+qkNOw8syp7gOHAyjQDNVQyXuwpIAcoWnTpRnVSbNSGdzZ6LBC6WSmPL6XGF1mo1Jxn0NC2FNmPq4H/I5obbFRKptaRaMJPkmoZt6ZeeyhGOkLQZedNT8wkJnFlLl2is1fUomyeUm9ysNpzb3rN1GiY/SJaNCUlae6b/bgjO9l3zrnsD+LDpnT7zzskIIoezkj0iZSzoMaCPB91WHuKc1eovPIHjDJFIhKA50THZIK2gd02XP8UonWLC9Gp3eJ3EEUP8Gr6s3k2TMXl6CWDFo0e6ZidpSZTNncLgZjehZXJ+60sFa5yHKyZVvJZd06nnfKWRx6AGk/5CKtIVVlIAcPoXDFBxgVJe1Sh6DRTbphpyFkvpbLUYGBc+jNA000b7X7qjI5VcqUP/M6NfKqTL0mnpkn+6XiVoN36ze7LHaQF3ghVH/fcQbhQRwA0AN4gPXlQVre6fc09yBy9sbvpqLsSxmEPsEMFABQE22+Nw/EALBHgQIFANSEN3LY+Yes9ipsit7xHZqABAoUAAAAaAAUKAAAANAAKFAAAACgAVCgAAAAQAOgQAEAAIAGQIECAAAADdjzClS61QnsaiF35Mh23fF3PuFr+Q4a6ojtwhMIW7mLBu+F2d99KHNU+mrv5KOR5STys6o/Q/mydzdRhymr7uKuKqdivHlcrjul3tZvOD0qXP/rtE/xeK6s0neCscqn4j9GltLu2wwlEyk7Zql0V8mmkqPi/fqaF73Z+mD6B1CK9MkyJAzC/UyBTc9Nj0S551Fuc1y3R8aNT9DtUBDv/0mUuDYycDqkmx8OW/f+NvVcBDl8/4VKI6fFcw9mI10See6pfHdi/cCPN6PM/VO39Ru5N+e5URnXpG/xcL48t1IpZRStgwCu66o+kLWZXqHKIeR2rp95kffmePtZVs8BcGc2CEL7QvIeko7z3xzpiPlkwMlxHwmOZnlvSvkyNe+VmuZFo9c8O3BKl8PrNGc8VSQwwhtKb2z1daZRxjN2wTR6kEb0uU3X9XvgII2LmbHrmmuTRs4MYuOBQcWj941O4GnCRusp1JnRxcMKOe3lBgTSuw179inxbtJz9L66lye1Rxx9edcxSCtb/4ACDWzoLH3fRXxnskuioluwpighMmaxoLlIuu8SrcTe6Fpfz8xp3n9NB3LLMS8lxCWQ/5UmTRXeCcdxmo5p6xuaaeuNosVnqdcKB+2VQbqMc81kKu5IGi0fgXyohtesEe473VYb8Rc62e7rVypgxyEBp/EKHdMbmBfqyeTJSkvMWz9fd/Iqy8Su31A8pozW5Ke8n1WH0575WqbJ8boTQPzvxr2W5bVIxWHSatenctnFsprHY+cvXnfa9MtpSWkDJk9lYYWc8jW7rLN49JGXW5UJV+RZe7eRG+uXejdx47Djl+Utzm9ZZRKPU7Byly6yv+Ijlg/jEhxZsuvVLjsvTjdNWr6C7U/hyLE5dFz+byae1evKl6+92f+uRM9Eh4KqKffR//vPro4o0mxnzHC+SdQ20XnmuiRyM485jLnH9hSv0mBMf64Jt2AOctJrzvP7GhOPbVaKx6XSx2H9eOS5Z3pV98z/o1DnMZNeZnLSRx7Ov0+Om5bY/ctN3X68vimR8/OKU58cT5f1G4ijqtzLUHnQ/3HMqOo3c+8qWcrzacerf8vSXJJ/aZo2+TT3VsTj1mVslYnMTyS+vM6LZZP/pgnEY9LQVdiMivoJ1GVWBoLU+8pwdjxlywuCQtpLwqo0BurTvy7PS9JUKItifjNk+sMy5JZJedvtBTDhDgptxpWjOekCqMylWcCLvTMTCNHSDqDVoUxsaraTuSwKedqPkOIdXtzUcmOUENdDHrnvp5uWiUu6eDIjaznr0GZt6dPUNnGHvc07WL4Qo+ZRa5TreKLX8SU5bvaxfTB6ZmZ2k7XeOUoP2vYsrIv6ZcfHjoPksnJXZlB2zRSbhfHo3fGZyK7KxMxZ+WTkmbzxXVtdv5kLPfZFmzkhV26zTJqVz0rX4bZD5mD6Dbov4lHpriPH2ido5uKMnTv75f2EOh/lrvJiyDYg4jbusHimG5O/srDGz+WxmrMgvidNn9JWKi3/BbdkOflMUDm0drDbqvajeT84C+WyztuBbJ/RsALTr7W9GWbd/iO1vfOsVrpAtJaUYm36OWFXKdDv/v1/ujri5B3JLW4Y0rwYQnd6PVzvqOOVv1vK4lrY2KTxQmPk/Kr1YbfD6AdrO+OJXnQec+wjUprCuqzfI7weJjpqzwQaK3epwBcv0MQSKx+3Ay8oT4labpDpk+tvrrJrJEtZhx3zWRlijD4Rg4Wl+btZmuvEPa7r2ByOolzfpA3xUaaMMjKFro+ydfhYWH6WgM8vk1SwcZOyjRoIZIMGoxwia5Jcl8oxPcfdFuVdhXK4X0AqMtuHplLGcXnl5yNUnNRvH5oh5blTbXqAYAZq0B3JxWxUH+bwGfbm3klsaGWYGUh9+39t7/AJcU2dm5EOhDdEQ7NHq7y+s7TUoRm7XCq8zXdDMA+F+HqJnhVpuq1f839Vhil1zJ0cd6r5rC2sPBWy7u8t0rRef1M0lyX+r3JSfEWtrSVW4Sp32vJBrDpx6+cN5jvx9UIxM5oTnf7NQ6E16hzTBlLW3pPCisEPd/ClVhSDXIf0FLI4brKT9diaZOShNcn6E3qqv0orgCinlwv1oNdcnYGKOESbZXmIr78yyrn1uI6ndv9R1d6DyjMn3i/tfqBAM1RHwA24tBORI9Y2HbJGn8psVZ9Ur/xBb/m1vMMnxmXf18yipNlQjLad2U6Zt/mmWN7mxT19T/Sf+GXuzfKiZObC/H/ugw2sOERn6MxIuqhf8f85mQ9VvvFytx8sETOJrHzLvPULxP3fEx31kkhzbqJPl6UQskMVn5X+PbUM8v3P3mvR7McqfJ242RXXMs/49cNOfNgDNsPh8xfUg176XsE24MigOLRM1Alry8IxMUhMmYHz4CFUVuphItuEr7DTMzr5mEgOOKwyGt2kG3YaOsWBk1pacutcEnqLwGCZT1mGMwsSl0et/qOsvSvFLiJz6lSVb1mbVlY/NYtvMvAbDl7ghVD9fccZhAdxAIAHd7TtJ/ReYMYL+ou0NiwdpWX49+w5g9AnmIECsKcRM4hr1uwEAJAMFCgAexr1oEl35nfQFDZpr2P2uWuBAgUAAAAaAAUKAAAANAAKFAAAAGjAUCnQkZERevrUvBEFAAAA1If1COuTfjNUCvSll16in376SZ8BAAAA9WEF+oc//EGf9Y+hUqCvvfYa/f777/Tjjz/qKwAAAEA6rDx5Inb8+HF9pX8M1UYKDGf+H//4h5yN8hR8ENNwAAAAuxsz+WLlOTExMRDdMXQKlOGC4EJgZcoHAAAAUMaLL75Ir776Kr311lv6Sv8ZSgUKAAAADDt4jQUAAABoABQoAAAA0AAoUAAAAKABUKAAAABAbYj+H0+mJvEYTMhCAAAAAElFTkSuQmCC;" vertex="1" parent="1">
          <mxGeometry x="70" y="60" width="464" height="115" as="geometry" />
        </mxCell>
        <mxCell id="TRVxPomc37XZtXrlSaVd-3" value="" style="shape=image;verticalLabelPosition=bottom;labelBackgroundColor=default;verticalAlign=top;aspect=fixed;imageAspect=0;image=data:image/png,iVBORw0KGgoAAAANSUhEUgAAA+4AAAH0CAYAAACjNndqAAAAAXNSR0IArs4c6QAAAARnQU1BAACxjwv8YQUAAAAJcEhZcwAADsMAAA7DAcdvqGQAAN04SURBVHhe7L0PuBxlled/kISQKEkw0SRAIOAyAYcBA2MAUQPjyIyB9e7MoLPiDOg6kPD4Z00cYVYccyPCDvoYXHWXG5BVcEVXmBmuS+IIupBRRpIZckXZn2EcQiCQe6OJkiAJmEB+9a2qb/d7K9XdVd1V3VVd389z66nuvv2n+u2q9z3fc8573kMOeJgQQgghhBBCCCEKycvCvRBCCCGEEEIIIQpIoSLuIzctsaGHwjseC5autqULzEbXDNrgt0bNzlhqqy/3HgBja21wxZM2sHqphY8IIYQQQgghhBB9R+GE+/rXB2K9zogNrRi1gZWLbeymQRt9+6Atnl1/bE74LCGEEEIIIYQQoh8pZar8yE3DduwVEu1CCCGEEEIIIfqfwgn3kaEltmTJEhsaCR+wBTawcIMN4jEbsAUPDdr61yPqHv5bCCGEEEIIIYToYwpaVX7EhpYMmYVz3GuMDNngtgEbeHrQnws/5+2DNnhB87j7unXrwltCCCGEEEIIIURrFi1aFN4qBoVdDg7z3YePdoV5OK/9CrPVN5otWbnARlasNrtC0XchhBBCCCGEEP1LQee4j9j6h8xmH0XRPmprV6y3M1WMTgghhBBCCCFExShQxB3ifNCGx4J79TR4PD4+ss5l45KkygshhBBCCCGEEGWmsKnyQgghhBBCCCGEKOlycEIIIYQQQgghRFWQcBdCCCGEEEIIIQqMhLsQQgghhBBCCFFgJNyFEEIIIYQQQogCI+EuhBBCCCGEEEIUGAl3IYQQQgghhBCiwEi4CyGEEEIIIYQQBUbCXQghhBBCCCGEKDAS7kIIIYQQQgghRIGRcBdCCCGEEEIIIQqMhLsQQgghhBBCCFFgJNyFEEIIIYQQQogCI+EuhBBCCCGEEEIUGAl3IYQQQgghhBCiwEi4CyGEEEIIIYQQBUbCXQghhBBCCCGEKDAS7kIIIYQQQgghRIGRcBdCCCGEEEIIIQqMhLsQQgghhBBCCFFgJNyFEEIIIYQQQogCI+EuhBBCCCGEEEIUGAl30RvGvmK2ZTC8I4QQQgghhBCiEYcc8AhvC9Ednrnf7OHzgtuHH2d25pbgthBCCCGEEEKIg1DEXXSX5z2RTtEOnn/C7NH3hneEEEIIIYQQQkSRcBfdA6nxD58b3J7u7c98PLidJm0ewh8bovZCCCGEEEIIUQGUKi+6ByLtENwQ7afdN/4xcNwKs3kNBDyEPZ63a134gAfS7Ge9p/FrhBBCCCGEEKIPUMRddA9EygEEOpn/FW/7cnD7iZWNI+8Q7BTth88LNqTZ4zVu6r0QQgghhBBC9BkS7qI7IB2ewh0Rd4Ko+ez31NPmG4l3vhaRejwXe0TaIeARiU+aai+EEEIIIYQQJUPCXXSH7bcGe0bXo0CAu+LdLVhH0Y/nUPTjNiL3iNgDvAbPE0IIIYQQQog+Q8Jd5I9bTM6NtkfxxXsYWYcIp3in6HdT7Mn0RfXHnxhU5F0IIYQQQgjRd6g4ncgfFqBDSnyjiLsLhP7644PbeA0j6YjIQ9zHAcGOqDvAc5BK3+i5QgghhBBCCFEiFHEX+cP56bMuDfat8CPvYdo8RTsEfDMhjvnuSJvHc/B5cBYo+i6EEEIIIYToAxRxF/mz7pBgvyjlqeZG3hFBb5ZmT/AaiH03+o4of5LXCiGEEEIIIUQBkXAXjcEccwhhit924Fz1pGnyUbDkm3mnaLNoexyMuvP4Ee3Xeu9CCCGEEEKIEiLhLg4mGrUGWLbttPvTC2jOb4doh3jvJhD9Y97n8nu06zwQQgghhBBCiB6iOe5lAVFrRsDzBmLbFbsQ6xDB7cwbT1JNPi/gbECUnVXnn7kv2AshhBBCCCFEiZBwLwuIgGN72BPAeYp3CG2+P+aVI0LN+eV4HIIe4j3JMeB4AdLU00bqswTi3T/+J+qOBCGEEEIIIYQoCRLuZYACGDDynYd4x3vivYFbDA6iGxXba+ule+IdReNQdA779d7/N70nOE73uHatC/a9FO2EFe3d9H8hhBBCCCGEKAGa414GkCIPUQzhTOEJMcwl07KC89Eh2CHc40C0HYIcAr2R8wAp6tPD98Jzmq2/3i3g8ICDwXdCfLnulBBCCCGEEEKIgiPhXgYQ1aYAtkPq6fJZFnxjCnxah4Av4D1RvMsT6RDqcanoaZeByws6JuAAUYV5IYQQQgghREmQcC86Y7eaPRqKcwpgRN8RhUdk+8wGUe80QMzGpci3C4Q8qrm/4O2Rol6U6PYz6wKnRx7ZCkIIIYQQQgiRE5rj3g0apZQnAZFs4EbWcRtiGAIZAr4VEPruPHkXHBtFOyLRWYhsVnMvWko60/XxndNWxxdCCCGEEEKIHiHhnjd+8TZvozhOC1PPWVyNcD1yLHHWyjHApeQwxzuayk7hD4Hd7+nj/lr04dz97V85uC2EEEIIIYQQooBIuOeJW2UdIrFR1LsR7rJr0cg1oseIvCPq3qxSuhuRx3PhQGC0Ga+jeG1UjK7fQDsis8DPVkD7tXB6CCGEEEIIIUSPkXDPC4hjimamuaddimz7rcG+UQG640IBDodAo+gxnQVuITscB6LvFPBVEe2EmQX+XPyUzhQhhBBCCCGE6DIS7nkAEU2RDsEMgY1IL6K7EPPY4zkQzth+5P2PKfVYDx3/x+PYc/myOJD6zf+5kXWCwnYAgh0bnsul2SBaQVbz2ssGnRhca14IIYQQQgghCoqqymcNxDYEOHCXHYNQTzrPHYKcwrpVlXc//T10CrhRddzH52EffQ88hmg+jqlq0XbCCvNol6q2gRBCCCGEEKIUSLhnCaLkEMQQxnGCEEIaYpnVzfGcSZ5IP9wT+hDreByvZwp70vXGke6NiDveg8vDwXnQ6DiE1zZPBNMF0OZaGk4IIYQQQghRYCTcs8QV5p2IQaS4P++9Pk2Vd342Iu4Q/Iz6R6PtIkDCXQghhBBCCFESNMc9DyCcO2H2pemXZuNnYnk4znfHEnIS7fEgOwEgK0EIIYQQQgghCowi7lnhzmFf1KMmZdSd9Oo4ygKnE7BgnxBCCCGEEEIUEEXcs6LV0m3dYL6ztJnmtbeGYl1RdyGEEEIIIUSBkXDPCq4H3mmafCf4y8N5x4FjUIq8EEIIIYQQQvQFEu5ZwDXbEW3vdcp1O/Pjq4oi7kIIIYQQQogSIOHeCRB8mFfO5dumLQr2ohxgKT4g4S6EEEIIIYQoMBLu7QCht+k9QXEzLv+G9PRezm8XQgghhBBCCNGXSLinAYId0XUIdhajg2BHVXKlp5eP6eEqALvWBXshhBBCCCGEKCAS7klAVJ2CnfPZIdix3JoEuxBCCCGEEEKIHNE67klYd0h4wwPV2ud/ufdF6ETnPP+E2Xrvd8RviawJIYQQQgghhCggirgngXPXscf66BLtQgghhBBCCCG6hCLuSWDEHVFZifb+gr8tpj0IIYQQQgghRAFRxL0Vj7432M+6VKK9H+FvqiXhhBBCCCGEEAVFwr0VY18J9lrqrT+RcBdCCCGEEEIUHAn3KBDqiLL/6NygcBlAQTpsQgghhBBCCCFEl5FwjwLRDvGOtb1RdRxg6TfRnyjiLoQQQgghhCg4Eu5RsNQbQIT9tPuDomWKtvcvk44L9hLuQgghhBBCiIIi4R4FkXaAYnTTFwW3Rf8j4S6EEEIIIYQoKBLuUZ65P9gryl4N+Du/IOEuhBBCCCGEKCYS7i7PYF57KOC09Fv12DIY1DhQ9F0IIYQQQghRICTcXSjYtPRbdXCL0z2xsr6qgBBCCCGEEEIUBAl3l11hmvw0zW2vHFxBAGC6BKdMCCGEEEIIIUSPkXB3QbQVaH57dXCnRGDZP64q8MRgsBdCCCGEEEKIHiPhTsZuDW94aH57tTjzcW/bYjbPE+tw2uD3R70DRd2FEEIIIYQQBaBYwn1srQ0uWWJLsK1Ya6Phw6NrBoPHbhoJH/HwnztkziOdwQir5rdXDwj1w8P13HEbkXegue5CCCGEEEKIAlAg4T5iQys22MKVq2316tW29OhhW70G0n3EhjcstEE8ZsO2dix87o1mS1YvtQW42ymIrLIwHdZvF9WGUXecE4q6CyGEEEIIIXpMcYT7yHobmb3QFswO7i54+4DZt4ZjI+ojNw3bsVcstjnh/Y6AOHv4vOA25jdrfrtQ1F0IIYQQQghRIAoj3Ee3jZkdPacuxmfPsUDDL7CBhRv8FPohG7AFDw3a+tcP2uJQ4HfCwp+9xRZufZ/99f7X2759FyhNXtSZfl7gxIFjh0ULhRBCCCGEEKIHHHLAI7zdUzCPffDpAVt9OZPfR2xoyXo7002HHxmywW0DNvD0oA09ZDbn7d5rLmged1+3bl1462A+etQnw1tmf3XdPJs39RR79o9PDx8RVWe2/YPNt7+x571b6+0b4aNCCCGEEEKIfmfRomItEV4Y4Q5RvuSuY21wZZgCj+JzK560gZpwxxz4URu4wmw15revXGAjK1abXdFZ9P3mnbfazb+8zd70nSm25PrpNvGYmTZj+R/b1He8KXyGqCyItiNVHvPcMY1CGRlCCCGEEEKIHlCcOe4LzrQFYxtsxC8+58n0bw2bvX0gFO2jtnbFejuToj5DLpz6B/7+p697wd/ve2qHjS2/yR4/e5l/W1QYd6671nUXQgghhBBC9IjiRNyBH2UfDpaBmz0QRt8h2sdH1kduWpI4VT4JS59abhv3Pmz/Zd9/sjf/w2Tbfcf3fdGO6Psxd1zt70WFQfFCRd2FEEIIIYQQPaJYwr1HPOSJ9is88T5n4iwbnne7L9qfese1NfE+Ye6rbP/WX4TPNv++K+Z5m4Kf4HGk3CP1XpSYZ9Z54j1cIu7Mx8MHhRBCCCGEEKI7SLh7jO4bs4Et7/Zv33jMKjtj8mm+AN++/Cbb88Of+o+3i8R7n8CoO1Ln5yltXgghhBBCCNE9JNxDsDQcuOyVl9hlMy71b0O87wsj7RPnvsrfAzy234ms8zmTzz7Zpngb2bnq72znDX/v356x7I8k3svM+uODYnWKugshhBBCCCG6jIR7yCe3f9ru3v2dccI9CyjeEXmfteryccJelIgnVpptCSPtEO4Q8EIIIYQQQgjRBYpTVb7HID0ejO7f7u+zYuo73+xtb/Kj94y+ixKCFPnp5wa3EXkXQgghhBBCiC4h4R4yZ2JQsn7bvnA9uoxApH3Gsj/293t/+FO/gJ0QQgghhBBCCJEUCfcu4Iv3cH47Uuej1edFSZi2KNijSJ0QQgghhBBCdAkJ95A5E4KIe9ap8gSV5VG8DoJ9bPlN9vjZy/wNQr7TyvVCCCGEEEIIIfoXFacLGd233Qa2XOynzA/P+1r4aPvcvPNWf+8WuoNoR7o8hHo0ZR5ReQh7ROZxuxF8jwnec1Torssg0o5l4aYvMjtNUXchhBBCCCFEd5Bwd+CScBtO/J6/7wS+F9eFj9JIxEO0H//DG8J7dfD83d/8x3EF7iafdZIv9CXguwSK0mFZuMOPMztTBeqEEEIIIYQQ3UGp8g5HhQXqRjMsUNfovSDQkT4/e9Xl9ltbv+qLdTzGVHqC+0in99PqQ9HOiPzeBzfZU++8rpZyL4QQQgghhBCi/1DE3eE/bHm3X1UeqfKsMt8ujLinWRceIh0iHEDUMypPZiz7I395OQp8ROoRhcdtQGcAn0P4Pvhfu+A99m39haL76w4J9lrLXQghhBBCCNElJNwdrnjqI/bQ3h81TG9Pyprd37GV2z/t375w6h/YJ2Zd6d9OAsS4G3EHrmCPQlG+y3sdRT6eN2Huq2zKWSeNq2CPxzGPHgI+ToDzeXgfiHSCx5nOzyyByoI57pjrftp99XXdhRBCCCGEECJHJNwd8hDup3vvM+S9XxqQEo+57xDeXEYuCRDYXG7OhULejd5TxOM1+z2RTtHeDLwGz8M+bh5+JZBwF0IIIYQQQnQZCXeHT3pi+25PdCNCjkh5u/B9QDvCvVMgriHSIf4hsin+8ThS690ovAueCyDoeZvgPfCap95xbU28H3PH1Qc9rxluIb5GUf/Cs2XQ7ImVZsetMJvn3RZCCCGEEEKInJFwd8ASbjf/8rZU89Lj4Fx5kNXycllCYY90eIh0kFREI6LvFsmDoE8ydx6iHYX0XNoR/z1Hwl0IIYQQQgjRZSTcHbIS7ixMR7JYXq5I+JH7O75fq2QP4Q0HAMR/dH15/7nOMnZ8HovqlW7OvNZyF0IIIYQQQnQZLQfnUFsObv92f98OD+192N8jRZ6V6Rl97xcg1CG4UTQPUMijqB6i6v8698/96vi47y5jh+fP/ebH/D0i7YAp/aWBleSxprsQQgghhBBCdAEJd4cshDbXbZ8zcZbNmTDLvz26v7+EO2CaPNegR9QcYp6p9xTzwE+Jh2B3Cu1R/ON5WoNeCCGEEEIIIRoj4Z4xG8OI+xmTX+fvswLF7ljwrmhQhEO8I6IOIU8xz9txc+gp5Pc+uKk8UfdaxP0JRd2FEEIIIYQQXUHC3WHOhOxS5UEt9X5f++9HUKkeWxmAkKeYx74R/vPmvsq/vX35TX70vRRwGbiiCnfMwx/7Sninh+AYUMxPDg4hhBBCCCE6QsI9QyDamSrvz3FnqnyGc9yxznw/gfnuEPAQ7VhqrlXaPFPrlV7fBBTPe/S9gWjuJTgGVOB/WOvdCyGEEEII0QkS7g6Ylw7aFdpXPLU8vFWPtovmICqPQnUQ8L4ov+Hvbes7rzso+o5UehS6Y7E7bCh+1xMQ0Xb3RWX7V3p7jPO/HOwxraBZBgAi8kVvSyGEEEIIIXqIhHuETgrUIco+bj8lmOfups+3g+tIyCLtvmgg4o757lwWDpXmEX1ncTvAVHr/uWE1+55VpMca7kXFFcgQzIh69wo3RR6R9zgg2NcfH2QJrJ+ntHohhOgRA1su9rZ3+0vjCiGEKB4S7hly4dQ/8PeM3GfFNmfOfZZp90UD0XcUskNlejclnhF4iHb8HyKfEXoI+q4z3ROZYNe6YF8keEyz3xPsIYR7lTL/whPhDY9oVN0V7MR3NITHLUQ3wDm47pBgL6eRqDgIDMDGuPmXt/kCvp/tDSGEKCMS7hGyXMLtqIzeq0qDJ8Q5Iu9u6jwi62BWGJEHU9/5Zr+wHZ7Ts5T5IkJxPG1RXbwj2o1odrfT0fl5zFDAcUAcQaxjw21U6cf/z3w8uP3Mut7PzRf9D89DinXe17knKgyDDwB2x9Knl/sCfulTy71tmb+xUO7K7ddL2AshRJeRcM8QDmJHhdXp86DTtPsywNR5RNdxG2AdeHdJOTdlHin1XS1WV1sSLjT6iwSPCZXvMcecgpjR7G4KEx7L7DBdn1F27F3BPs87JtyfH6b5b7+1+04G0R/g/OI51ghfpHvXB89DnHc4F/E4nEs690RF4RTBy155ib9nBB7L3G7c+2N/49K0a3bf44n3cqx0I4QQ/YKEe4ROlnDjMnKcJ899p/PSq+rVhjhH4bpG68AztR74BeuqXmke0WpC5wL2p90XiGOIdz/63oW0YIqfw48LNhIV7C7TFwUOBxybxJNoF1+AN3BQoQaEf/571wLORZyHsy8NzkUu8yhERYFAB4i8D8/7mrfd7u9vPGaVDYXbJ2ZdWRP2QgghuouEe4ROlnCjt9qd414X7+2Lb3dd+SxS+MsExDuj7nHgfyxqB/GOqvNInXcL22UOhSgEQt4COA08FqbIk5pY9v6P23geIo55Rt95LNNCMQSBxAyAqGB3OS78XxHrB4jOwDmBcy7Pa4bvjX3U+YNCjSzWiGsE56ILrg0gp5GoIG42H+yWYJvl78+YfJpfdBcbRD1T6qtmjwghRK+RcM+QWsTdSZWnI8AtMJeWdircVwlE3pE2z6J2EO0Q77mKeEbn8hQhadkVCg7Mb48DDgdE3/204DD6npd4p/BmO0EURR0KcVA8FaldRTZwXX9seeCeMzi/MeXCv+09jvnrXHEB1wCXKnSZ5GSGCFExGFxw57kLIYQoFhLuERgh35axJzmziHsfLgeXBZgTP/ebHwuqzjcQ8T1ZOq6bMFLYLOUXwhgRb0a9IaKarbHeLu0K76JmM4jOwLnJ8zOviHb0/OdnunUVINobXR98nA4wISoE0+S5nG0z6pmEskeEEKKbSLhH6GRAojjnPHmAFDPQiXCPkuV79Rt+0TpHxCON3l1eLjOKGBnmsfDYmoGoO6OOeURAeSzNnAiN4Gsk3PsHRr8Bftc8nUU4/3EO4T4i7QD3kRrfzvkoRAVgqjxtllbU6wHJHhFCiG4h4V4CODDSE95J2n2VgIhHGj3nwO/3xHtmMK22KOKSQihJOjrBcylwOPc3K1wRlRam+ucVmRXdBecCz084jIAr5LPihSeCPc4f1koA+ExE2ltRRGecEF2CdgaDF0IIIYqHhHuENbu/4+/TFl1plGZWi+C3ENsLf/YWf7t553iDlpF/Dabt4xe4C9d8x9aXMGreaH57Ixh1f8YTNlkJlrHwHE7jRHBhVFQpy/0Bz81Zl3rnhLM0YKeOGdchAPh+OH+wQkGSYoguNeEeOgCEqAhY3g1cMPV8f58E1vJRIEEIIbqHhHsEDmAgTQoYn+umyYNPhuucNisw535OdJ12OhBQ5E6pae3DyvT7tv7C33fM9DAFtwjVzyFeIGIgPNKKZbwGG4vVZcH2DtOgFfnsLyiuIaBRw4DnKKLuKI7oiu+k4HWYu45MEQr26PmCz+G5lBQ+X9keos9hsGBgy8V28y9vCx8VQghRZCTcI2B9UkTNEenOcjBrFnFfGYp7EI30uw6BTpaqqzqTzzrJ3+/txwJ1TDtmGnJaEAkFWYkVCqi00X/iOhOyFFByBHQfd/m1qCiGYIezCM9xp2pAlGNu+o/ODfa8vd57PcT6ukPGO5miDqe0Yt2lk9cKUUJg69CmuHDqH/r7JHDZW9kjQgjRPSTcI1w241JbMetK//ZDe390UAS8EbU13ENxTTac+D07Y/Lr/MEt7r2WPrXcT7Nnij0GUS3/lj1T3vBaf7/nwU3+vmNo4PdaDEL8UAi1m5rO1+G7dCqUkSbPNmn3eEDWAgrtBNGHrZ0Ir2gPtjWdQ8BPmffODaS08xxxzzsIcdxHNgv2vA1HDs8tnB/zw/fGY51OzyBFua6FyJlPhHYObA/cxpa0MJ2LhLsQQnQPCfcYMJ8ca5lCRHPOeytqa7jHzEU/ffKp/j46f52iHa+Bs6Am3p2ou+sQSDpfXhzMhDBVfn9WqfKk1wY+o+1x61InBWKF88o7Fe5Mk+/keACj9RBxiLBySa92cCO6+L1wG9HbvNawFwEU7f6c8/D8AkiZx/nB9dTxP/wuFOnkNO82nuNv3u0zvedgzjq32ZfWX5tVPYSiFZ0UImcQOYe9k3b99miQQgghRP5IuDfgslcGESLMeU8adW8E089cwQ0Rz4J28HQ3Kj7nOgT4HEXk0+MWqMtkPXfM1e11dM4VOp1GGhkR7WTOfpbHQ4cE34/CLi1Is6aAhEjEdAL8bpzTD4eABHw+MIW91RQOnntPeL+DO+0DBeYo+nGb1xyvO8DX8jdud3oG4XsXoXZFwcBY6NaAEeVGkXIhhCgfEu4N4PwtEI2Ux9Gs+jveK5g3H6TLY+P8+RuPWVVLT+N+4566o4DvKzqHBeoyo9fCncKo0+g2YLG9dr8LXsfjcdOi24Xp1BBw/H5po6pIn6bYR9QW74dorx/p9YQeo7W+gPd+Swn47ICQRttSeDeD/8fzKcCTOn6i7+2K+nbo9PV9DAqtYuvUkS2KxVFhdfi01IrlKgNQCCG6hoR7E4bn3e4LcUTGMd+9GUxvP6pB+hhFOZwAVzy13L+NQnjunLJaRN1Jlef74nl8bw2U7dFXBeqyjG4DRDMpZNuNbPN1SZffagbTqbF3hV0aEMEFTMcmEGdIsx6Xqh2JwKf9LDGepNF2gN+DvwHA+ZxUQPO1pFPhzdfr9xd9jpvN1w7KABRCiO4j4d4ERMohrgGXdWsXzh9z13tHITwXDoSKsudDXxWoSyOMksI043aEO8WTn9LcoXiKgvfDlqbKPNoHvwuOq5ljA/+DgMf8aV88enu89mHvNubCS8Clh9F2/GauqG6G286dZGxkde7pdz8Ijk8b9zR3YgshhBAiHyTcW4BINwwWiOlmKfO1InINvNfu4xDtQ8esCu/VqUfU6x5s9335Hpqb1h6ZF6jrVSEriFcK2Cyi7YQiq51CXxT9kzIW7SSNIEP0n2nvSR0byDjwBTyKnnltCicBBCjeS6SjneUJIdZx/kWzI9KQhROLTiIg8T4OjTv9Rd22aK/I3JwwxV4ZgEII0T0k3FsQiPZggLv72XtixXuz+e0uEOyNRDuoC/Pg/fi57vvW5pXlaESh2v3Sp5bl+hm9AHPcJ599coYF6jIy8P0q58cnfx9G2yF2soowAr7XM1h6K+V3YjGvdkVXK+gYoChMAsVgGtAGEI9uBJ7zrkVr3LoCaZxKrD3QjiOKv1cWUzSAhHtTNMe9P6ilyrc5x10IkTEYO1VrR7RAwj0BSJcPlocb84vKQdi6MELeankUCPZGop1gzXfgFrBz35eD7LYcvdxI59+498e2ssPpAX0PDfwXPAMfkdl2lyyDQEgqEPE8fkZWQoXg+1DophWrPKa8hDvfN0n78nfp5FgQgWcEl0vcidZktRxgGvB74/fKCgn3pijCKgAj9f3m4BeiZyCIg8BMO3akqAwS7gnAXHQs2YYK8ADCdmDLxbUBi3tGw7OCS+9k/b6tQFYACIry9Vd0ZUoeBeoQoUZH64rqNFAgJIkmM9qOyCQFRpa0K1b5HfI4JpBGTNHp0KkTgZ/J31e0hu2U5RSObqO13A/CFWcSasVi4c/e4m9pyctuEUIkAHYKgj0uGnNEAiTcU4D57sPzvhamz2+3pU9/JNFScWk4ffKp/t4tAEQhDbrh5XYjKp0W5SsaSJUHmaTKwzsa5YWwMnYa2Flj30ogUpRmMZ83DohVCN40heCQHg3yFGs8LtDsuNg+eD6Fd7vg9fxOaVL0q0pWDpNew2kf7VzLFUHp8sXAtT968Zt0Y+qeEH0JC+jSnnFFuwS8aIKEe0og2oeO/qwfhcdghXT2m34ZDJ6tUuXT4IpnVqQH/IxchXv43oGDYqwW+e8HJs59lb/f/9QOf98R7lrjmJ8LOu1wm4lSOgryirYDvK87nxzfB3OufuSJsUbHxmJ2jFTmRZKq92x/PrdTWOG82WeK8eR1bnYLHr+Mpxp5Ts0S7cPpdGmpj/Gd2SzdmLonRF/C8YW2hWwMkRAJ9zaAoMW8dy4Vl7Q4XRLOmBLMcadYvmDq+f6e5O1V5/sjys/BvV3joIigQB1Agbp9nVaXd9cab9fY59rVpFmKet7RdjI7dBBgIEEqFzzDiEJiHn+zJdLyFmyMemPfqIBL1kXy8D5+BoL3nbMeWPGe+B79UoyGbZ+V06RXHBf+Hmmv5QqhJeF6D6PttDvSZP9RaKswnRA9Jm4VH409ogkS7h2AqDtS50kWwj06kF449Q/DWwFcBz4vAe964vl98NhDe/vHUGO6PMR75qTtcPn8mkBskKLOaHvWleTjQKEvfIZ7bCyEB+cB1jh3xWa3UqSRaUARDWfCeu8Yo6KXbZdl2j7fk/UFWoHjayby8b91h9SdItjipl2UDX7nvM8D0XU4LohigPGfDvXLGUBIEfXOKuIuhGgDTi8EtLPo+BaiBRLuHQJxu2LWlf6GOfBZgqh39D2ZNp9XZV8O6EdNmO07Jdz59f1CLgXqIHTbibrzue7r4+ZTUxxnKUibAfGF4+E0AOyxxjn2cC74wtkTnq7g5PHnBY+Fa327xwEBn9dceyw1BqKCnNHyTd7nIRsBYpyCnKsMxJ0L/H3ZvgC/LxwRac6dolHmY3dxHVf98p0ygs7cXsynFnWuCFe2wfh8gWcTYDWawMHe3d9FleWF6BBmXbq2heqriCZIuGcABk5sWeB6wN257eSyVwZzbvMaKOkQoIFGx8HNO/soXT6c555JgToXCtd2jX2K82i0llHldtYlbxd/bWxPqLtLzuH74X7cGufdcigAfJYv4L3P5nH4UeucjgFCDp+Jz6HohjBntByPub8Z2onCD9kJUdhm+A5+e3rt7D/fG6yj2QydgmOInk95gM8hvA7KDL+D+71EvcaK5jT3FI7PURsh6RQG10HfCd2ouSNE3/G8N+a7RMdojTuiCRLuBQSDMrY44Q5hzyh4Hunr7hx3UI/w98/APCGc555JgTqXdox9t7AbBByFqNuRQxyCborjZkDIMvLN79yLec2zLx0fgScsKJcljIzjd+EG8DgcCDiORQeCDb8j7lOMu1kJzArA/9h22FPEM4ugE/GO84fZAIz+552Kz/bIo+17iQwon5rQCwWj6C3RTLzLZgTp8kkj7lEHvRCii0Qj6hhnNNaIhEi4FxCkqLtz56PQeNq4J/u0uKiBxoEdBfj6xavOiHvmdLL+M4WcW9EdUOhBmLritAgw8o0IfC+dCm4EHkI6j3bCb0OnCoQwoNiGAyH6mRTjABF2Cls6auKej2NnhgPEe5rUeTwPQp0p+swGIM+Ex5IXnJ+H79EP8DqUMTUORFgxJmAsUJS1d0QL4rI2TrczIWrLwSkDQ4jk0B6g3RQ3PVKIBki4lxCmp2U9n43GQBRG33u55Au+K7dOjUZUlp9y9sl+cbpM0+UpxuKqhDaCwoCCx63oDp4IhRwjvkUDx40IfBGAgKbwzQP3N8BvHRXfUdA2fA5FdKvIND5jXOq8J8QbiUdG1N1Cd3x/vB7vhQwAvhf/lyf4rH6A30PC3ceN0HL80RJgvYMZcEeFv4U71zzJ8q3bwvGz0+J0dBzw/YQQKaCDmGMz7QWNO6IJEu4l5PRwybis09c3hqn30RR9puWt6eF67ijGw21gy7v9rS8q3UeFO0QwOm88jvRm7JOIRJE/+I3wO2DPaHorkAUAMDBj4+/d7Pfk+/M84Jx4F2RiQKi75w+EOqYNMF2fTgyeW3kSNTzKDtvshbB9RY1alFVirZB8cvun/a3Z71NzxGg5OCG6TyM7oBtjtSg9Eu4lhF72bkFHQdYR/jTUUgIR8QlvwzhpF0/a+GReWR6wU05C3HPphaVgK2q0vWrg92XRvqTAEYPXAKbYJ5lWgM/ieuLNlonBwO8K9bj3jnr1/XR67/3bnUcfd866DoR+oJ1ruSJwHJBw7x31iHldeH9i1pV2Wbg0HKLuS5/+iH4jIYrGM+F4jrE7Ol5qipZIgIR7CcFgjfR1pLZnGXWmQcbUeEJHQS+NAEb9LzzifBs6+rN+G+D7tyvep73jTf4+07Xca8Z+pPBIEtwO3BVfeLxfopj9QHSgTUL09+Pg3Ira+RQziHM6RpJicPx81wGAc7SdeXUQ/0jLjyu4l8QhIUqJm1rNcaCXjlxxMMiUu2zGpf74HYyPY754j4O/YafFBns1t16I0hJ1crv2gWw9kQAJ95LTaF56O0QL3hD3fifGGoyFTsU/jgUbxDtAZKGdY2KBukyFO2DHy+hmMxpFKd37iraXH/ye7QzOiNbjtThPoucT70fPnTj4HJ5v7j7JeepSK5r4lSBij/fIaxm+XoI289v+iXp7CZ8bj1nl7yXWekOjcZoMeb9P3bk91lFmmhAiY7gUHIsZu2M4xx2gcUc0QMK9pDAC3akQdokWvIkj6TqxcXBu+srt14ePJCeaDeAaLTfvLGlFTnbMbsdNMMcZm6KY/QVEe9zv3Qg+t5HATvJeeA4+1xfZYd0E4laeT4J7HBDxXKcen8EpAf0C21YG1Lg50Rh7goyvMa9f7oM6IyWD4zSLBMYRdW67Y2Qr4Z8GtyieECIBXAqO40tUwOcx7iBLrpPpcaJQSLiXlDzmncfNmyOcO5cFa3bfk0kUAGmB7VJby33rL/x9ZkTnEzejmXCH0EoamRXFh3Pjkxa1IzyfovPcm507zWDdBJ5beJ80UXd+LjJBcBsRaRxDmnn/ZYPfWdSg4/jmnbf5+ziWPrXM35RSny0Uya3S3DGOY947uPvZe2q/QxLhnwbaC6osL0QCON5y7J4e1r7J097DZ/nT47zxP814LwqJhHtJqc07z6iy/MZIRDvKGRk4CmhEgGgUoBVxxsqFRwTV75WyKQoPBs60Ihsw48IVjxTfSea3k+i8ejgSGIVPOpC7n4tCeBDv2PpVtKtQUEO48kiz8Wfj3h/7Wy9XI6k6nPeO8ZOV5pMK/6Tw/YQQKagJd2+cwRiaZ8YaPwvi3a1PI0qJhHtJgZf7jMmv8wZNFKjrPKKR9WAeBz+DHvqbf3mbd+ytUy35/Tpdc7Yr0GvarBI44XOYKiVElNqAi+h2BwKSXn2C92X9BHjhN70nqDbfLJWO5yvPcYj3PNfN7zVu21ec6PiAPjxIl288/mB8AorEZkstMy5hxBwObk5tWPr08vDR7LnCe+8sbBEh+hqOJxxfQNztLMcdN8qP91XKfKmRcBc+NXHcwBjIonosX+um3W/c03qgp9EYzQZw59fxOUmZGKbKZ16cjnOG03S6bqctRBQ3rR1EBXQS3HOMkXo85kfdkUJ3azC44/xtNBeOg3+azy0zbDOt5R4L0+Ub1T2p9c/KiMqUWr2BhE52/A4rZl3pPx+OFjjMswSZdHTiXPHUcj+bTggRQ01ANwnWMJCTpXAnNWd9ON6LUiLhXmJOn3yqv++kYFyURsZA1kVoWJm4Uw99LarThnGYS2X5NCKcHbOEu2hGtG5COwKaFeoBo+S4j/Q8DObzvxLcxmMQ8r6AP378Z1btfOX3zMOA6gNYZwXzp+Pg9KusxgzRPhjXWawubcS+FUjHh2OASLgL0QCOJdMycn5j+tq6Q8Lic96GzDlOaXPh52LqHTbc78fVYCqChHuJyWLeOaGRxShKHBT17aY+8jjhnU8zR79+bMH3LTRp5g6zM62KEBLtwSXYkNIOeN6kBYXxFh0Yf77hNoT87EuDAR3PwX08js9B+jyMAZ7LaebVi76gURXyWh/ujQetxLnEe3Y0+j1agee7dWbSvr4ZeC8sQyeE6JDDPQEOWH2+EciK43x1jNXYYCvgMYh4CvianRlG8uGo98d37/2VMl9KJNxLTBbp66TmhW8ymNND325BPNd44+fACOlkDmQnmQC1dPmsK8tTGCUV7kI0A2I5bqDleZaUJM/HczCwQ8C7aXWcAlKVNHmAtmC761o9CPThzTKe3H69nYwoEQ/H32bLtjaCRQVBlsIdZGmPCNGXtDPNLQ6Ic47JGKu5Yg0y5xg4osOfdiij/BjTWAgPz9HYVjok3EsMRCuKBUG0dhJ1p+ilCM4bFjjinPVWjgA3Uh+l5kzoQPxnDucoJSlQB5IIKlFdEAHnQMvBOu/IN85JfC4MAqbWgyoJd8Brs8LGDfvnuNTqC6ae7++jK4RE++NC9c8VZ3je7d72tabZdUKIHEgyjrQac5AFx2g6xDrGZLwGe2TO0VZo9ln+c5kyryrzZUPCveTQy90JzYSxCwV3koJyUeKcA/XiRs3fj6/NuuJ9bS33rAvUsYJ3s44TqUygWZESIQgH2m4DgwCRdwh4bDQqqkK0voAYByPu0Shr1JFcROGO5dFWbr8+vFcekmTHNQNjcNbRdtBJ9psQlYA2YTsOcLwWoh1jEcZhivZG8LO4j47dxw0Gj+H9lDJfKiTcS04WBeqSDrSdFLOJcw6wuFEn2QJZzPPPLVW+mXB3K3sLkQQMtKSdgb8TcJ5W8VylEy5p9kwf0sxxCrGGPh3PiVvakwKxk/45L1BEbc3ue2KPWwghMqeRiHaJsx9xG5FxinbWUooD/+f/8HzOlY9+JoJG7nS4ZvaqKBQS7iWnkXCFIZVUkDNa0qr4G42wbW3OcY+SpEAdC9O1ygZoB85xzxx0iG7HGQc70UmRzlSIRnCgZWVYkT9xRpQYR1zmVE3sZ5ARlhccz1jsrQywXbs1rS0t9TbNxkYQom+oifaUWZZ4HVd4wXiEzLekjnu8tva5MbYmbQk8R1XmS4OEe8lpVBBmYMu7/W3pU8vDRxpD0d/KGOjE0Ikz5PB+cBbg/RpFZGqvCz87SmEL4rCTbCTchWgHd7676B40fsRB1JeFqy8Dxv749CmBqC9c/+zBsaVMIpNF/rKYIpcHzMpTMUIhItAWbLUUHIU9xxzOQYdYh2hPAqd4tRLugFH3Z6qbVVY2JNxLDuerwfiIq86OiDUEfJJUxVbGQJol3KLQcKP4j9LIeKrN5+sgTb8RuazjTmoF6hoI91adqRCi9yTJnulzWvXB9WXh4IAdn3bO1xRNHLtrjWeVQdYN2I5FjbgLITKG4w7mtCeFYxbsz1a2Jh7n//hcUWgk3PuAmnHkGCDusi8Y7K9oEnmnMZB18TeXOKcC2LZ/1N/f/Mvb/MrEMKiwwdGArZXgpwGD79DoMxqRq3Bnx6mOUIhyQ6NG2TOxoG/mVCamy9NRjMf5vyLNJecULFCmVHkhRElJsxQcxxwWjUs7Na42ZoWfyfuNkHAvFYUS7iM3LbElS+rb0Ejw+OiaweCxm8IHwNhaG1wyZM4jlSVujiENpxuPWVUTvW6UgfCxJHPI+T5tpcqHAjz6OXwvCG+Id1T6xQZHA7a4Y47C92wnEyA3ah1hWBgkSqOCIUKIYpF2ecc+o5XzFFw2Iyi2yXGHzuCi4jp5CzVutKDmZC9oqjyd/0X//YUoBVyLPS1Ru1J2Zl9RuIj7gqWrbfXqYFu6AI+M2PCGhTaI+zZsa/3xYMSGbjRbsnqp+U+pOHHV2TlwQtRf9spL/NvNRHDS1Dsab2mjJzWDI2L8rZh1pb99wttwnMgUwMZIDT4Pm5tBkBW15eCyrioP0FFWPMVWiL4gyfKOFafRNCr09+zz21lGNC/ciHuZSOJE6SVFnRohRM+hHZgm4s4xh3PW0+B+TlLhrjGuFJQyVX7kpmE79orFNie8X3WiRhMHTYrxWkTeM1ZccQ9owLSqKE+ynmt+gSfIsUGYI2oDAY9t6JhV/jY872v+1oy6lz99JkCusLOME+7sIOUJFaLY6BptCYQkC41iylPwWDBWZD1mdEp0nCjcuCGE6D86sfmSiP0o7ucwa6wRfK6EeykonHAfGRqfJm+2wAYWbrBBPGYDtuChQVv/+kFbXEyHc0+g9x0GCFIA3fmFAP/n7U7WewftiGQ6B/KKErTr5edycLnMcQfNCtRJuAtRDligDtdsBbNn2Ne36r9Pn3yqv7/72Xv8PcecuIywXrIxzBaDs5gO66IcWyvS1nHpNjVbJMwMEEK0gWsXTl/Unp3oivVWr28l7EWhOOSAR3i7C4za2hWDNuyOPbMHbHBlNHo+YkNLhsyWMl0+ZGTIBrcN2MDTgzb0kDdIvH3QBi9oHndft64a8xKHZtxqj016wpbuvMQeO+wJu/eIdfa7e06zP31mwP//Y4dtsaGZt9mRL063j23/kP8YuG7W5+1Xhz5j/8V77JXe/1pxj/e+eO+3PrvIzve2JPzLlIftf08fHnc8WdLOMZE5f/Ylfz/6v/7C32fJdPuRnWYftudttq23b4SPBpxp/9EOtzH/cfxfCFFccB3jen7U/sq7av8wfLQaDM24zRtbttjSHZfYa37T2ADEOILxhLC/r48907yx5z+H/+0dGIswJmG82OyNlUm+W1FIO153G/7Wr3nhOM8WCeoeCFF1Ztk/2En2N/aMvc4ets+FjzbmOPuKzfM2gPEG405aaH+CVuPWbO/45nvH1+5nJQH2bllt3UWL2piqkCNdFu7JQaG64aNdYe6J+RWjNnCF2WrMb1+5wEZWrDa7QtF3gPREFHfDPHF4uzGfHSnnnBuOaDSWhQMoWMf0+YU/e4u/33Di9/x9K9zPYUGiVqzxjmXl9k/7x4JjyhpES1DIDhEepNen4fGzl/kR9+P/aVWtynxmIEK3/vjg9qLIZbbukGAffVwIUTxQ3feJlcGat1hLv0L8B2/cQKQXU5ZaRd35XMAxgmMPUueH593u/6+X8BgxFiEbLDpWFhm0I9rzLu+3iNaLKQKdjMVC9C1jt3rq+T1Bdfj5Xw4fbALHG4Dnp60qD1z7E+u/N4u6I5Ps4fOCzLI0y84lBceB48Ex4P3bySAQNQo6x33E1j/knatHUbQjUr/ezjwoMi+Im47ItD+34JxrcDFdvp0U9nbSHmnIFW2uI5iQ55Jw6Jw4N0kF6oQoL7yO46a9iBpznGrnHFdq6dMFmEuOcYvjEZzXZSqmhtVWeJxFFO2gXm9HqfJC1HjeE86gnZT0dua3A9f+7KZQbjalDP972Dsm7EXbFEi4Q5xzKbghG3v7YJgmj8cRWQ8ryM9ebANHD9vgkkHbsHCJou0hcVV9XSMKMKJA0U0jgNH3JCB6nhZE6EEaB0EaGlU0LgSsBup2ZFwiTl5HIcoBr1UZHE25bEawggmIcxyncfjmAaLBBMdUq9lSAqGZZGlUIUQBSbv8L58POrET538lWVZnluMbIvfYEGVH5gBu433hRMDnwP7l//3Ne6x2O7zP9etFLAUS7nNs8cr6UnD1FHk8Pj4dfsHl0ecIN6rRyCt/2SuD1HYaKe1Ewmk8tCOS8xLuhYZLSblrQLNz7KRDFkJ0D1yrMDxgdFQse6Y2TiTov8dF3J3bFx5xvr/vtDhqp9QK5oV7fid+xyJDx/sFU4O2FEKUBI4ZSaPnY8H8dn9qViegsGq3mRVOoYWdi3R/fnd8F6TJ++Oo97/a5o2p0fvtrl9fEUq5HJyIx13SjYaJCyIgeBzCHuuwU8CnEdT1OfPJIxR0IDAynjVxTouksLL8/rwqy8d5Mnlbwl0I0UdgjEF/jM11HBelsjzHr6hTu0yp3UmXbu0F9bG4+I4QIQoL5qQjUt6teipxdmq7uOn5fF8KdtxHFgC+X23zPtO9T2FP54U4CAn3PoLL8YCoYRIFIre+hnvyVHkU8Um7hE6aiE2nbEtpgNWWhNv6C3+fG1l0iEKI3hE37UUcBIrYYYujaAI5Op2syHC8jXPKFwmO80myGJDBpykAou9JG6xJ+rws4WdmZavi/SDY4YBwMw2QBYD/1bbIfUbsFXVviIR7H3FGGNUAjQZ3inQMlp2mBybxqvM5eYt2RlLamYOfK1wDGtDg76RQiRCiN/A6rlCBOmZWddp/1+qQdDjmdEr08zkPv+gRYoxrPMZWTvkygYJ72IToW9KmyfcKiGbQqXB3nRR8zzRweinarZGTnHPnKzoXXsK9j0gSPWDK4rgidikNAUb2kxg7jBKkieq3A5YeAmlTMbkEXC5V5YkidUKUn6wMmwqCMSZtplaeuHVdKISLLN7pZKeDusjUKvW3qIPjOtkxdU+IviRttL3qINjF5e8aRd1RMwr2NObQo6BdxdLqJdz7lEZCuR75CCIp7RgCjOwXwQAjNAxhfBXpuHyiBerSVhgVQvQeRhBYTKcCUHxluZRnLwvUxdV1ocM77TSrbsIxrehp8mlwx+k0NXOEKBUcK5RhmRwW5XvmvvixlkEwfzz2/v/oe4OtIuOyhHsf4RYGcg0TFzze6eBPQyfJfMXaWvEZGn6NYLXdm3cmnxszoRtz3CnQK9KpCNG3VOxaXuosn9Ypbg2WIlLkiDvH0TJE3OsZDM3tA34nUOS2F6IjyhKoyWps4+s7cVTgWPwidV7bYd13NyWe0XVE5U/zBDxFPh6PPtcFx9Un47aEe5/RrDAQcaPx3fLgN3IkZAlTMQtbIZidBvdF78iFEOOp6LSXLOZVFyFTK65QapqpX72AxdvKINpdmrUn0uTxW/B3KFyWnBBZ4UaHiwyFdlHE7fwvB1X1Id6REs/14HEboIgd0urxHFSjh4Dnc6Pp83gdHsN79AES7hWE89zbBZF9GHIYmFsZOxyQ857jDsYvd5fMEOAc99yWgwPRAnUS7kKUk+i0lz5nxawrw1udkyZTKy/42XktTZoHjEyXJU0+SXZd1C5oNR9eiNJTdHvvcE/YAmQIQPRi66WIR3tBjHO+O2xniG8cE/7nFvvDfV/Ah//Dc5A6v8l7Lb4HXgfweC+/U0ZIuFcQ12hpV1AXdV4goxJp0uW7ggrUCZE7A1ve7W/tADHR0uFH46sPBv8ksD2ymOrUjmO1G1DMF+mYXHhc3XB+dwtmEVxQsiwCIVLDsYJjR1FxxzbOGW8nQp311ABE3rm+O2F6fBQEybAEHf+P4nb4Hi4S7qKMuGmC7aawM72wVaEhRuS7kSoP6h78ZA6F2jrueUbcATsdLCVVlo5ciJLBLKB2qlRf8dRyf2OfFQsMA4BruA8MgKRk1X/3ehpT3G9LEdnrY2tEt8fQTuFxbmsQRa+L9vP98RrPx3z4ptedEN0Efbubat0utTT5cNwoCxDLoCjjHGxlps4jAs8ofBx4LqPvsLtxH3tX+JccCfeKMjzvdn/rlGbGDiMF3UzxgxHAqA4NhFZ0RbxTpFfI2Beim7iF1DbuaT962khw1KABUIFrOat13AnFWS8rywP3+2Ap0UA8jvU+UwsRLqR1hgWWXJFbFti2jYrTMfWfNWmYzVHkqv6iYmCeNCK1na4TzjFiWglEo2ujulPBijLO4fgQSadToRVwlsz/ShCtRxS+j2xwCfeKElSgbz/9kYWGWOwnjnqkoPM0yzQwXT6pcJ/AtdzzrCxPUDwDsBMRQnQMnIRulepOuHnnbeGtBlRo2gvnHmc1J5x9c5HS0i+bcal9IpzLf/ez36mNW3mz9KllvrPpoLaAYbndMzi98ysqcvsBjst06JdhHX1RURqtI56UsorETsY2fuci2LhupkPRiu91gIS7aIsiFBpqRNqCN4y47/3hT/19LqATc1N1JNyF6IiV26+3T27/dLhd7z9GMZBWGLqioWW/UaECdXFV2DsB0W3Qi3GjmSMZYwacCogS3/zLFo6bjNi498e+MEeF9Rq1qNATfsQvKnLLAJ08cdeRm0FAwc6Iu4S7KBwQeZ2IWM73LkOadqNpYP3ioHaL75UcCXfRFjR+mg22vYoWwMgM0uU9IyxB6iOFe1oQLcGWOL2SkTog4S5ER6zZfY8vBLDhWsd1j+hpO7hCH+/VVETUxFX5PfdVgqnYdDpHoVMB51M3MgKYfTAua41GsneO3f2yF/ybGMuyWI6vCFC4uzYBV7kpUhaGqDhu387lx9qhbGNEP9ulfTRuS7iLtqlHt3o7XzEOGvBJjIHJZ5/s7/c8uMnfJwWOCWxIr0xEHxXHEKLXUMxAAGHZsuF5X2sa7UtDovm2fS7cm0Wo2wXOFWx472bTrPKg1ffBcTFlHlkc3WJc9gHPqdPut42HTfdvlk20ox1B3Bx3OvPjMgiKWhxQVBxck+1GnXk9l9H24zGnzSzjd1ZwKjck3EXHwMjBfL0g8lU3xiiae5HmRwMehkIr8V5byz3lHPcbj1nl71tG6IjbkXG+jRCiIxApjS4rFScamhG9fpsWT0NKIY2agqQRLvzZW/wtUT+UkFYR6nappUZ36FzJA0SCsaEdGR3uGm79E+8ce2jaAv/uBdu+7u/LDqcEwNHmOiOyqp8gRGa44jML4V4WEese56z2stcKC78bf5MSI+Eu2gYDMFPSMV8PAj5YR/liP32cRmQvIgbw+jMdr1UF4yyqyieK0JWl8xaiBMTNv8btesQvuTBktI/py3T2YSoM+rOD3ovXcsHm/2UpNvmdsy4uyvEgrXOF0EmRR1Qc3/WyGUHKfN5z3fn90c7+ucxzKXQKsf3P2O2NX9G1iAtO3DX4f8JzM+rIx3NxTuC57vOF6DnueuBpKXvkmbVc+kDo9hsS7qJtYOQOHbPKX1YOqao0emGQdKvATzNogN397D3+vhlTmC6fokBdW0YGO3GJeCFyoZ3lpegEoKiAkId4R8YO+rOD3osZM7t6L9zdGhtJpgYlJS8RlVUxsrROCn7eUS0yCHAOBA7psVxT5t2MA//284+H95zo9GHz/b2/pnQW60p3Cba1e90wTZ52gguzOtJcs0LkDpxo2NqJukcccaXCXSc9rXAvqsPCLb5XciTcRccgSoFUVcwPxDxTiHkSN0h3i1rle8+ISDoPf3+bUffE6xJzIHA7RtEU/H40BIUAjFa60fZOYMQd1cWZKn2Fsy78QecfjbFuGQEQbVhTOObz8nKS1tsk2+KinRYj4xQlkOY9+H2SnDNwRAOMG1k6Q5rCasfTFtU+8/QjB+rrFqNIVkmMTjrA6IBw0+TjYFaH+nlRCNzrjCnjT8Ss6Q5xXrJsmJZAcOM7Q+hSfPeB2PXpk+8j4S4yBUYRBu0NJ37P31jspxfAGKChsHFPc+Nr8lkn2d9d+qx9ecra8JF8WPiyJ23hlJfJQElBMP3i3b4RLQRgtJLRWxcuB5nYmebB6xH917b9o/5tl4Ou125HE2AcQrg9HKYvhjDq7GYK9Dvd6DtxHqB2gp89lnTVkJS4xfn88YkROu/cYnTaP5fh5GXUryQioe74CL4HnUs8T6PwPNa4KAoF+nnXSRuNuqNPhlM17rpkUbcy1TOCk/DMx+vfWcK9kEi4i76GRataVX6f8obX+sL9a7+1IbGh5hoZaaMyXYvilBx3jeNWzhdRHXjt5VE/w43mM3vooOuVBh0KiqVNoWyHBsYjBRFW0cDxol2yqtZeryGQ8Rz3DIvTpXHOpP0+cPqiTSGi8y5Ut81pi7t/86hzrOH5Pd8TBzjn8Nsj86Lg4LjdIn/8Pq0y8JJMaxOiq7h9fXSuO/viZ+4L9nFQLJaBTo+Vgphp6SIXJNxFX1MzEj1jvFnEdsIxM+3kHx3m305qPFQhutVLIJZWOnNM5ewQSUibis3oJqOBiBZy2k9tuk2zaz1v7z2MQ9c5EK4rDEEEYYTjRmQ262rttdTyrKvKh2IUfbLr/EyK+5o8+2AcJ9d2z3o6Ap1DxL9fM3oD43mcyIUhzP9vL8dc9wumnu/vWSeA9+NAnRyA31b9fHNYnFF0ERapc/vhMUfEQ9RHa1DwuXS6lpFpi4K9+73LDB0TeY/ZOSPhLvqaWsTCo1XEdub2Cf4+MB7SpWUnMSDdqE07BmuVQDXvT26/3r9dTwNWm4mAWkQyJlU+LbwWGb1Hlg5Fkzv39qBrloN/2nVu08Iojxt196CY5LHWpwhkI3yi7ZIlvKbbKUbm9rU8D5LQjiOC8/vRFlkKytpUDzoxfr3e3+M35jhxUFo557pDJJTA8IzWRrhw6h+Gtw4G1xm/b5osiipzUH8ksoHXlhs1Rt/rR929/1HEspgkxWDoUBUFhtMWStB/NkPCXfQ9NI6aGV5YEm7KWSeF95LhGo1JBlFG9kRr0FaMSiFdGUZdkDWhNhQQPqEIixGV9VTs9KIwDgqQg0QmixblGY2AgcFIDoRbaDyuefK/+H0Ovn/dydC6nysL+G4QsK2+S1a/cSNcQZmlUOJ7HeR48kTAuPntLpzrDkpgeLptBw76PhEw3QOoj2+M6/xXBf4uUytSFwp0Omz9Qm6eeHdFPeA1SmFfRtjfJF09pWzfuQT9aBwS7qLvGTr6s/4+TcT25p3pUyNbGRzu//M2OMsOU1SZXlmPJioaI5KRVGjxujwowhnCqPtB5968wYOjMFnDYnQ0DkPjkWti8zoBtehtBpkpNWEZfvesaXY9o8YIilEixTru/2kdpoTPTZtBwGNN81lJ4bGMHnq4bfO2gQP/6t9HvxfnlCobdCo1S5MnWTvc+hHX+d/sfGQ6fV6FFfuaRuKT65qjr+cGMA5ERT2yYkCZRXs/UnNEhE4XjK/rjw9ulwgJd9H3wAAKCuU0j9i6BkMS45fPT2pg5WH49QOIIriRBMC2ZbST85ZVvEiAhlFJD1yPNUGUwTXXNB0/YrDRYM4sakgjEsYh8AyPu6fMsY2TjvTvuvOgKXyyoJUzo1PYZ7rtBJHhiw1nPnmciIv2u2VfbaIW0Z8w2RfwIJpmXoNCoCSRIlyfqBWxYtZV4SONwe+JtsA1qxVE4nGvlyR9W9a1GSoNUue5jC+ryPP+7PA+r0uKegrFspK2v+HzJpXAYfGMJ95xvCXpS10k3EUlOH3yqf6+WcQWBepImrTsWlGoJgMphSmNzTRzM/sdRNawDWy5OHzkYOFQLzKodhOt4TzmJOmkzZwA4Ixmxe4YhYkYAO5qCG3jGoc0oLz93Uee5d+MLrWJvgVb0HcVW/iwHwRRwY7/MW06ST/JKTXNYL/hfm5SOl133gfnhlMNnt+rkVOoocOkZHM0eU4mhY6odjLeGoHfvl/GDfd7xDm1iHv+dHTeivHQURu9/rjmOR7PK/uqF9SEe5hBUHZcRwR/QzpfSoSEu6gETY3vCKwu3yotm4NoklTKVuKgytQiTo7gYFsycgrjj1GoNIZIXDRflJ+a8GlDiKWlaWV5GGxMlx/7yrgIeMdwbjuNRQ+c+xsP7PJvX/j43/h7lyyK9YHa9ZdxRXlCRxz6RVews5r/hUcE7RgbcQ+P7cIjgvTrZv0uoQMnq/ZJDdIxkZURTn1wswY4Jlwz/WR/j/6wYTq/a3j2IWwLNyW8EzCmYNrF0qc/Ej5SXqLjXiOnFq6HrNqvkvDaiosao693o+isug54bQLOCS/TGu6N6Nc+h7+R+xuWBAl3UQmSLOvE/73pO1P8fVKBWEvLbfLefK+GkZQK4xqpqIhNoR2dF7lt/6i/TxPNZDQ/iXEv+ockGTaklRMA87zxP5xDscYylwrafmvNYG5kVCeGSw1FDEXOWb3s2cdjDama8OmwsrwrLPPAfV/cxhJ8vmBP4fjIJBKegI7nXieMwGGOO2jaBjSiX+hP4e6eF1n02Xc/G4wV/dD/8zvUHN0NzsdoerzGvoxxHKnjorVxS6e5Yr6s9JNwd79LiaczSLiLSgDjO5jn3npZn1eNHervmxlqTM+EoUFjo5mxzsGTUeO2jcA+xP09cLuRocE2x3PSGuvbtJRc38Dzo9PCaXgfCmFXMMRRmw4Tdx45xkDHgh0gKvtoaBDSKeCBc56OgcsOPW688RHCfiXt9RElk+/RAhTWwwbBjiX4XPDbwqGH38jtD/i9/P83+00i8D0aRrLzhAUGQWj8uuMHHRCkaVZWPxnRDaAwzaJquluczT2PygivfWYPNoKObzqAyv69CweEHq5DV8ADCkAs31liUdiQJH0On8N+qohE+9AiH2sDJNxFZUgahcN67if/aJI/4DUygGkswqBvFc1nhDjTNNo+wjUs0K5sx2iBJiwLB0Mfz0cUvRVuZJ6Gsig/NfHWJI2bAg3PhfG+cvv1tvSp5f7GAnJIoWV0qtUUlqaRbAz8s99TKyyWKaHhB2OcIsTvRyJF8QiN9iRithkUCZ06R5qBeeycyx5HszoFzX77rKFzFv1O1KGB38QVhwdB0U5jH8aiZ9Tz94Hz4ajnNvm3AX7bVk4kkYzoGFH25dPY713gTBFxx07AMQ/ODzrDGtkwogGtBB0eP/Nxs5PCqUykhAIwFUmEexlwf6cSzm8HEu6iMrSa585BEBH3kx8O5rmnScuODqKEn+emyTd6btVwBXWQEbG9Jj6i0wpwH4Yt9mi/VuKdS2YBtXf/0UxUUvxAgEKcr9l9j3+bghT40c7wnIoWemtEQyPYE9IPhZXeQUcZNRTlTkQH5zqP3V8Czi2K55C1c7CbAjkKf1/32uVt/K8uqLe3zBCovS6M0qelUcYFzi1scAgdBKY7MPKGNfgTGPbRPu8g+B79UiwqhrqTrPU0l0ZgDOE4wr6g7GMAjx9OSZ4nUWcEHZFZ9wMiAbg24aBDn9xK/JcJjkNJ1nJ/oWTL4JVwfjuQcBeVgUaoa7w34s3/0HyeuzuI0ogEccYBPw8GSZ4RrDKyMSxGFwjyICOCxKW1op0xHxbAMGsWTUjyO4vykdQAxzmFjSnZNx6zyt82nPg9f0OKNrI4koj2aDrzQXgG2+iMPwzvdAhSLYGTZklDnGJ1XFE8J12e3yWrDJOepJaH1MRyk9+b/2uVYUBHCvvprKj1+1FHDX4XTnc47b7AkHXmwNLR4P+ev/6pfxu0yvzw4Xnh/O5iPHTqok5KmiKGRQUZQqCZIMd4yPMKz+u4NkNVofhsh0bF6spMv3wP4n4fZ4wtExLuojK4ornZckmTzz7ZZm4P57l7A2GSpZVoZMal47lGGqAxXGZDIisovNF+7ty9ZgYK2tGPOno0irpHMyU0x71/aDSVwgURKYhYbEzJhihKJIxiSDKfevTlJ4W3OoSCLE64h8fh0yBdvl/6l7gMKX6naLV7ZFQ0g9HXdqm36fj+/ZBwj+Ma9xlcyg+/IX9HZknsWhfsiScUVjzzU1sxaWFtjKgyWRQdZDuij0izokzR4fUfl5XA84/OO7aB7Iw2aUewukKwpKLwINgOkeyu0uJW+i+pU0LCXVSKRqmINMgw2E0M13OvLwt38IBfE+PhQNoouqv57c1hu6Hd06Tloj2D1Pr4lHkaaWz3rCKQvQAGGTYZYL3DPz+9DedRI0denMBMDZeAm75onFHB9xsXAadhGDGoms0NTwKvyZZp2z0gGjmnSMFvkqcwYz8f/V3dFP2acMd67XC+4PdDtJ2Ev+fosw/6e9eRfMGeUbvgsPnhvRb0myGdA+McXH1AzXHnXv8R4q5b9hf94LQoBSUVgk2p9Td9Mj2HGW3OVLSyIeEuKkXdU914IJtydrCe7h/feoS/jxv0GqWfRefl8bXuYNqpYV1EIJ6xjYs6JYCGL36XcYZsC0cHDBga7RS2BMWieL+I4iMtbNulT8fMo60g9QyW7hrnrcRAJo4VirG4NYSjwKCCeMdrnLRptku7xxPrJOgB7CebpfpC0GCDQ6VpkbiQdjMuKJjczB23EBjwszHwWzADAvPaY+CybzVHZUyGRVMYMepT4Z5Fijdfi98myXlUNqJZCXReY2qAe93WzjHRHVzhXtL507Gwb2o1PYd9UpEdGBDsWK0lWlywREi4i0rRKA2PKbAwzpEqD1BdHjRLj6VBh7mzIPq+9IK3azCWBYrnm3/Z2ngmrrBgO2L+OgR5kvaCQKF4x+fy/VigB0YM36fVHNgiw2iLCKAB3m2jlOdSqzXS57z4vL93o7GJiZnfDqIZPjVq6fKDwd6jUXS4bMQ5IOIcoZe9MmgD9LXR/jdKs4hlM/g6N3OHn4XrE8eD/939r+/yH/OrFUeFOOsSdMrhxwf7TubiVohOHVlFoO6sHH/+si+ko/rCqePrbPTDd+86nYrPLK5xkR/zvLESW4mRcBeVJImQQ3V5GmSt5rnHRQlg2DUacPsNzjl3DdtWuIYvQaQ9jVDFc7Hhc1du//Q4wz1qxJSVWkQvRduK7Gk295aG8wUvTfL3bUOjMbJMTc1ZEe1HaCTGRF9rfRFSt3/kPQ/7BDR0EvQAnvvN+t9xDryYqHuW05XcccN1yvK97z70N4HB3yDaDkYnTPb3FFWphQKfF/Ob9wM4xxE1hthsV3DydYw+JzmPigyvZdoZ3AM38yPq8O4XJ16pwLWPiG5JlxqLZdoie+iw6fbQr4bDBxrQqdNDJELCXVQKd8BrBOa4M13+5IcDQzwaZaOIOsgD7gyQvI3Ir0s/esHddkgaacxqLi2cBvh8vN8V4bJMeAxGDI+rX0SvDLB6G/Qqlbup02/6Ipuzf69/M3WWB5YPA2kMPhhIEO+YfximMbIYV+06RDE0bIjmJxB7DZ0EBaDRb496F+wDouIsC0dE3LjhOmVr2RiecXvz3LAwXRzR9NmaoesUTGpFnwt3wGyafppOliX1cW2stuxpnGOK10nU2QgHV5KpJZWkU/GJ15U8onsQhx9vV8w83a7Y/2Mb2PLu8EHRKyTcRaXAgIcNQs418KIG4eSzggrRLFB397PB4EholNOgw3tGvfr1iExgSFeFpIIlLnLZDmh7LhEH8DugijhxjZwy4h531Q1ZnjO1aGUXaeb0G3etMwr+TKR6eCucdPcojRyFPg2qy9egIYp9o+c4NP2sLpN4eoJ3PjRaaSILR0S9Dwneq5ZhETpl3fe++bl1jUWRd26MhnPc/cr4nYoEcRBx52/S86iocAxwvxPtDfY9ccI97pwPprTd5m9lzUAQXcbpn3Au6rzpLRLuonIkibxMecNr/f30f/mVv4cxkFT4RY27aES5DOlrEEhphHU734Wviab3tQPaGIYLDBVXtAO2d1lFby3lWfQ0SoRzC449XN/RayP2WmlVyMcFaewUcUizjBB1FI4jki4/rhgXqtTzfUGCY2r6WT2E/UWcGAHoR9AP4Pdh3wvqTpXO+hl+Lo6D719bls5r5w3b/q9dtu+AfxeiaGDLxbVjruEZwBTu/vvxt0lSjJAwOu/+rn1GJ1lpPH87ybAoErQnmkGnVRS3L1j61HL/nHQdW2V1ZIh8aGT33fxSUE+D9VuiztEa7JPkiMwVCXdROZJ43yeES8Jhnjsj5q7wc9MkCd/XNexAr1J6OwEp59jc79GMtOLSNcgaGeJpwTzX4Xlf69hALzLtGLL9AsQQRBjOl+F5t4ePdpdGBfH4u4xz0iUVVhDTjIRj+bC0Rg+fj89bf7zNeewq/65/TCx2h3mXfkq99xwuOdeAuL6tV7h1Bdj/NhJkOF5GHd0imVl9H9cBSGcAj49rs0NAoQ/CZ0FwLX36I+OdTVkZtHyfNM6hEpG1c7tZfYqiQ0dENADg2hVx0XbgOkBwzuKcxLkZfS/hUGHxGWf3weHDPuyyZx+v9W1lvJb6BQl3UTlowLkdT3QeJOa5Y9v31A476UcT/cdaRfvijIPo/PaywDZKKtzZfiBJhIBt1I32oYFTVtHrnk9l/Q6dgjbg9cdCZL3g9Mmn+vvoso8E51rtfIPQdIUVDELch3BmwThPaNvD5wX/R6Sd0fMILcXnfO89Kcw9sX5UGBnhmuH+vHlG8pGSj2PAhuPhhtfSaC0I/M0hXnjuN3OEQsDA0Yo+CK9l/9VI2LQDi4Hht6g5Cfk7e78BHh86+rN+5g+OOYi+v7t2/NtmBEUzfVEVCv5Gv3tD+lxUjLuGUhJ3njB7hCK4TDTq82mrYAxt2C94RP+XdNUWUT14rrjnHJ2UEO0X7hm1y152rH+/lT0s8kPCXVSOZoOcy4S5r/L3/z6sTk4jgsI0+j6ucUCDMW5+eydGSR4s/Nlb/M0V6YeE+6TH6D6vkaHhUk9fPbh9sibr6E0vKco5022uCVPzWHSwV7DwW5wzJbZfQcT70fearfOuKIp03EeEHaKNQhnCrZOCRrMvDaL1iKx7Ip0F8vw1wzkHnuIQhexwDNhwPNy849s4ssB/StI+Mm/YT/hC3BPASbhsRpA2fPez9/j7rGC/zX5ynAOJv2MoqNF+46PvY7b06SByxWt4ztOr/X1HFMzRkhU8/1yHcNWJOqzQRnBItVo9heMfQKQd/WetfUvoyBD549oZzM5gmjzHQPTN7jgouoeEu6gcSb3vU8ICddP+5Ze+wITx1ayjwmAYGGlOKmUTkVE0o8QV7jw2fOckx5lWFPeiwy+r6HXbtoqGLFL18L1xLUXrF3SbcfPHQ3gu06FQcxRBNDOyDSDqsDH6jSg5xPaiA8G+Afz9ExXkw3v7afFhFB+f5zoEQmFf2yDmuXnP5VJlRYnIQRxjC/rVsB0cIRJHIE6C/ppzMZv1w0mJE0A+/H3pIHHAcSP6Duh8qF3PzHIAoeBPDF/Xr8I95jpLCvtI9/dyx+ay9aGNjheiPUn03G1DOpvQFoBBCNE/wDmIrR0bi31T3Dk35xVnBvtf/7SWwcTsI592+zKRGgl3UTkwaMF7jUGLHRUHNw5oYHK4JNyeH/7UezwwApAiS8EfZ0BGjbuolxy4n1EE2AmzDcZ1xh5p0wuTePHZ7lkY1K3gFIayGWwiMELoBBsX4ewxNfGVBIjiMx+vbxDPENOIkjMK3oT63O7k/UYtpf/YD483pCjsucFh4G4FI4go/oEnfleFj9Sv52ZEz5UsHBFuBP+yrV7brffaFcZqC/GM/v7GY1bZkLexrwVHPbepnmKf1tiF0wcw1V7UiBvLAcfmsqXL175PjL2RBPZVuCbi7BHh0AfiE85BbJirjmKEcHwnIWr3kdr5d8RZ/t5eeMIue2XgpIRzoBdBmKoj4S4qCY3gZpXGJ4ap8vuf2lETfeikOBDGDYKugVi2QRLfK64TblV5lsIqKe5nyJBoTlQgchCtAjhPmB4N4VOEcwUOPE7v4HncKLvGn8vMaHoHhiDPgUQR907wjnHby4Mso3ZFQl7gu+McwJZEhEfbKgtnKX+H01/4lZ3xm2c8I/8Js4fPTTRPHceM8wPiCenzwy8Ey4zWSHt+8Pn9GnEPf79o/9cJacepotHuOczrxnUaif6F4xDOF2Z/Znkdoc/B9YnzCe9bE/x94PQoCxLuopJs2z/q7xsVmQIoToeoOwrUcdDH/v808EwCNxrUKJrcSRpgHriRaLQHBQkH+jgx71IXFuH3apF+x+d3y5CoT40on+ilY4nnUqYDcMFh8RucJ1lETLtFzcDmsl09IG4ufhJGKdwzELpZg3OgnfMgqwKYN0441YZ2bLShnSOBcYoN4t0pTJcEtO2cmX8a3msTnFv4PBjL/Pw+g+dgq0wp9Iluv8jxp9E5fPPOZLUSikKr79OKuOumzMX6cqUPxCcd3EE9mDDbMIHt444Vrq1Uu7ZQUBWgjbyNSxCmHWNE50i4i0oSFZeNBkeId/Dhfzy71lFRxMdFpZCeRMri4XY7aXTC/H4XhMef9eDO92/k2BB1OGhiMOaAXAXxjvQ+nCeMUhaJaGV5Gi40jtmHtHJgJaV2DqRIlW+bPork+pFtb1sxK1ger1POePJzdjoi7Wgjf5pBRDCnMfZZgwC0KxKmLQr2/Srcm4hLXBOcy4uK/dhYo4XPpzglOBdA+VLl47+PEK1otQqKC+2yRhw196/qzsKHg9UzMD7zWhTdQ8JdVBIWuWrlLZwSznN/0z9M9l+TVEQUTWwkBSKeEQ4KEQiQZlEPtuGFRwSRrVaGUbc9tHUhVS6DLUqS6R39AIxwGhG9LkYXRzSanfd5Rcdamohbu1k9bPczfn6Xvy8zaK80bZYYiHYYsIx6Ay61lxT3tdynha/b1Z/Cve6oDNaMplDHCijoIziXl7QSHjgXgqKFwVKBQhxEH0TcXVuN11ASm8t9XeyY5hdUDfs+f5rQebXx+e5nv9MXbVcWJNxFJYmmjjXyarNAHea5A0TRaRDGiYoNJ37P35pF2/OYv9cJPA56TwHTS2sp2hlGKfgZ0d8gT8oarebxFm3OcZ7wO8P51c1zJCmNRHEuIrFNitbHlB6micJodYU2isSh4GAnS/m1Cw3kPsiOiINiAysDIJPNFeq41jDGIguOGRUUHtzHXY95LRWYJ82+jxCNwPnCc6aVA5fXmvsanHc1+4M1Q9DnQLxj/8z9dsb2vw/txu3jViUS+SLhLipJ2ogU5rkTpmAWHXSkaTrTOJHEx5oVqGOkg86KZinCblSkm4ZIWaPVbrS1KmKMzqKasVAw3N+B5zOPGWQ9f7RuuKdrD9cAS0rts1DxXNTBuvsgGllH5LzdCBMcAHhtzDJyicBrGf3qw3R5t5/DuYxrLFgb/3Z//IVjD87zunO5dd+OcQDvhfdOEoXsV9g3NBurRTnhdYBxiHZPK3itRW1A2kvj3gf9DqcJef3iZc8+7t+8+aUn/b3IHwl3IZqAOe5Ml8eycFnRjlGdFkQquDWCHTZEgVtYj0VN+FhaI8c1ulz4eFnm/xeJ2pzPHM+ZIlBzViQ0OnoBxQIdY8zoyIN224PnSVIHAr/LnBefD6K4fRrJTc3D4Xx0rnufFXACIFrfyXv28Tx3VkNHBhuEOpbTg1CPOrBwPyrGOb5GwXM5pavR8ldFgtdwo+8jRDPGXxuN57m7Dmi3tkT9/Is4jeGwROTd46id/2BnvPArGz30cHvosOlmk7z/iVyRcBeVhB0RO6Z6VOvgAXLyWUGl5b0ZCncXzNnDljUUF81Et+tRdacJ8LVJoodu27USMDwWvn+3iP7eZSHuvEwSWSoz/I3yFMNZUYaoXdKoGh18WO7MR8I9gO3QbmQ8Tyj6+3CeO6J/SafKUGywCFezqUUXTv1Df1+Ga7c+Pjf+Pu3CMaVsY2Ku8Fovsfisi+3g901y7rR1LcCRedwK39F7wd7gM28+4nh/L/JFwl1UlqTznqe84bX+fs+D2aWPul5NkvUcIRo9+H6N3rveyQeeWQhqbFHRBOPfLwi089Zx7XXwIBHsG6Wk07Ob1CDLilp7t/iti4ab9saiaHlmaYhkuNcWcB1RdYM4GwcLPyOtI4OrYCTpV1zD7cKXJgU3+rRaeSrGbq0b81lG27OCafo4Rs7DryC8Hjl3vdm1grEO1yuuq2ZRyCLQ7rUvBOG10Wi6I/p+nmd4bt0uTjB+hVlIiLiDjZOOtIe8TeSLhLuoLK1EJpkQLgm3f+sv/H0ZSeoUQDoiNgIRsmLWlTVDB8WBlj693I/OBYZPMBgkjQg0y2wQB8MBtSrtxfPJFcJFxJ1WUlQ4HQXOsmYCBedYLdrutfsZRw74t0sPxCycDxTe7cBINgzUIgLhjsJ4mOe+/dZKi3fA/rIVvDbKtqZ7lnDMbmX/VIoXvOsI0CFWMii2XXuh2XRHBGK4hDFe429OkIPXU8OlSNFO87887vM2Il1e5IqEuxAtwDz3iXNf5Reoy3KeO1izu17dNqnRkRQ3pbqR8d6yY/bAeu4Q85hnCIMHgwMcAUuf/kjNIUAvbbOU9JrIdzr5bsHjixu8ygIdTf2cKl87H3twjqTBnVYCGmWQpMmOGNhysZ/V4l47vM3rKg24zugAaVZccmXohMNzfacd1xjftS7YlxXMTfe3DiLlzDrgXPIigrnyvnjfEhTRq2CmRNSR1sqRXItC+uNicceE2vWf0DEuqg0zON3zJW66I86rpeFKDSAo+nhwweVafZVm43FYrO7GHRv9u2W2scqChLuoLDSGa/PimnROEO9ZkiodKSPijPdEHXMInoNKvqjqi44enT9T35MYFjRCGomcPOH3w/ct0sCycvv1DYsHxnnPRTGI/iat7rcC5yR+b1wjbnaMW4OiHcatsxsDjDdcwzjeWqaNm35dddgGRY24E4h3HmMFhXvUkdbq+sP/axkp4fhfRNKMz0I0g/YExho4iNnvowBk3NLG25rUNToIFKsLl8Ts58BCUZBwF5WllhKUoKPJq0BdnnPs2FHX5ro2MN7TAocHOnp4aNHxY2PEo9amoUh3ocjvRRo0PjPIFhjz08OKAH4fZFz42QuegIq2WdR77mYz9Os89zSOoF6T1XmM39N13rj9Ec+JdiLuwK+NMPl1/rkWdVjhvGN7wyFXA0YYKLNwd1Pk210ubewrwb7oop2woFYFHS4ch9KATDJQpjXds6QePOjPsaSK8Ld0M9Z8+ywcqxAoYGo8HoMNFw2kuNdRfWpj6/HnqJl/Gt4SeSPhLipPrXNqIhaQKg+yKlAX91lZeyop/CCqGxnvaTrmKOjg0fHHdf5x8LN7EXEHdGBArBShKJGbuoZjQu0A16kQNwhzAHZf24+kNcJ7SZyArzmwWvxOiHwwPZ7fOUunDN5z2/5R/7a7/BWuRToLEHFpeE2WNXrLddc7gVMFipwm78LieS9UM1PCHVOT9B8454Nxsbhruvd6zKwcdHqVdI57I2hbcmombCG3lpELrx3Yi3xdkowvvA5jYXA9FTeLpR+QcBeVpeZxTiCYd676O3+fZ4G6vKKoiLqdPvlU/3Z07do0HXMSmrUphWgSoyoP8LmMLDZKT+8mbA8MdsHUg+3+nLPoPGcXRkj7FRqqvTpH0sDfwnWspAG/sXtNoAhkFM5BbFaDohU4rwAi7FwVglEXnHexoqCIFdSTAmcDHQ5IIQedRNzL3BYVwj2Po6nzjbhgarCme6MsLFwz7tSVbtNoHMiCmnMxx88Q3aVREModZxqlxmcJxxyRDxLuorJQHLBTa2aAH3PH1Tb57JMzK1DXDWFSj6ZjPl931q7l94o6IeqCLJlBlRcw7nCMGFh6aZC54LzDQArhFhzbmF/476ZfBsZkbHZGnw+MSQ3vXoKpF9jGpZknBL8xisIB/OZ4j7jig67B1S6IrNTnut/jZ3YA32HUyIBjxKmMEXdG2ynaAatFJ4WiHe1QluhbxWsTtLPSAyLuIM7RDMccHLx0nnUbd3zq5PoXKSh5xL0WiImcL3DQYkuSHcmxF9liHH+SwvdO+zqRDgl3IRKA4nRTwnnuu+/4vr/Pim4MyhDMcWmB7GDbjRomhZH+uLTiboK2xgAGemWQkah33K/ef7QnsvzoOwbNgwdhFlTqFTh3EJ3KywHE87EMhirEdiPRXss8iXGw4Du6xYGaGVNZXC/M6HDPK3xuo1RJH86XLhtutB3FkhgtTytmy5YmL8ZFzZP2HxgXcX3guohG3dkXYd+Jkxd9ZTv9JTN6OF4J0S5w0HYSZU9qHzZbek5kh4S7qCxp08OnvvPN/j6LAnXjxNgRQbpenNc/S6JpgTRMshRJcVFDQMOHEY5eApFEJ0ZP0yBjvOMwJDHAIp2NjPs/veHhb9dtxrzPhcMjOuUiC/o9iwDAoIFoBxAMEO2E2Sjub8tzJAsB7xpuLbMEyhq9jUbb2/0eFP9lKUwHat81ZXZBn9DuNCJeF9Eida746MTJi2kp2NKKGY5NLKKXNRxX8rY7RLmonRdtjMdutF7kh4S7EAlB1D3LdHnSTopfK+KitW5aIMRBfampoLPNE/c4eg2O5bIZvY+6x/1GBM4FpM5DYLVKbesmzBKIToXIAg72WYjUXhPnYIHh7lb0jYt481zIo33BhhO/528tzymKwDIVOotG24Er3NOIdz63bPPb+X3ZDhWCGTBYrjQNNbHhXXNuUS3XEYD/NZoHn5Q0y87RMYoMq7yz4YQDr3teRyWjmU3RLmnei8/Fcbhjn8gWCXdRWaLzrZMIWK7n3mnUnQY8yGM+L0WQ+53ctEB48/PsWBu9d1FEGY6DbdGrQnX8jRr9/oi0NEqNT7XGakngOdOPhiquN17z+E0bVvSliAh/3561iSt4y0Lc3HaQNl1+LBRoZYq2k5IKjizAdYUtOq63AmKDgoNVtwGdZ8xOwXKq7UbNQZrX0qGc53jJ75yXk1B0n1Y2RVJcsZ42sMNzloEhkT0S7qLSuB1UEqa+403+PquIO4wCHkOWQrqRwV9PC6wbFFmKgkZGUxFFGdsCUZYs2z4pNJjSnINpz9esYVql0iuTs/Bnb6k5hzBflUKgFXlET/qWuGh7lKTCfXtYmK7M89vL5HApAOz/GXF3RTacAYGTN32f5wr3pH3mwJaLa2NDI8etEHniivW0NhuzudJkmIh0SLiLSjM+It26g+J67ns7XM+dKascmPnZeXu/62mB29ueE9gKdvQ0hvg5RRMgGGBokPW6UF1S2IbtGJFFh8ZynlGmblG7np3MCL9AnDPPPI76tYM1dIPXpo14ZEIt4l6S+dKNou2AAjypmKUDoIzLwKX9rsIHzjSOBeiHOHaxLgyvy7RihGNfXGHYRrBvV1G6LsO+rsRZK+0EA/IiTYaJSIeEuxApQKo8xXuW89y7BTp0OgsYDchaGLBAHVOlaAQVaa424drZiLR0c6Bhm6RN6+w1/egwyBsaUUmKTPFaxPnBc6RnWSplSZdvFW2ffl6wZ6X4Zrhp8hVOO68aGBM5PmF+uSu4Aa/dNGOEO0/99Mmn+rdbFfWsjcneNd/KydcpNSe+sqcKB86zXgrfTsYcBkF0XuWHhLuoNO10UJPPDpaFy6K6PKkZ7BnNXa55XmNEeVRA5O2dbXYsvYaODAjSTosPpYGDctqVDUhW50laonOvs6RuLPdPxB1zZtsR4IjU551905KyCPdm0XaQ5nvsCh0AZU2T53dNu269qDm0XdHE7J92RK77HhdO/UP/disxxik1SafTiAxh/1AAhx1XIkhTf6ceDMjWnktrt/VDxlzRkXAXlaYdMTnx6KBAXZGhgRHXiUMYdXNZtmbHUgQue2UQ2YBwbGVYZU3aiHunRWeyJA/x3q9QFLSCK0wEqfLBddMzQ6gMwn3sK63ntqehzGnyoCzOlgKC8Ykp7VFnG8eupH0enMCMnmO8dQvDNhpjKNLwvH5wXpaONoQ7fmcs7+nWMsgCnm9pnLdZrhLkvkdau42FV93rSGSLhLuoNG6nlLSDYqo8loUrK5y7B7I2ErbtH/X37LSLOsedwKhihKNbUXe2zVFtRtyLQJZVY2H8FGl+XtaUMgox6bhgX2QR+Oh7g32jaDs43PseMMbxPSjM44AToA3jvVAkEe7rjw+2Zm1RUZjSDqJOVTq7kzh3mS4Mhx37M46DcfPk8Z4Uf92KtvO4JK7aB87VPNqP9Q3SZHgUCV4rqiyfDxLuotIURSTQs9+tOcR5Rtz5HWiokCJFi6OgPXAuBFH3/KuhtpuFUDe2ejMg5pW+TeOnKNdjp0TP9aTOsXpK7ljhHV6FgEu2ZSm0Z+U7t7inQKxD1DdyYrRybvQ5TGkHUWcbhXySAnW8ZuOin3HCnw5jCLZO5heLDnj+8WBPh2UCOB5mLd75fmnel8/N4vxxxxyNP8Wj68J9dM2gLVmyxJasWGtBXM5hbK0N4n+R/9dec9NI+IiH/9whcx4RoiOSCssyRNwp7Bp1ujBC8D9uWbJi1lX+ngZKGSKpaA96uXu1rnvZyNJYGZ73tfBW/wEB0Mm53zOHF9PFOe+7iFBktkpt5/85Hz4O/q+safKgVcT94bBQXyPwf2yIyDeL2vcpbpQ96txOk4J8SLjn1BfASHrUOYxIOx5DH5F3Qboo9YBBdn15aWFdiBROQDrg3dVDssCNtHcjkBDFHa/aGX+YuaIl4fKh68J9zgWDtnrpgvCey4gNrdhgC1euttWrV9vSo4dt9RpI9xEb3rDQBvGYDdta//rwnnuj2ZLVSy3unYRISs+M4gg0CrIaQFlErNn3g1jKQzAhDR8dP74LIwllSBVGVBTHCadH1nPWotCp0U67cFDNK/rdiOi5maWxl+X8vKKRJgLC3xbnYD9PHeg6TKVvJkb5P0bxy0oj8R4V7XFV9um0wGvx/F6KdzoQupwBgOsNW7QuxRmhCE+SKs9r1820wfvxPTfuqb+HCtKVn15lwLlwPO7HMVSMpzip8iPrbWT2QlsQ2igL3j5g9q3h2Ij6yE3DduwVi21OeF8IUSxosKx59h5/X4b0P9dYu/mX3aswL/oPV2yndc4URqgnmS/da3hsraJk+D9EKZ4fJwQxvx30Q5p83O/mFvGb/+VgHwfThPEeeP3DYZv1AnwuticSFh2k0GfdgzZp5NDmCiCt5h3T6evWkSFc0eXuZ4PnLH1qub9HH5F1rZksgOO9W3Vfeg7P81Z9iQPFcp6rvLhOnm7hBnzaGY/SOLlEegoj3Ee3eSf+0XPqYnz2HAtOlwU2sHCDn0I/ZAO24KFBW//6QVtcENtGlBu3U0raQU04Jqgqv3/rL/x9FvCz2025wgCCTpIDSa+jdTRQasdREi8whDtSJOFBz9Ng4e/UjkOjlp2Ro7EQR7TQTJaFczppj6ITjdy1wr1WCpGp8nyfLC1GUR4nBBl9LnOafCMgSChmT7vP+45h5D1OkDNdGG3lOzq8+9FIfRK2eG286T11MY37aYk7vlbgNXTCZAynl6GvYn8VB2tTxBUehSAK3iMYX/jcXkXb6YxoVEQMRfawVUKAtSHc88LNpktqE7ZbNycOFIvthKROLtEehxzwCG9nxKitXTFow+65NnvABlc6EfKRIVty17HjHsM89sGnB2z15Ux+H7GhJevtTDcd3nvd4LYBG3h60IYe8k6Ot3uvuaB53H3duph0MCEc/vf0YX//p88M+PtWHLrj1/bqD3/DXpz5Cvv55/5j+Ghn/MuUh/3j+N09pyU+Dhe+/jUvHGdLd15qHz3qk/7jn9n2CX/fbX516DN23azPh/eCtsV3KwObD3vCbpx5qx354nT72PYPhY9mB9vmyBenee//n8NHkzM041Z7bNIT3u98ifd7d8/I4DmGdsF34LmWBZ2e/0UE5xE44TfJix0B/r6g1+1xpv1HO9zGbL19w54PXelFYbr9yE6zD/vHheNrBb4Hvk/0+Xgc71PU75mW+fY33jf4B3vU/sr7Rn/ofze01TP2OnvYPtewHQCfi+fh/3gv3Mf74P2agfed5X3uPDtYOOO9+J5JwPuc5H02iDvOOHiuAnwWvm/W1PreHV7f+5v4vhd9O/rHRmPePUess3u9jbz12UV2vrf1gqEZt3nfZ0vs93nssC02NDOojt/LY+wWafu6qI0DWwFjYxbwHAIYP67Y0XqcxfiJcTQLW4v2Y7tjfN3GyceG6jaLFhXr3M9BuCcgRrgf9BiKz6140gZqwh1z4Edt4Aqz1ZjfvnKBjaxYbXaFou+iu6Ao3eNnL7OJx8y04394Q/hoZ8CjfcVTy/0IG9fBTANS7ljgZujoz/oeU0QIhufdHj6j+/CYAFIPexX9b4crnvqI95v8yI+WZh0Nyeq3xnGljeZ2AlJAMR+TUad2jz8Ovnce7V020A5Mt+15eyBiihRrP1JbsGg0IquIJE/3jKrTEs6D5vfBnHeu+76OpcQ8FnXfHMocRLdRaA/fEdFDRtvd78bvHP2+LEp35uPBaxFxXx8KOrfN4nDbEa9l1H77rcFvleZ3ihbHa/W78FwgOZ2vfur4L2/zC5k2KiS38Gdv8fcbTvyev4/C/h+gL82jzkxSOM7d6PXj0VR9d/xu9n37hkbXRAPQNpzqAOLasF1gvzGrI6kdx98ry+PoBF4Hd3nndz9m0vWS4sxxX3CmLRjbYCNhpH7kW8Nmbx8IRTui+OvtTFfoC9EjINhBUarKwxDgANssha/buGlSZRLtgGIJAspNW8sCd0Buh14PgvVU/exT5VVYZ3wbqD0SMGl8pLApFINuYTYWoyt7UTpyuCd6Ab6jmyLvQlEbne8fTRfGGvh87XZPHMfVByB8DebQQ/hD5ONz6EB4xjueRmnsEOoQTtjjOTyORscZJboiQKvntwmrxN/97D3+2BBNIafDLW5+O4GoYh/eayclx6Co3YDvQZsCKOX5YBrZWhDQEK3Rc6Ndkha+429UlILLnObV7Sl9VaA4wt2T6EtXLrQNK4Ll4IaeHrAlfho8RDsi62HkffZiGzh62AaXDNqGhUsUbRd9RTudXHQuNo0HzjPqFXWBWr6LFAZNUQeemnBuYDjkBT9P3vPu0fNrh2LMjX4WhajITALnucd9n2l9kgrM9qB4hZiloG1Go/ak+Eb0/dH3ND4X+HjUAYL3w+tBo+X43POMzoakjhRkUeB1PE4QVzE/Q9AXIjMGkXOINERIlz61zI/GJwERbIj2IhakA7QhmNGVtfO6cDQ691PApc8ooNeEbdgOHGtpgyRxAnTbHhC9ozfCfcFSWx0XPfdEOZZ9w3Jw9f/PscUrx6fDL7g8eE6r+e1C5EXWa7m36yV1o+1chxzRANBuRDcrYJis8LZepgIWEf5eccWLykAejgMaO2V08mSNu/Zzz9uDVcYbibVe0sa6y7UoML4Pha0rcPsB97dC20Sj7cAVyqRZO6DdIKQbFatj8blGYhuPs93dlHbC43BfDxFOZ0qzCDr/R9GeIxinkYqMsQ2itubc9frCjXt/XOsTo2vAR0Hx1m5Oc2pEXF/OaDv6HhaZ7Xvc6yAhjZwZbEvYZllF3dNQlDGUTqleVMXvdwoUcRdCpIXRdoh2LsGRpaDqBBgmZR748x54yiZSJa67T8/THimOue8HomKQRnsH0bZC4VbNb7T0WzsOmeMcp0dUfGMeO2i2nN78ME0eqfCuEMf78ThwvNyS/B48DhwXtjiHRFrw2gYp/ej7MC6w9gRqfGAuO5zTcFJjHHYFfRlh1gC+C/ufyqTKp+gD2CZ0wESFOuywdqLuTI3nuQYYzRcCSLgL0Qa1ee4ZLQlHMZR0PhMYF22fcWnPU+P7Df4m7S7R1wimIbZr3OV1XGmoHUNBnET9hDv1he3cM6LitkjwmNIKbi6HhnTqsbCt46LMZQVRa2wQv62+l/u7Mr280ZQBzHd3xTej7HFz0uPA6xkVR8o94TnGaDuPH/D9djlCn+B1FNh0UOBcwIbjafecxTx7OARc50ILcJ3CSY1xGIK+rNOJIDQhOPF9ipAR0DXa7UsiMGiSJsU9C4oSrHFh5lgvsg76HQl3IUoKDXwOsNHU+LKmYhcFiqY0zpRWuAV/2jXu8jiuJFCk4zyrpVhm5Dyov7fOWZ4jhWgLCrUiAKHorgferrHN57vCrkODvVBAHEPIUvzGQUH8Qkpx6xarw3z1H3nvw3nrzaLtBMeEz0bKPX/LZg6DuN+K8HPxfd3fr9lrksDXpxDuZYVjEKPHbrQd1Mea4gnDXsPxtzZdwmtD9t3MukC7RWsQtYJjKsbYtOK319MjXerZGjp3skbCXYiCkGaQHBdtDwdZ4EZxJYI6I4+Bh79tGaMZtVR5OYRyhbUhho7OZqm9juhUBGUJ0rEh1ij42hZmnvjE98LrnwgjwP1SmK4TKFRbRend/0N0ox3Rns2WiiN4HqPurFLPqHmrz3VBpgReG/e5nZyzeF++Li7K38cg2g4HKmwId3yiHdHX2VX8zTmFJAG0C5jOjrGdAhttyOXz4AxhAUOI+FYinDYCnCpJpyps09hcKSTchWiDCWGq/P4eLQnHuVMYYF2BzkFEdE7dkdJ80EyDO7CXmVqkJqO2oWHS8zndBQDXNNJuixQ9KQQUZNGK4Xw8DTVxF87dTyMa+4E4ccvbSdoTy71hTXZ/u6++7nsS0NaIvLuF7hCtj3s9HsOG57rHynn8TJF3yaqgYqevLwGuKK9F2yPrtWedXVVI2il06VAfD8eLbtY8APgf2hgrEQxsudhflQDT5viaTuB7FGnMcO2nvnb69AAJdyEKAgdIek8bgU6a86TdaDtwK1KLzqHATpqq1gpmSXTiYClCClpcNWLRhyA6DYogYngM2FNwt2loHxRhb/d9ygq/L9uRbcvfuxV4/XSvDf2tDacHCt0lbfPasYbHiPnnuI3Pjftst4ZBWpAFUEEwLjHaLud/MihGIVDdSDcFK/aseTA873Z/NQKIeLQxxCxsOIj3ZrVq8B5wAmCczcoG6SY18d7PTp8eIOEuRBtkXZwuDfSMXzD1/FrHSNyIpSJ2xcMd7MsGRTqjC1lSjxiUr11El3CF+zPhPOt2Bbcr+JLMze5HXEHMNPlpbYjwdnAL1YFm8/EJjhMbU+vd17tEhX4a3Hnt0Sh/BYhG20HW2VWFhL9zm/2Ja2vFOT7wfzzOlQgg5BmJj65aU7MRQluuzOnvcuzng4S7ECUCHWE92n7wIOsKH8136hwOwlksx8LfjQN2u9S82D00pHgMvaxsL7pEJ0IoLxhNbVe4t/u6fqLXvyvEOovVNYvaMzsCx8nl3+BsafaadqBDgMcEKiTcG0XbK5FdlVK4c+zlOMg2AkmmwUHIc6ncVpH00yef6u+bFbmrOdUb2Hz7ntphu+/4vu354U/9Dfe7QRFslX5Ewl2IghCdJxUHo+0Qf40in0ifx5ZHZLSqtCoOkwSmyScZ2IsGz0lGFjQgV4giCPdnImnPbmS0HfCd+L2yFoBlhI6QbrcF5qizSn0jDj8+2KM4IX/3k5qktLvFB9Ocs25qPZ0FnZ5nBWfpU8vDW/HRdhEPU79dwU6STjWIm/IGcf3Y94NzjmPsH+w+w9/DBsH/o9vOVX9nTz7+iP+cw77wT7b1ndf52+NnL/O3f5375/5+bPlN9pT3ODb3cWx4Pt4nK+gYuPCI8/19Xzt9eoCEuxBtMHHuq/x9lp7LJJ7tRnPbXTAAaxDOBtYM6LS4Cn43etaTDuzNSOLkKQtRp4AQBxGNiPF+iirQB4GoLdKtk6Rp9yOuOGW0uYhEf/O4gnRRoq9JAkW6O3UizetLCMQhNtgTjcYlCsi+zq6K9i8t4JjFcfgMp7YQ26sVeB7nu8M2gHCGuHZtSjz21Duu82/jM3/y6Rv957jbzhv+3vY8uMl/Dl6794c/9Tfc5nthaufUd7zJJp99sr/VpnqGz8Hz8T5ZiHfXaQDHgsgeCXch2iAP4d4KFDIBiLYnHRxEZ9S94p1FlvHb1QVq+X676HIzbrQA34sbDJAyFtERCeiliHn+8WAfjQgnNLRjwTJiSZYw63cQyQZo2yI6MdzfOOkx8lxNGjFff3z9NfgMnmdp17kvGcPzvuZvzRz9HK+UXdUYjotpxnaI2nlDm/3bd3znc75wBrvOONLfv3jxLf5jM7cfaqfuPNp/7Lk/OtEX4O42Y9kf1YT4zOV/bMd882P+dvwPb/C339r6VX8/e9XlNtd7HJv7OP8HKN5xbHAKtCO8p3nHBGAbT/uXX/m3NaUuWyTchSgJjLZzbpTIn7rR0tnAw3ntWUWVaSi0WoEgK+pOh4OPH+vTcsNSN9jStJfWoC04nYjjrOByTYgSF+F4+gG2IwVro2JvvcatdJ/0GBk1T7sWO18XbRvRv/A3Trqigke0gBzgFMUkYJ45hPGbvjPFv//jGU/7ewhuBoUABDkeO/PEt/j3H3zfy32R7W4zPLH+zO8GYn/u8b9tU84+2d/wWgr6RvA5cAC44p2iHXscaxr4fPez9/5wU6ap+FVHwl2IglATiTFijIVJUEk+i1RrkZwzJgdpcJ1Ekuls6RdxGheFwWOcv7/06Y907OwQBSGrdbE7oWZce4LKFe7RCLxIjjunG4K4yG05/ytBinzSY2RUPsk5i2kCfB7nzteEe+gwqjBFWH40V9y+JSG00TgOwqGNrIWkhWcZXT/2+FP8/Y7ZL9qvvnepL7jZzgu+8Ak/Go7HOGXvob3xRXJrx9OBfcHoPaCYB9s98Z4GpN0DOBTwHQC+E74z0ue7maXar0i4C9EGE0Jv4v4uLQdXL0r3h/5eiKIAsc6UyxWzrgrn7Y354j0JzaL5Qvi4xnV0DXbRHpzXjjYt+pSB2ZemS+N3hXcz8Y7/sVJ9tEgenQR9XqBOdBdEsilukbbOwMB3pm3098SNWNecJ/u2d1xvpxkQ225qPebDQ2gj8p4UCnO81gXfB/976h3XKvreIRLuQhQECphox8xoOwSRou3dZ9v+UX/fyZJwWYtTvk+3otr8HHe5GaYGYl1aN/KwYtaV/n28hnUZRIlhVW+mq/eCRlGxFFEyEeHMxz2x6olS7PsRCu9mwp2iHc9tFM1v9voKEJdd1Vfw952UvC9hW7Bt0sBoO1PTL5sRpNfT7qul4TvvjdvMZovLfKiNz20cTzN4jHA2JEmZd9PksdHhgFT+Y+642o/oQ7wz+o5Cdu3Opa8yEu5CFARG1aPwcVWK7w1FNFiKsLZuo9ULYGQMHf1Z/zbqMjRbf1aUgFr0MjRwtwyaPXxesO8GUdH+xMpgL9HeGWi/6X2cvdBqSTc8zv/FVarn6ysu3EFdvPduvCkSFM8UpkmBQN239RfjUtFJqwK4DNqs2X2Pv+8GOE6mzyeJku9vEG0H/nst/2N/w20IeGQecC69u2wdo/YiHgl3IdoAHQ/IsoOhRxXrfXM+9ZqwIJ2i7b2D4rSTOe5xEesi0aoafHROXyvwvE/MutK/ffez9zR/74K3jYiAudEQPBDQ3RDvFFeMiPZ7pFhkA8+XRgXqGG2HaI9zAk0/L9i7tQAqCh3F3SqG2lW4qkIXHIFMOZ8VRrJBLZLujYMcC+PG2Ubz3PN2pkx955v9/d4HN7WMuvP/mJffCDgC3Gr2EPIU+rCnIeSRTi8aI+EuREFAyjGrklKwK9ree7JwmKQVvt2G1eBRGT6rCDkK9eC8hWHhLocnSgYNWkYe3TnmEO/uUlrdoN8jxSIbouetC0Q7Hoe4bzR3vtnrRf+RQrjHpbO3gqIdIjUqbCnemzm43XnucWNpXraFnx3wziA7oFVKO+fuTz7rJH/PY4rLWvTfNyyIh7n+nFuPtqGAF/FIuAvRJrWoe4YF6lh8Dh04RDsGCEXbewsrtbZKZesmnMuW1THVB9gx/7yjgKeBUDdU0qUGch483mfp0/HLxBXdqSEicK47KpHD2IWwQep8XgKH78vq9kIkwXfweMIcBercdHncZmG+ZsvLcXkwnH8VF++18Sam/y490YyeHHCFKFPPXWjfcclfd5k5gvGRhezczIf6cqrpxuY0zFj2x/6ewrwRzEB1l7RLc+7ApkYEHqiAXWMk3IUoEBBGEOro5Bj5VLS9t3S7EFwSKHIpqDvlwiPOD/ZT/6B+/nkCHpXhfQHfgYOg/p7bG4p3USIoYmDoImW9Jt69+3mkztNRkCIiJoQPzxlXuLNGQpIl8Pj/igv3ItRUyYWxMLsMv3PC/oV2WRonNqPtiDDHpZFzPMc0yWacPvlUf+8WyuVvknVhOhcIakbC8V2QEk+RTuiYiM7dTwui9e1Us68SEu5CtMmE0KsY7cA6xRXqirYXAzci3Q7tRqy7DQw0TNnA0m4Q3BTw/N7trBOLtqtXmt9eiyqIkuBGHt09DF38D8toQQQhsrn9K9mLd4ouCXeRFk7r4Dx1iHacTziXkiyBx9dzHrSIBRmC6NdLJ+xZ/yBh3+IXWw2nL8I2SwJELiPVrNIehfYFaSTCzwjnuaNuTLc5EO79OejvvM4vJIeCcm5RuThoM6Spj8B2Qrttfce1NWdBM2CHY8PzsOE4EbXH1uq1ZUPCXYiC4Qp1iKeyEHVgoLNEp4uOs5lzgx1ukem0OE8tHTzjAmxZpcpH09WxR3E5CHjXkdSuVx/vx6h+lLI4NSoNDVuIdle4cw8RhA3iPcuidW6kM6FxLUQNFpjDeYRaDDwv46rIx8HXuxH7CsJxodF4c832T/t1TEpXvI6/66zWWY34flzeFGPjillX+bdbweXf4lLkSdLq9LVpez1wkEBMI5qOaDg2ThUFtN84b71T/JR5r73wviiK5zoLuIwctqjzABuehw1iH22PjfeLbmcmRcJdiAISDAxXlka4sxPFxs4RHSY6Xb/jDAU8N3SieI3b4bqvLRpFneOH42lW0KZTYLBhjvqNx6zyt06otWHEuMvK+SByhKK5mYBB1J2CCOLdFd3t4ha+k3AXaUFGiO9Q8s4hnkcQaUnnM/Occ89liP+KCvlGU7P4uJvCXQr4u7Y4HyDYmSmGcTCpXQbBiaixO3c7DoyzbgS/0Xx1OLc5z53jfj0bLl/HN74DxDsKyWFDITkUlGNROWxYqz06FaDdqYZoL1aep8MA9qEv5r02xebaizg+bnguXgPxT0eCL/49O7Qfou8S7kK0CToIwLUrswQDwwUlirbTm4yOFJ0jByzADpfeT2zu/4n72qLR6Rw/vi6reWgY5KMrEHQCq74yshIFWSB5T9nIOhtB5EArQxcVurOcF8yK3wkiYkLEAoeSv4TgfWbzv2J2UliYLgkQ/jyfIdYh2uGU4lJyFYGR5jgnK/9XOji/vdGqAiFLn1o+TrSnGQeZPu4u/9Yp0Xnu0Wy5XuCK5izB+0F402FQcxB4t7HNveNq/77rPMCG5+I1EP/Y4zHcho25PfxNyoyEuxCiY1znBTpHDlgQ9OhEsXe9oOhM0fG6Hlt2rEWek1Sk6LC7AkEZoGGRVUE90QO6XShOleRFFuB8hQCf3YYDiPPcIdxZ2A5OqQpF3ZuJQnf8KctY5MP57e7ylhEg2lkwLq1oR0YhgN0TV5Auivvezdq7l/Pc26HToIcLnQNoT2woZJfEWUAHAINItE/LioS7EG3CDiPL5eDKCoU21vtku6CTZHoY9q4XFJ2oO5jhNX5ak/d6dKxFi7qfHg6W7YjOWipbxh5xpKAF1dqRLt9ZiuLo/jAjIOd0uziyzkYQORBNlW8mqF2h0yl0FLRIZRUiN3juUbTzWngiozoOJQC1TtA/B2NNXZyzIB3TvEsz7QnLV3JJwJi+Bd+Roh3jdlrRDnuIGYWweZJAG6MVvZznXmZgY/K3gH3JoncIFJUNCXchRGZMOetkf54TI+1pSbpeaK9oxzDJc51VzrW7eWdQ6bbI1AyOshh3og6FOtPfuxVxb2JcC9EVouc6137HtZDFdJCSEDeViSnkHIdKJybRr8T0ZZh+RtGOekNpRDsCDyiGBpBVyEBGK1yneTMnPx32AA77enHXYjq+G9W26QUMEAEWvSvi1MxWSLgLITqmNp89TF1ipD0teC3TmXZ/szgdai8i0UmgQQEjo5Ooe9EHf1EiKLKZitouz4RLeIFuOQqEiIJzj+c05kOzjgNWUKBjqQJE51ZjzGEaOYR7tGhaoWF/0qJ2BurIJBHtTL9msV2QNEWeYOxNOv7Wxv09D9cEcVFtFH6nokyRm/rONwfz4O+4ujb/vWxIuAvRJhNzWse9U9wK7xhM4FFE6laex8n3Zpt0wrSwCuiuO/7R3xcBDj7tRBT4mjxSwd2BHoN4kYmrLtuqKJ4oCFHh3I0IOKOZLYpHCZE7iLLjPOSqCYy6V2h9d86tpjBnP560wnqhaJHJw++YRrQzcovgA6YCtpNxiM9LMhYyrf7uZzsvTFs18Pv4AaKzTvJ/pzIi4S5EH4HBA9FvDCbYcB+DCtfApEc4y/k9HLDgYc4Cvg9SmYpUpK5onmPCZdo0iIvciAr3ZhFw/q/TNOIExaOE6AoQeO7a7zjHseEcr0iRuuhUJ4pbpm1HI/KFhaId0fYG/RidEq1ENEU7bC6IQRbaTTqvPQrS8lFPoJXDwI2uJz1W0T9IuAvRJhO8jhoUqTgdhbhfDC6ca85qmhhYAAYbzu/xl2fLqDgH379T8D70hNIpUARq1VHDQm5JqQ2sOaWycRBH9LqdNMVuRr1r893CNmFb5tU2osRQEHUjui9EGiD4mGZdkah7NGOKafIUmezbC58qzyKDDfoVfr8kuKK9mynXGKuDwrS9nzfeCtW2yR4JdyH6BAwiEOUQ6RDsSAWCgIf3F2lbGFjoEeb8HgDxjte2C6PiaeZztYJz5pk9UATqojPdAMQBKy9hjPfl/MJ2oh0SzyIVrYR0LRr5RGdRd762QVRMiJ4yO1zLvULLwtWLoj18UF2Ubjh+Owa/VYspONFMgkbAbuqFaCduVL4UbS8yQ8JdiDbhfG53DfNeAfHM6DSrZjYCAw3n93DAYUp9OyB6D7JKlQeoTM+l4TpxKmRJLeKewiPfLS6bcYm/L/rarvS+s9I+2zKP+f8iQ1zxnERI8zntCvexMIqp+e2iqBx+XODEwjlekSJ17Kc/uf3T/t6d316KyCqzIxL0K8wwiAP2FjMVZ7WZFt8pSZeP6zVxtW1EZ0i4C9EHULRDjKeJfLveYrxHO6npeUwVwHFhaTjs4dUu0lqb21KmyneDmtHkDY5pUxUlnkXh2B4KoWbrxQvRa6qWLh9xXrtRaVegFa0OTA1mRzSpm1EbD8MxNQpske1hMAFBkiwzDdMwbvk4ZctVCgl3IdrEjQT3Op27Fm1vYxk2iONa2rw3KEW/Cx7Dd8VnRIvFuc/F+2SJf1w3LPFvx312t6GHO22qfDeWWoPRxOhHkYsDyfteUtwoe5JicZ1E3LcM1g3sed5tIYoKp43gfK1Aynw0yhstokYhn7YOTNdgf9Rkuk/c1DbYObCDUNwXKfK4709JbHPZ2yzA8XGKXNGd7vVphhr3s0DCXYg2wbJliHCjE3/qHdf2LCpM0Y5jaVc847UYiPBdxpatDh8NU8K8gQqfAfHO6vRcao7fGa/PA6b0c+AsAqmL04WGQN7rrFK4p02XrzkWeuC17+Vni5QkSZEnjJSnFe4QPyweddp9wV6IooJrgmnXFYi6R8ewRs7oQhZNc5eAa9KXMWPt1J1H+zYH7R3YQQA2FiLt7Sz3ljWs5F90olPkRGdIuAvRJhCU8Lhig7DsVVQ4K/GMqDsGJcxZZzYBU8Lw3tgo7vl96TTIE7Qvj6sbn9eIvIV3p4xPly9m1D2aannzL2/z96JEtCpOB9qNuFO0IwU5yecI0WuYLv9M/zuaINQp1i+Yer6/d2EEvtCR1YQOyK3vvK4WXadYx7RCbL2MtLtoels1kXAXogPYoTMqzGro3QJClgNLp3Ot8B4oCgfwvvAy470h1iHq3er02HCfYj7Pgcxv4/D94aTAMfUCGiyIJqSZR04jplF0IivGp8unOL6Y1MBu08vPFgmBQDluRTLDl895IYVwf/i8IOKO155UjWJfog+AgwkbVlGoQLo8xzOmabswlT5tnZWusGtdsG8x1Yff71Vjh/q2B+wcinXcLxIXeOP9hhO/56//XhZu3nmrv/UKFFZkccWyIuEuRAYw2r0nrLDeLXaFEeishDMGJiwVByiQZ3/2Mn9P8Bxs+M4U83kPaPgsVPHHMfVyWgKFcVE7fgzk4O5nv+PviwB+M/xeW73f7WVXfct/7MnHH/EfO/lHk/z73XZ4iTbAfPOkc87TRtzdOcLzvxzshSgLjLozY6SPueyVl/ibW1E+SiHnuLN/aZLJQ4fDyT86zN/7q9uEtp1oH7e2DbLs/K1H4v3u3d/xt5Xbrw8fKR8S7kJkQG1puBwqrDcCgoiCJ8vBheu/Q4wfA1Eefrde44t375h8IXjD3wfzzrocgYfBgkgDBqAk4p1z/boVUUY6PwoEpckKyHo+IoU6NhTz4fxATHWYOTbBf44v3L3Hdsze798/6uMb/OcnhZ+BKR2cnsLHkOIIJ4G/521vw3PdjcfIrBXRIyDuEW0HiOgrRV6UDZ6zaaeGlJDLZlzqb3EUYToZxmZGzcfB36ZJxhBfN3N7ME7lHZCoCtEpcgDiHQK6VxSyDkNCDjngEd4WQrQJDH8IFHT0SKvqBhAfEB2MfFcBtDOcFcg0cKO0cDZMe+ebu+IdR4c/sOVi/7YffWhgxICNnnhe+tRyX0wPHbMqfDRf/FQ0b1BsdWzkiqc+4s+Jv9E7vmiV4Gaw3gDbHL8Nzslo9BzXBJ/zxBWv8dsDEY1VWy+zt/37/+4/fsPFs2qpiRTRcUbThNCJFPcZnYhvHmOeUz4qx7pDgv2iFiYGU+QhflSQLhac23Qy4Vyd4G2YGqXztUDwPIbzqcKrIQxsebcv0Ibnfa0nU6AW/uwt/h4p5DVQmO7R9waZEU2m4XDs/ONbj7D37FlcGbsqb9iuOB9wbrj7T8z6aOy0izyAo4ABF2QBDM+73b9dNhRxFyIDYEyxcFu3CtRROFXJeKPA4lx71BcALKjHefl5gg4fohggJd31IhcBzjNMWl2eaY2toiVoVwoIRNIZuUab41zEHoKa10K0mI97nkbrIpz0rov8vfvb8fPcDe9P0c5zgdcdwGciSwTTPbDnbWwwwtwNz3XrUzCLg+8lOiRJujyXfsNzJdoPwj8vveuN1xgfQ3+n87VgHBeK9Yqs6d4IRld7XUF8XEYc57e3yOZhvZeZY4f2bH32foa2Eubkw4bC/W5OO+xlhD9LFHEXIiOQlgtRAbGQd6cPIw6iCaKj6l5hGK5oj93f/Ef/NgQd5qZhnxcYcJjq1SyavsafS/Vpfz5gNwvIpImi/4ct7/aXZWsUIYEjym/fUDgQtq8rHCCimy2Tw2wFfM7Q0atqt++c8N/CZ8S/L9kXTkVxry8+r5PfG++B2gk8f7qVNdPXMAIJQR5nMON/TJFv9JyKgvMQ/RnEOcF5Ocvr6zF1CeMMBD3PVzqwJDZ6CIrTPeydw3BUIbKLqHuTtOx+BUIM42LSjK8s4XhLbjzms0E0d/3xwe9y5uNNfxNkgyFL7uplM2zxjf+9MNMEy070d0E2BGwoPIb27lZGIrMxSK+yQjpFEXchMmLKWSf5e0YE8wRGG4DBVnVguPqRVk+sM/oKEZYn6OxhmGCPgaeXVVLj4PquGDBbUVtL3RnA0IaM9GHtfop2tjUj6WhzRM75eJq1bTeGS9bBsYDXcyPuY9wgTKLihP/rBLyezh58dzjFRIe0irizkJfmtdfguYfrjqIdfTyvN5z7OEfxmH/tedecf616z8V1qgh8Dzn8uOBcBoi6Q8Rz7fAKwYh7L2BdFwhBUIvmJpjfDmoR9+0TJNozxLUtuIwgHlsx68qu2VA8FxBE4flR1nXlJdyFyAiIRpB3qjxEFI0zRVjqwKBl9kE3xBcHHoC09LhicP8nFM7dNmbOaHNZHl8EhIIdYgD30a4QCL+19au+eKBQB/wfH2+FW122aOC7QAwBXGN0jok2meQJGdBIuCPiDio8HzgKHI50kvG6Qp/G683Fv/a8aw7PoQPX7/eWrfZvtwNej/ELe9EGs98TRHXhiEIEvgJV5qP0ckk4CECASD/EGTK8PvnoYv8x/7dpAp7Lcek1b5IjMUtuckT5Za+sZ2G4NlTexep4bnDlnTIj4S5ExuzP2ejhEnBVT5GPA8YsDd1uiC8YBzASGs3V4mDhepy7AY4rMFzGEhtQmOrhRvrYlklFeVpqkf4eRmiiUAwBtIPEewc0Ey0JI2BVwhXMx//TqnEOsma41ynA/PckzmP0j/717pzjuI3IPRwIeTug+xac0/PDSHsjp1Ufw1opjF53E44pyOKiIHzowC576LDpdUdiA5gBhsKpCohkC+0g2CRHRWwh34YKawZBvGOKn4tf2M7bOnH2wyGAcwN2GM5PTh/cuGf8Z5UFCXchMqIbqVUw7JiKrzT5eJhGCii+KOLzMEYvPCJIvWok3kGaau1Zwc9sli7PwXDm9kNr5xUjfW4kL0voxKBDodtOjVbgO9MphvNHafNtwkh6XLEuRtuVIl+DDjOcf+2MJRDwvF75XlEwfqAvhJMO5zXu8xxH38hoPx7fHj4m2gBp8zy3ea5XjE6EVjswWsv15TGu+E71Qw+3Tx752pZ9DcejN31nSi17UmQDnCio8dNoHjt+p0bF6iDmsS19+iNtp9Pj9QDHUDR7ox0k3IXICBhO2GD05GXwMDqSh6DqJxiFAjRMsec8UNynkdopSP+upcx7xgM9xq4h0e5ggXOpXWjANIu4b/r6nf4eS7HBWEE6fNJIX7swwk4vfNGgAGIEk04fkZJZzVNTRR2MFzXHWQfZLXwt3gvv6Qtz79zFhpUg2Pfh/zjP4aQDOMfRNwKc+3gcr2V/ydex38RWZFGPY4NzIs1120lfG8u0RcG+YsIdYx2X9+pmurwb1SW+U/2FX/ni/eYXnwgfjYfj9ckPT8p1/KsiSE+nPdII/t+f3hATAIGohwBvFBxpBH5XvBbnBYMZvZzOkQUS7kJkCNeZzguKzU6Mu6pAAxSCFLexsXgd2hFGKAzSre+41jfwOjFEfe9+mO7FgYVeXteQSAqOhYZ2u8eFY2ImQDT9DG0AwxaVq8GEY16VqrBclvQiGyEJMN6wjBwoulApJIw6Il04Kl64PFOL9NWqMC7a3oFo8J1O7wycuhTdeG++P/6PPpBZNRhH6KAC+B8cnlPf+eaaqEdfwT6T/SY2vD/2RQTfF84J7P02iBHw+E54HN+BfS023M/kWp8erphQ8eXhugVFmDuezNn5D3bZs4/7t4M6NPGp0TXR/qPDNL+9R8BeYYADv2VUVFPYB8GRZIIbz6UdFrfCQS+mc2SBhLsQGZJnZXmKdhhX8ggnA4YpBCmMUWxc/x23KeK5JnLN0G1TxGNgQaQBHmMsK8NUwVaeZhcKaka/AI3udmAUYs3u+pruOI/wPXGO/mL2i/5jxx7/2/5ejGeydz1DCOF3QeqwSEmrqKPmuPt9DccLZgl1wsRj6s5jX8iHDkwsU4q+D32g6/jFc/A/PIfOOzyG57AgJf7PPpROUIDjLqJDi+3JPp4CHqIcjloKdTzOcRXfGc/FffS/aaL1sbRaVaGP4aom3ZxDzPGW4s/n+cftjN88Y5ftO+D/v1G0luMkou2id2B5tsCGGvOn+HGaH2wopLkzCJJktRyIe/zeeC832g5Yh6GsSLgLkSEwFMAeTwxmDQXctNBoEu1BY9YV8TREaeRRxKeJvsBg4FrtNAS49EkSYChSUPuGcxjx2r/1Fwcdg3+c3vNpdLaCRXvwOkbJGF3rNtHiNOMMrQIyY1kwdYBtLlLAqCMj7ERz3GvwGmYf1Cl4H/RrFN24xiHCmxXcwv9cMe+Ccx//x/tiqwn40KGVtA/qFq4QZx9PAY//wVHL/6OPxYbncGO/S7GP17TlnKjwPHf28Ukjo53C9bkPGm9fCNLjIfwwzsCpHjdPmseJ+e0qTNdbaEPhN+GqPBTsK2Zd5e+bnVcQ6gicXOFtAL97NNpOm4POnrIh4S5EhtDTD7GVJTAe9oXvmZWBJwLjjcYojDY/8uQZsK6hRxFPg7AZXO6M/NmjC32hjPdqBP7nz8cMHTP4bN+AdI6D5xUMSDyX0SK8d7P3hwcbjO4PBihXtMOo7cXA5VaRj7ZXEcE5Mit0cLRtxFeVCkcdk8J+hYKxU3C+Ysubae94s79n31QUeH2ijwNoCwp4tDGmv7hLW2Jje2GP+/gfbqNfRZ+JMYBR+lRz5ys8z70XHDUh8rnhOvpzZv5pTRAiZd4V727FctR6mdCFa0c0BjYBp/gxAMKsRfd/UfGOx/BbDmx5t/86X7C/8pIwin/wdLxe1GHICgl3IXIAA36WBr6WgMsfGGp+5AnGnWPoARpwMNxa/a5/sOt0+73/d6xdvWyGvfju/xmI/3AePd6HkXWkbPI9GWWH4wCfTfj5eA+8FgYkDWU6cPA/vAc2vF8jcQmDk5/jfgY4yODpEnN69Llp4XmB30Ap8ylA1BHiPTrPnUK+4qnydKThWu7GqiRZgmkkuC5wTdD5UAQYUY86uCnKcdyt8PtiT+D7mQXe+9AJgO+KPhRO00TinRH3XRUT7mG/3q05xHVh54wnbn/j9TMQb3ieL/B+eZsn8C72I/WcA41oOyjbddiPuBHyaBYFf+uo8wWCvTafPRTscfPa+wEJdyEyBIYBiwNlacxQrCUxOkQ20NCjgMd9imeIZBhu3CCKsSEq8+d/NGb/6YP7a9VpYfjhdUy9xN43AD0Dk+cI3h+fE03TgxHBqDteC3AfESNmCbjOBbyfGyF6/s3X+/9DiuCTjz/iHw+jx4CGVa8iJGWIuBMU7OI5kMhoFwFRcV4T7SpMx+s/KjLLAo+7SNcDM9M6TXlm341+lo5ct79NJN4rmnHCfh0iGVveMGrKlGoftvns+uoWqG7OIrIYEwHGPrxuyfXT/fv43UVvceegMzJOGD2H7QLB7jpf8DsmFey9qMOQFRLuQmQM5sQCiO0sou5ljsr0AxjIIeARgXEFvG+4hRt+azpX8H//NaEYh+HH1/FxP7IeRnR8Y9B7/zjwfBY8BExxJ/77hc4FfhbOEzdChEq54DcffIP/nE4N2k5xnQS9ivS3A9p69g1L/NsQXFlm1PQ10XRh7qdVe347HH0A12uvr8l2cfuZrMQ73gtbO+TpCKn1315/i34WtBTvEO7Ynn+icunyFNHbuhB1p3NgXP0U1tVg/+MB0QdRd+Mxq/w1xbFB6H36h4Ezhuez6C1Mc8fGCDuh/cDMCYDH+Ju69kW/IuEuRMZgcIfhAOODhkQnlD0q0y/QaHNTKCHCseE+xDjnTkbFuCuucRuGul+x3HsPvG8zWOgQz4umuBP8j+cdjgXP47HQGCnK+eMOrGUbZPGb4ffDta2U+YQwXXh7MN+0inAsoLOH01ZAmft19DkUsZ04s/A6OKg5jxxTi9p5L74mb0cI+1mQSLxXmLwj7m7l8XHQURJTABMCHo6FcRF6j1ZjsegecLC0ipzDfmg2j70ZZ5R4LXcJdyFygKKNxlm7ULRDfJU1KtNvuAIZvzM23M/r98HnUPSnBcfKKEScAcVBq0wp670GvzXaFWKsSCnChaVhqnz/CxqeI6w/wSksHBfg7Ct7v47rAc5LOrOwT8svPfHrOrnp6EgDnCHueJk3+N7skyHemRl3EBUtUFdLac5ZuNfGsOgSXyn6mW45fEQ2ILqOrZ/nsTdDwl2IHIBhD+MBBkjDAT0BMAiAloCrLjiXsLULDZpmBlQ3i8S589eiEY8ygN9CVeZTAMMZUS+mC4dLNPWzcHcFO/twjgmkH0Q78es/zH1V2+MdryG0CcUwnBtJnQB4npvB0El/mQZ8Do8XfQHrkOB4cD/p8TcCry9r/3J6lyOa47K3wmryNqt6oq4KwCmUNsIepdsFFLNEwl2InEAUArQbdfcHfi0BJzIiOkDBoMo7GhLH3WFqY5mB4ILRDsOawiwP/Pf3BCD6giyEQM+gAf3EynrksQ+FO3+vqGCnIGWRM0xj6afoHr4jxzsshZpGbFLoY4zjdYU927IVeB4FMxwjTGHvFhTv7A+Y7u9nWGA1kS//Kngi51ynAO+DLIYk7VBU8hZGXDJsnJBjW8ekycdBG60bmRqiGLgFFMuGhLsQOQHjgwYIjO60cAk4GkRCtAMjH9siAxTnBmK5lXFFfXKGBWVANz83a1DrAECo5AH6DRj/TMOtCYEyGvE0oN3q2n0m3CFWGwl2V6Tj8X4EwhubO96hTVwhi8ejop7PdZ3TzGhp5fSOivZGNUDyxv+tvf6Avy32bIud//OXtvPvTh1/7icA7QXYnmWLvLuZVXnCcW1cxL3J/PY40MagX69NEQ8L4JUNCXchcoRz3dsxtmupf+98s78XIksY+b7sld1NJ0QRIWyYo1ZmYOR14phrBQx39AEQJK4ogjCEWKGxWQpq6fKeeOnTOe7bP3Kzv/dFXIxgrwJubRcITczpB7xGfOeT9xjOX2ysrI9zPOrcwOaf7w3GTvyvCKKd+L+7J9752/s1UEKnO4S7L94TgrarOTTe9Jj/XRF5z6OfyQsIaWyIaEadxlnRsDBdG/Pb8fuJapGkAF4RkXAXIkcmeIMBjfs0HnN622Gsa0ARncDIh5uy6Bo83Y56f2LWlf7W6Ry1ItCJY64R6CcgSCB+cO1DkEAEYIMooKApXfT9uMHwhkefiXYIKk5rqqJgJzg3IaL989MR5RSyGM/4f2x0TsdllfHaihOreC3HyCKIdoLv7/72+A5M3d95+9SmTghuuP6ZtTHjj39sM/7kxzb55O3+//D6uPeovS78Pxwi6EMafV63qNVX2Z+PcI8tTMf57c767c3Y77UdwHkkRBk45IBHeFsIkQOMNGBQhwHTCgzCjCTAUK+qESiyY+HP3uLvN5z4PX+/9Knl/txACOiDohUiMVleq3iv3d/8x3Gp1nH9hf88r0+hUY7nuWm6hQXF6daHgh1G9fwvB7f7AF8web8bhCmFWlWBgKRob3YOQzDB2UHndhxcNs+9tvBaNxulKKK9Gbs/8/s29vk5/m33OsV3acTEmb+24z93l39737O/bbv/9ZPj+gbS7D1AL22IT27/tJ/Z5ack5xDZjB3HHn1vIN4T9jE8x+A8orNIiCKjiLsQOQPjAgMtBtgkUXc32i7RLrLAXRIOIp4FfSTaOwPXNa5T0EkaK8VILdLmGZGNnHz4TP6f/UrS6DueA0cDPqvZ8eI9O/k+sRx+XN9F2gnbSv110AbMFONc9Sj43+SzTmo5xnE1FZ7bvE7KJNrB1PNf9KPnAN+BG0F7cMP3wjZrxfzwv97/X/WcLyrda959D77OF5/eBrFei/SHfUovOGiJtgzBWBZbmI7z27kMXwtYowTtJ0QZUMRdiC4Aww4GB4yVuWFRK0JDxDd25r7Kvw9QeViILLjiqY/YQ3t/5M8rv+Kp5f5jEO2IVIjOgPEMMQzjGddw2qgNXs8+AO+RJnqO17pRenx+o4gvI0tReNwwXCGiGD0GmUehGA077b7EhaPKAAqwAfXZATgvk57DzeC1BXBeo2Br2US7j3fe7/vJHWbzBselcDdtoy3ec7EKA4DD68zH/ZtoE5dG78G2w//hQOmFUwmp7BhvsOznUMY1TRhtP+i91x0S7NFeLRyFNbusbOeTqDQS7kJ0AdcAiaau0ehzgZECY1qILHCFO+a3I31RafLZ4YpiCmFX8MJA5Bxo9AW+8e0NvX66MG574HWNouytcPuXqHhHlg8KW+E5+AweF0VQM3pp9JcFGv/NnCaifcY+cpPt/ub3w3vFmtOeGIrw41YE4j0JdHKRNpxdbLtenZuIig9sebe/9NbwvNvDRzvn5p23+quToPjd8LyvhY+GULgvai1tHn/Dcr9f7uV0AiHSolR5IboAjXnAtErA2zBGEN3ibT5XiCxw1yyNTS8UHQGjmM42CGRfqIeCHKIewg5RbGz4HwTz3gc3ZSLaAV+PPd4fIh6CHe+PaucU7RDhOEZsED94DTKAcB/9Dt8Lhiz6I//1oegX8XD6kwz/fJj2jvqqKqWNjB5+fLB/4Ylg3yVmLAucdK0cdHkzui+7tdwRxeeSogdljD2TfP12v4/2RDvOKV27okxIuAvRJRjpwiBKY497zOXDsm++IV1Gw0QUGs41RKQ9dt1b0REQuxC/rngfW7baF+o0mjn/FM+BMIZgxvWO9OpORDvhMQAKbgh4GKf4Hz4jaqDicUzfoeMBz+Hz0B9h6o7/Xbz3qiL47nC8oB0b1RDg74t2FNmDdsXYSWdTKWHKdpq13DlXe1ZY1I33U4DrGxvO4yQ1MLIGYwxS2QErwHcKou0ABe8Ocj4nXAYOdhf7NNZREKIsSLgL0SV8w/qd9bWYgRtx5yArRNawOB2j7RdMPd/fi+yByMB1jIg6jWU/gu09TgECYQxBkvX1jveH8MYe/QxA35LEMRDtf3Abxw1YwKlKwLiHYIcwZ58dFfBIRWY7w8kh8oEOr9LSjnAnfO2uMJqcEvQFALYGAwW9AoVRsSHzqx0g2jGGwSHQSZV6ODUB+jg6O4UoCxLuQnQRpK5hsIAxiEgOwMDhGsxCZE00un7G5NeFt0TW4Fp2q2lDdHQzFROfj8+EWPcj+xlEKSlOqwC+K/rm6Drk6KddAY+Nc6/R3kJkCkX+9POCfZvgvOW5S8HaTRgVZ1FUsK2Ndd2bpsiT54MCfjbpuGAfAxxv7M8arXogRJGRcBeii/hGdegBZ4ql5leJbsP0RZEPuKZxnUPQ8XrvNuhrOu1b3PfodbSuG7hRdoDfD44P9tsQ8BDyMPyx4XFEgnv1G4uSwKUQIcbTRt07idaH4PzEueo7nrqcMh83JWvjnvRp801T5AlrCDRIlcd3Z7YjnJqyvUQZkXAXostEI+y4L0SezJkw3nhi6rzIj16K9izh3G2K2X4FRn00yu7+fuizsUHI+2I9zGpQ/y0SkUaAu0XWOhH9Ia69wel53cIV7oyU3/3sd/x9Uj65/dO1pd+apsizfSLCHQ4LZNFQtOPalWgXZUXCXYgeAIMQBt/szypVS+QPq8oDzW8X7bDnwU3hrXIAYx0R9FaZAqzC7xr1jLI3An23ouwiN6ICNI3ob8Axd1zti1VcF90U70dNmOWvs45l29pZyQQp8iiqClrOa48R7nDIMYsG1zTrjQhRVrou3EfXDNqSJUtsyYq1Nho+RkZu8h7H/8JtaCR4vPaam8IHwNhaG1wyZM4jQpQGX7SvutwvVidEN9H8dpGGKW94rb8vU4E6iBNUjUYEHfN6mR4MEe8vzeekC0Ow4/ky6kWuTFsU7NuoDl8Tou28NgTnN7NDdnVRuLOyPPa8jeXhklaZv2b7p/190xR54gj3uCg7MmQUaRdlp+vCfc4Fg7Z66YLw3sEsWLraVq8OtuBpIza8YaEN4r4N21q/psWIDd1otmT1Umv8TkIIIaJofrtIw4QmkeciEo2wwYCH8f6vc//cF/KINuI+jHpszZbLE6InRIusjX0l2LdZWZ5gCgjAtdGrmhUU3xt/Nezvm7H0qeX+8qUtU+QjKMou+plSpsqP3DRsx16x2OaE94UQQjQH8wuxaX67SAMMXxZk65Wxn4RohI3z1LHhOwDsEXnDHkY9NqDq0iJ3nlgZ7Lff2jrlPVpk7cxQyHeQKg94LQOe+93m9ClBxtdDv7zLbP3x/u04EJHn8qWJRHuYjbD12rcqyi76msIJ95Gh8WnyZgtsYOEGG8RjNmALHhq09a8ftMWyPYUQIjEXTv0DfxOiXZoZ+xT2iHa5qejdIC7CxmXw/Pt3XF0T8Yi84T4FjKpLi64w/8uBEIf4fvjcdCIcr0OhOryG0fc2gZgF3S5SRzDnHYxOmBx8n/X1+eguXD7uPXsW28k/OizIlAn7Fkx3gZPu8QV/bFv//eV+34P3gmjf+9NZtT5AUXbRjxxywCO8nRGjtnbFoA27yzTOHrDBlU6EfGTIltx17PjHxjFiQ0uGzJYyXT7Ee93gtgEbeHrQhh4ym/P2QRu8oHncfd26zlKLhBBCiCrzir/baEd42943nWjPLAnm6h76i2ftsJ+O2qE7fm2TvD1uu7w48xW28+oL7MVXHRE+kj04huk3/WPts39z8hz/M5OA1+Z5bEJEOdzGbL79jU23H9nzNtu794f2hL0n/G+dM+0/+s9db9/wnwdm2z/4r33GXmcP2+f8x9plxrVr/GsG1wqumW4zNOM2e2zSFrtxx0Y74zfP+N/xX35xs9/HHPqLX9tnLv+J/fR1v/EF+9XLW0/VQV+DaxnfqRv9jqgWixaF9SkKQg7CPQEthbv3lJuW2PDRrjD3xPyKURu4wmw15revXGAjK1abXaHouxBCCJEXiKRjfjiWhkN0mqmoURDpQgEsRMcQBWO0G/s8QOQNn4X3R7q7Iuei8CDKjLR5Rs6PW2E2bzC4TZBCjuchRZ7p8n50OkwtP+2+IALfJrxuEH3vRVT6in/7E3vowDN22csX2WVbv+zXmRi77WLbO7LXfnraC3btDTv9533xyt+2V40dahPmvsomzvy1TZy4xn8ct/3H5s603d/aajv/7lT/cXDMTW+wKW/zhIIQfUpB57iP2PqHzGYfRdGOKP56O7OJ0BdCCCFE9kz0jGSw98FNNdEOsYx0cxj/SEv9ra1fHZeKjv9DvEMk5AXTfZXuLkoDhPhxnlCHYAcQ8UgXdyvGQ6QDinbAdHnQQXV5wGvFTzHvARDt/v6lZ2zfoe+3MU9sQ7Q/87tH1kT7jcessoV//3k7/r7/bHOv+ZnN/tP/ajP++Mc24+LdNvXP/9ymvOdBm3jGR4PHvG3ygsl2zNX32hRvL0Q/UyDhDnHOpeCGbOztg2GaPB5HZD2sID97sQ0cPWyDSwZtw8IlirYLIYQQOUKRztss+oR55BDqUdGM58y+YYl/O69l5CjacVx0LAhRCg4/LoiyM6L+/BNmj77XbIv3GG77z3FEO6HYR4G7DuBKEYh0d51n7reZY4f6N0f3b7fH/+hhf176L2a/aP/zM0/5j6OK/BmHTAvaA1kGbnYC2owZCmEbQcxD3E85eXt8uwnRR/QmVV4IIYQQpQHRud3f/MfEqbV4PgrGAUTjs4bpvrNXXV5bn1qI0oHoOoQ4RKoLoutIiXfJKF2e1yYcbHDAdRVPhD/+tmH702/u9u/ecPEsv2Dd//v8/7ZPTg8cgMOH/JbNeXrIv+0TN52APHze+AwEd3qBEH1IKZeDE0IIIUT38CPtKebD4vmMxOexjFwt4n7WSf5eiFICkclIsis448QnHkN1eoAIfZvg2gQ9SZXftc727XiFX3gOHP6PV9rx933YNh423b9/wZ7RumiHY+LMLY1FO5gWKRwm0S76HAl3IYQQQmQORXXWa0ZTtCPSrjR50RdAcLpR9EnHBfso088LnoPoewdLw3HqSx5OtWaMXf+Cvz/54Un+fuOeh73vfpw9NC1YQuqyZ0MHBtoCG6YVNAPtIUSFkHAXQgghROZMecNr/f2eBzf5+6yg2FBBOtFX+BF1T4w3izJDyM66NLiNwnYlAtft7nuD+e3nXfIBf3/3s9+x0X1j/gaOOuaqIPsg6TQAN8I+vVjLdgmRBxLuQgghhMgcFsFKW6AOKbw7V/1deC+Aj2FurluYToi+AsK8VZR59nvqUffo3PiETMkpG6YZXJECVeCPPf4U//bovu22ce/D/u0Lp/5B87T4ONBWtSwFpcmL/kfCXQghhBCZg7m02CC6k6Tk4nkoOgdxDiPfXUoOt/EY5+Wisj3n6gpROWoV5r8SCPg24fXUDegkmHHFApszcbZfPR7c9MugSj7vp6aD7y9E2ZBwF0IIIUQuTEgwB90V7IymAxj6EPzYaPSjijyq1KcplCdE34Eosx91f6KtlHlmq3RLuNfqUrzpsVp6+xmhUEfUHfgR93aAEwPbSe3P+ReiLEi4CyGEECIXmqXkQjRsfed14wQ7IukQ5lPf+Sb//3icKbYoRqel34QIYYV5LIfmLomWABZ1TDuNpV12hde3u9b66VNe5+9B26IdYOpA2hR7IUqKhLsQQgghcoGRPTeSDijYIeiR8k7Bzkj6jGXBHv+n6FeUXQgHCGCIVqSKp4y6d3tJOF7DU9+8uTYnHeu3k7bT5IWoGBLuQgghhMiFuOXa3NR3CPbjf3jDQaIcwgLRdQoLf+k3zWkXYjzHhZHmDqLuSepPdMK4NHkQRtwxz/0obwNMmxdCNEfCXQghhBC5ALGNqDvT3kHNkPfEeLMoOsU9ULRdiBhQVZ0p84++J9gnpJkjDNcrVnFAZkx0hYe0jEuTj/CJWVfa0DGrfBEvhGiNhLsQQgghcgNRdUADvpY222K++jF3XO1H47Ep2i5EA5B6jig2CtWNJS/QNjmm/gQFO1d2wP+wh4CHw41bUvBetevdSZMnSJFXmrwQyZFwF0IIIURuMCXXFwGeIc/09ykt1mGHWOcmhGgARDuXh3uivSJtUcEO4HCj0w3XLlZ+4AYh34zoe0XT5IUQ7XHIAY/wthBCCCFE5ox95Cbb/c16pA7RdiztJoTIiIfPC+a5o2Ad0+ebsPfBTbb1Hdf6jjE60wCmtuDapMOMop5AxOMx/B/ZMC54HiLyfD88x58Sc/Fus0ffm/jYhBDxSLgLIYQQIldgyCMCR4755sdaRtyFECl4Zp0n3sO0+dPuaxndjjrTooK9EbiWn/IEP8U7Xoc9o+ugJthZmwKiHWn8yAzQ0m1CtI2EuxBCCCFyB+m1nO+Kpd+EEBmTIuoOoY2K8hDZENitBLsLRDtS5nk9E77XQfUrKNxxTDg2IURbSLgLIYQQInco3P25s6oSL0T2oEDd+nlBtB0iOVIMLmsg4JEaDwfANE+sNyw4SYcCMgFyPiYh+hkJdyGEEELkDlNrhRA5sv54T8Bv8QTyIk8op1vbPTd4TGc+rgJ1QnSAqsoLIYQQInck2oXoAhTGmPNeFCDagUS7EB0h4S6EEEIIIUQ/4KbIIz291yB9XwiRCRLuQgghhBBC9ANuVJuR7l7CY9DcdiE6RsJdCCGEEEKIfmHaomBfJOGuNHkhOkbCXQghhBBCiH6B0e1dBZrnLoToGAl3IYQQQggh+gVGt4sQcd8VzrNnFoAQom0k3IUQQgghhOgXXOFeBPEuhMgECXchhBBCCCH6CabL91q4s7K9itMJ0TES7kIIIYQQQvQTTE0vwpJwQohMkHAXQgghhBCiH+l1gTpVlRciMyTchRBCCCGE6Cemnxfe6CES7UJkioS7EEIIIYQQ/UQRKsuPfSXYa367EJkg4S6EEEIIIUQ/cfhxgXiHcO/FPHd85hMrg9uzLg32QoiOkHAXQgghhBCi3+hVijqcBQ+HqfrHrVDEXYiMkHAXQgghhBCi32CkvZsRd1e0Q7DPGwxuCyE6RsJdCCGEEEKIfuO0+4J9NyvLP/reQLxDtPPzhRCZIOEuhBBCCCFEv9HtAnWItCO6j8+VaBcicyTchRBCCCGE6DcgoLtVoG7LYP0z5n852AshMkXCXQghhBBCiH6kGwXqINhZQR6RdhWjEyIXJNyFEEIIIYToR6YtCvZZR9wZxUekXRXkhegKhxzwCG8LIYQQQggh+gWIawhrrOt+ZkZz3fmeLipGJ0TuKOIuhBBCCCFEP5JHqjzT4vHes98TRNol2oXIHUXchRBCCCGE6FdY7T2L+edIjYdwh2g/8/HwQSFEN1DEXQghhBBCiH6FUfdO57nj9Yy2q3K8EF1Hwl0IIYQQQoh+ZdalwX7XumDfDihGpyJ0QvQUCXchhBBCCCH6FUbJIb7b5dH3BnsI9nmDwW0hRFeRcBdCCCGEEKJfYap8O8J97Cv1OfJ4HxWhE6JnqDidEEIIIYQQ/Uy7BerWHRLe8MiiuJ0Qom0UcRdCCCGEEEIcDIvQYdk3iXYheoqEuxBCCCGEEP3MtEXBPm1leRa04+uFED1Dwl0IIYQQQghxMBT6irYL0XMk3IUQQgghhOhnpodLuaVdEo4F7VjgTgjRMyTchRBCCCGE6GfaqSyPivJgutLkhSgCEu5CCCGEEEKIeCYp2i5EEZBwF0IIIYQQop85/Lgg6o6Ie9KoO9PqNb9diEIg4S6EEEIIIUS/kzZdXoXphCgUEu5CCCGEEEL0O2mFO5+nwnRCFAIJdyGEEEIIIfqdSccF+yTCnYXpZr8n2Asheo6EuxBCCCGEEP0OU96TLAm3/dbwhhCiKEi4CyGEEEIIURWSRNw5v32aloIToihIuAshhBBCCNHvJJ2rPuZE25UqL0RhkHAXQgghhBCi34Fwx4aIe7Oo+/ZwfvtxK4K9EKIQSLgLIYQQQghRBVpVlsfjTJNXtF2IQiHhLoQQQgghRBWgYG8k3J9YGewh2rUMnBCFQsJdCCGEEEKIKtAq4s5l4GZdGuyFEIVBwl0IIYQQQogqwHnru8J0eBdXtHPpOCFEYZBwF0IIIYQQogo0i7i7afJCiMIh4S6EEEIIIUQVgHDH9vwT9SJ0AEvAQczjf4q2C1FIJNyFEEIIIYSoCoy6u2gJOCEKj4S7EEIIIYQQVWHaomDPiDv2WgJOiMIj4S6EEEIIIURVYCr8rnXBfvutwV6iXYhCI+EuhBBCCCFEVYgWqGM1eaXJC1FoJNyFEEIIIYSoCrUCdZ5wf/i84DEsARc3910IURgk3IUQQgghhKgSFOma2y5EaZBwF0IIIYQQokqwQB3AnHctASdE4ZFwF0IIIYQQokocckh4wwNp8kKIwnPIAY/wdlcYXTNog98aDe6csdRWX74guA3G1trgimHz/zt7wAZXLrY53s3aa9zn+8990gZWLzXnHYQQQgghhBDNWBcKd6TMn/l4cFsIUWi6HHEfseGnB2z16tXeNmgDTw/Z4JpQxHv/G1qxwRauxP9W29Kjh221/z/vNRsW2iAes2FbOxY+90azJRLtQgghhBBCpOPMLWan3SfRLkSJ6LJwX2BLaxH2OTbn6PAmGFlvI7MX2oLZwd0Fbx8w+9awJ9EPZuSmYTv2iiAaL4QQQgghhEjB4cdpXrsQJaN3c9zH1trwQ3Ns4RmB/B7dNmZ2tCfm/Xses+dYoOEX2MDCDTa4ZIkN2YAteGjQ1r9+0BaHAl8IIYQQQgghhOhncpjjPmprVwzasJ/SHuLMV/fx56cjLb4uwP157Eijr0XkR2xoyXo7002HHxmywW0DNvD0oA09ZDbn7d5rLmged1/38BPhLSGEEEIIIYQQojWLTjsuvFUMul6crmFROU+UL7nr2LrAP+h5mAM/agNXmK3G/PaVC2xkxWqzK5JH3yHii/YDFB212cGoTdKjNkuO2io9arNkqJ3SozZLj9osOWqr9KjNkqF2Sk8Z2qzrxemGVgzb7KUxReUWnGkLxjbYSBipH/nWsNnbB8LnIYq/3s50o/ZCCCGEEEIIIUQF6K5wHxs16PKRoSW2ZEmw1avKL7ClKxfahhXB40NPD9gSPw0eoh2R9VDsz15sA0cP2+CSQduwcInmugshhBBCCCGE6Gu6nyrfQ5Q2kh612cGoTdKjNkuO2io9arNkqJ3SozZLj9osOWqr9KjNkqF2Sk8Z2qxSwl0IIYQQQgghhCgbvVsOrkhsu9eu/+igff3Hu8MHREvUZjHss5Evf9Su/sK9tnVf+JBogdosKftGbrGPfuwLdq8aKjFqs6SM2r3Xf9QGb3/Edr8UPiRaoDZLj9osKeq70iJbIjGy39NToDZTxJ3s22EP3PRF+8kbrrSlC6aED4qmqM1i2f3onfb5v51i7/urxTZHrrFEqM0SsnuT3fnFO23Kez5ui48KHxPNUZslZJ/t+P6QffGnb7QrL19g6tGToDZLj9osMeq7UiNbIiGy39NTkDbTaU0mzrRz/mShja2533aED4kWqM1imTr/Irtg5rCtfSR8QLREbZaQqSfZRW+bacPfUUMlRm2WkIk2800X2cKn19j9Pw8fEi1Qm6VHbZYY9V2pkS2RENnv6SlIm0m419hnWzdstNFJU+yw8BHRCrVZLLs32PpHp9jEieF90Rq1WTJe2m0b/vlRmzJxQviAaInaLDH7tm6wjT+faFMODx8QLVGbpUdtlhD1XemRLZEQ2e/pKUabVTBVfo9t/u6w3TPyqD2287nwMY99e233y15j71q2zM5VSlIEtVksOzfYnd9ab5sefdJ2hQ+Bvbv22sw3LbUrLz5FaYBR1GbJeGmHbfj7Yc8A2WRPulOq9uy2vUeea0uvepedooYaj9osMXv+7V4b/u5Ge3TLDqv36Pu963CCveady23ZeViKVbiozdKjNkuI+q70yJZIiOz39BS7zaon3H/+gN1w/dfNLrzalrxxjk2ZuM/rG/fa/pdNtqmvqLvo9v1qsz36b3tsyr+bbyccWXHXXdI227bJRp42m3vqSTZnUvhg37LPNt8xaNePnGIf/KuL7JSpXju8sMd2v7DfJkye6rURn7bbNv90k+15xUk2/4SpVu0zSW2WlH3/dqcNfnbETnn/VXbRa9EG3jX3a++am+Bdc7WG8p5XqWuuOWqzpOywBz53rX3dBuzqy8+xOV7b7INA2D/BJr9iik1kHp6uQwe1WXqStZlsrYR910v7bPTREdtqc23B/Dn1c66SJLQl1GbSPO1Q8DY7dNAjvF0NXn6snf07U+zBrw7br377bDtp2kSbOGmSTTrs0OD/+7bavV/4lP23tVvsxVcdbj+/+xv2wCsW2u/OqfCJ3KrNdj9iX7/uk3bzQ7vsyOmH2Mg3/rf9fP6b7cQjgn/3J4fakV5bHD/6t3bryDQ7a8HRNmniRJvktctEv1n22dbvft4+9d/W2BabZYeP3WXf+OERtvAMb/DwX19F1GZJOfSVr7Wz5z1tf3vrRpt29u/a0YcfGlxzQUNV9JprjtosKVPs2IWn2ZQf3mbDz/y2nT1/mk2c6LXTpIl26CH4v67Dg1GbpadFm8nWqtGq79r946/bf/3UzfbQ7iPtSBuxb/ztz23+OSfaEf65V0Va2RJqsxrSPOkpepsh4l5Jnr7vwKq/vObAXU/+JnzA48VtB9Zcc/mBD3/xBwd+8SIfW3/gxk+sObAtvFtp4trsuY0Hblx++YFrvvnYgefChw48fdeBj63eGN7pd5478JOvfuzAX65ef2AXzxmPbXdfc+Dy5Z8/8IMd4QMe629ccWDNaHin0qjNkvLcT2498LG/vPHA+l3hA6Dy11xz1GYJ8ca7+z77lweuGX7ygNOj6zpshtosPXFtJlsrlri+67mNNx748NJrDtzxs1rPdWDb8McO3Kju3iPellCbxSDNk56UbdYtqptsc9S5tmzZ+TbnUHpI9tkjt37a7n31+2zlFefYTLbMrl2quEgOarNRW7vqFtux6ON21TtOqM8n+uUu2xPe7H+m2Cl/drVdeuoUm8DUvx/fYp/+vzPtfSs+aOfMCB4z2227fhnerDxqs6RMOeUSu/rS021KrTaRrrlWqM0S8rI5du6Hl9v5cybUosK6DlugNkvPQW0mW6sRB/VdY2tt1S077NyPXWUX/bv6jO2dv1JvH3CwLaE2a4A0T3oK2mb82Gpy1EJbyAIDY/fanY8ssCV/sdCm1lplj23432tt76m/Y34JlT1bbfO2ff5/KovbZiPDtnbSRfaht8+tpwO+NGrDdzxgJ5x6SnC/Em3mDR5nsRDKqN37t4/Ygr9Yagun+g/47Pnn223tr0+x35kd3N/xxGbbXelTSW2WlCmnLKwXJtI1lwi1WUI8UbXw9SwQluA6fGmHbd282zNfKozaLD1umyWxtSrcZm7fNfKttTbxTz5kA3NrPZfZtmG788ET7PTXBnf3bN1soy8Et6uJa0uozZqSVvOo70rVZt2i2sLdZfRJ27forXaS82OMfHmF3bbjrfaBP5obPLR3l2385sds8H894v1XjG4bs1POPddq9opnDK/9m2vt/qOX2vvOCjvNyrXZmD350rn21pPDux57Rm6xFbfusLd+4CILzqQ9tvfJH9iqv77B7t/mP1Bx1GZJ0TWXHrVZUhJch8/vtSe/v8o+tup+G33Jf0rFUZulJomtpTbzGLXRp0+x8xY5HqFta+1T191vsy9/ny0MC2vu+dVG+8aKQbvtEfX2arMU6DpMT5I26wIS7mTea2zqj0eCk3P3Jlu76mob2vw7tnT5YpvDVppxil304c/Ykql32Rfuc9fsqCZzjjvBto6M+Ibuvp9vsFu8jvDewy+yK/9iQc37Wb02e429ZupPbATi8qXdtmnNDXb1TZvtd5Yut8W15SOm2Nw3XWKDnzjHNt14m22qfIeoNkuKrrn0qM2SkuA6nDLXzrl00Fa+aZN98fZN4YNVRm2WmiS2ltrMY44de8JW2/iw33PZjgdvsauvudde/idX2tIFtZ7LZp56kS27bolNu+sLdv+vwgcri9osMboO05OkzbpABddxbwyqUH7+9o22y6bZa37/Irv4905y0iEc/nnIloycaasvXxA+UFVQSXfIbvnuk/bcpJl2+tveZxedNbOejupSpTZD9eov3mobPft/2gnn20X/8a12kuMArjNqw3+92ia+f9AWh+nglUVtlhBdc+lRmyUm6XW4bdiuXj3RPrDSM1jChyqL2iw1iW2tqrcZqlcP3WL3PP2cvXzG6bb40ots4atjey7bMLTENp652hOo4QNVRW2WGF2H6UncZjki4d6CYN3R8I7Hb57+gX31S8P2mws/Y1edF6ssKo/aLIaXwnVZw7vmXfab/tYTE4/Mt2WfucRJvRE11GaJ0TWXHrVZQsL1kWvs2mR33HSLPTJ/md3wZyeFD4pxqM3SozZLSLimdHjP67ls2/e/aqvv/o0NXHeVnXtk+LBwUJslRtdhamhLTJ3aHbtBwr0R/ryYYRubNMfmnjjXZtoO27plhz039Vg78/feZQOM2KCo0TOz7YSj4j16lUJtFkMwB2Zow16bOne+nTRniu0Z3WRP7n65zZx/jg38ST06g+Jrhx11gk2t/KmkNktMwmsOxXh2vfoEmxPO8as0arNk7BmxW1YM2YYXpnrtdJLNecUeG330Sds1aaad9KYBewcjDShgtOUwm33C1PgshiqhNkuP2iwxo9/+lF1715hNnD3X5s+b6Q2AW+2xnc/ZtKPPtPP/dKAWWVZ/Xydpm1Xelkh6HUrz1InYElctfV/4j3yRcG/Evq02fP3nbfM5y23ZeU2SQ3Y+Ynd+9VZ7ZOalduWf1StbVhK1WSy7/3nIrvnWFLv0v1xSr3R9EHts6/fvtFvW7LRzP7TMzq3N7a4marOEJLzmdvz4Tvvq7Y/YjD+70i5p3KDVQG2WjJd224YvXWPDUy61q5v1054h98Adt9hdO8+15R8+t6tz/QqH2iw9arPE7Ns6bNd/frO9cVnz8U79fZ1kbSZbIvF1KM1TJ6nmyZhDBz3C28Ll0Gl20tkn28+//jn79ou/Y2cff0T4jwhTXm2vPet8m7/lJrt52+vsjcdX2MWpNotl0tG/a2cd8UP7/C3/nx111mkWP91qok077jQ79w2H2j/c8D17xbmn2cxDwn9VELVZQhJec1NmvdbO/r35tuXmm23sd95o8yaH/6giarNkHDLJjl5wlh2x/vN280+PsrNPfXV8pHPiNDv2defaGyf8g332/lfYW06dGf6jgqjN0qM2S8yh006ys0/+uX39v33bXjrlbJvXyMRSf18jWZvJlkh8HUrz1EmqeTKmyn7e1kycawNXfchOeGCV3fbT5isZzpkz0zb/7LHwXoVRm8Uy9fVL7a/fvsdu/cK9tiN8LJYpc22ObbbNPw/vVxi1WUKSXnMvm2NzZm62TVvC+1VGbZaMl021hX/x1zaw51b7wnebXoU25eg5Zj/bbKPh/cqiNkuP2iwxE+cO2FUfOsF+8PnbbFOztcjV39dI3GZVtyVSXIfSPCGOLdEtlCqfhH37bN/EiTXvk4oaJUBtFovXLOY1S4CKryVCbZaQcdecivEkQm2WDO+62+e10kReXypg1Bq1WXrUZonZ5/VdE2sDo/quJIxrM9kSjYlch7LfEzDOUM0XCfc0JC2+JuqozWJIXnxNELVZUpIW4xF11GYJSVrASNRRm6VHbZYY9V1pkS2RGNnvhUTCPQ09KkRQatRmsSQrviZc1GbJ2JewgJGoozZLSNICRqKO2iw9arPEqO9Kj2yJhMh+LyQqTpeGHhUiKDVqs1iSFV8TLmqzZCQtYCTqqM0SkrSAkaijNkuP2iwx6rvSI1siIbLfC4mSjdLSoKjRvkfutXu3NilyVGVi22yfPXLPvVblJostvvbzB2ztP+8O74goarNkxBfj0TXXDLVZQhoVMNJ12Bi1WXoatJlsrYOJ77t22APf3mC7XwrvinHEF79Vmx2ENE/hUKp8u4wrauTxknfB3/RV23HBB2xgrtx3sUTbbOcDNvTVHXbB+wesyk02vqbFHtt8x2q7b9777H2v10SrRqjNkjG+gJGHrrmWqM0SEi0kpuuwNWqz9ETbTLZWQ6J9155/u9NWf/9Ye9+lC1UToAHjbQm1WUO8hpLmKQZKlW+XQw+1Q8ObPodMsWNPP9F2fuNLNjLrd+2kaeP+a/t+vdteODDJJk4IH6gi0Tabcqz97ok77etfGrFZZ5xk45oMFT+ffcHvUQ/t8/U0vWZxmGhH/vZpNv2fbra/2/PbdvrR49fIRHXP5/a9zCZNHH9+VQ21WTIOHd9QuuYSoDZLyCFefz7uO+s6bInaLD3RNpOt1ZBo3zXxla+10474od38rV/bb592tE0ad+7tsc0jj9mhs2ZGHq8W0e5ebdYAr6HGNVWL69B2PmIjO4+0OdHHRcco4p41vhdq2OzP3mfnvALeu7V2y5fW2qMvm2tzJ+0wW7jcrnqbijyMAxGtvze75C/OsSnoGNfcYjd+51E7bO5cm/hzr8mWXWWLK1d0BZGYW2zjGR+0i07w7u7cYLd98TbbsHu2zZ2913bPvMiufu8CFe0Zh9osMbrm0qM2S4iuw/SozVIjWysxiCLf8vDp9sE/wclVZ88/D9m133+NLf3gW5VNFEFtlpDIdVjjpVEbvu6LtuvtV9klpyqbKFMg3EU+PLfxxgMfXvqxA7c+vIuPHPjBZ685sGZ7eFdEeO7AxtUfPnD5x2898JNak/3gwKpr1hz4RXi3kjy95sA1Sz98YNW9Tx74TfjQY1//2IEvPRzeEQejNkuIrrn0qM0So+swPWqz1MjWaoMXtx1Yc+37D3x49foDu14MHxPNUZsl5rmNXzrwl++/5sBdT7IXE1mhGRx5sW2trbplh53zkasdb9NE72+/mQpfxDK6ZpXd8vNz7Cos0cEmO9Rswj6zypbA2DNiQ5+916b9+dW27Pfn4gwKOPQ3tu/F8LYYj9osMbrm0qM2S4iuw/SozdIjWys9L43a2r+51u6deYmt/AvN5U6E2iwxe0ZusRW3jNobr7pK899zQKdeLuy2+7+x1qZdvNwu+ndOctvmYVu7+QQ79tXhfVFn9/32jW9Ps3ctv8hOcJvsW2tt8wnHWlUT3jbfdZttPeuD9sE3zAwf8djzgK35v9PsNfPC+2IcarOE6JpLj9osMYmuQwmrcajvSotsrdRIgKZHbZYYifb80emXC4/Zpp+faxe8wRlItt1vN/z3B2zuJRfZKX6r77PN377THtjp/1c8tsm2LbrAznGabPS+G+wLD861S95xSvDAtnvt+o8O2td/XJXlc0Zt06Mn2OK3O3Os9jxit/3Xr9uuC99nbz0yeGj0nk/ZR1d5wmFPcL/aJGsz4ZHkmoPBcv31tnZbcLfyJGmzF/bY7t27bU9tWaYqkuQ63GcjX/qAfWrNqP9vkazN9mzdZJu27lF2h09rW2vfrzbbI/+8wTb8dIfarIUA3bdtk2345002Wum+K0JL0b7DHvhb2V+guWgftXuv/6gN3v6IltvrEAn3XJhpM1+xw3aEF/LuR++0T113pz33+1fa0gUcYCbaCefMtB+s+JSt1VqIXpPNtGk7d5jfZC/ttk1/+ym79m+fs7d+ZKnVmuyot9pV133Ajv3+KhsaqUIv6Z1Hr95lO0Lnzr6fP2BDK4bsJye8z5ZfUI/tzTn/43bdO/bZ7Z9ba6OV7xCTtZnwaHXNhQbLxlfPtI3Xef2UxHvzNjt8h224ddA+8JEVduPtd9gtf3O13XBfVUVpkutwoi34s6V27IPXSrz7tG6zTbd/zFZ8dcQe8cbAa1fdr/6+ha21Z2TIrvzr22zjLq89/7+v2rU3jQTXbiXxhFMjAbr7Efv6ig/YstX32pM/32zD6u9DmrRZjZl2zim77EbvWt1QlZhSDPt+fFuLSPsce+tV19kH5t5nq75U5euwc1RVPidQkfILq9fbDttrew+db4vfe6ktns/5Vx4wiq8btHtfvdSuvVzVYr0Ws81/+wW78cEdZi/sNTtxsb3v0sV2ktNkNcbW2uCXzD7w8cVel9nnoJL1Z++yx17ab3v3TLOFF3/A3nXWzGDuI9a3fXFibQ3SkZuW2MazVtv7Tg3uV5bYNptm+3aP2ZOPjtrWJ39ij23eao/9fJft/fUem/x7V9ln3jG+cmw1aHbN7bD7rx+0+0++2gbf7omGbWs9g3ijnf6xj1e8cnqDNntF0J+vfdlbbfmHwzR6T9g/8N+vscd+/zN2ycnBqytFs77LxY8qD9mTZ11tH6+6c61pm3nn2IrVZlcM2uLZZpvvuNqGX32VLVsUN0hWh8a21ia7bdk3bNpHB20g7LM2DH3Unjz/M0Hl/goy+ugme/mJJ40XoKir8NdDtuOsq2y5Nw76tui2Ybv67mN927TqxLaZC9vv9war3X/t2Wybds61k1qmx6Mfu8Xs/Z4toaksbSHh3gsk2jtgn2391vX2qUffaJ/56LlWaZNlzBNTN47a+X/xDjvh1/fY0OdH7KSPXWsXzQ3/L+psvtM+ev0mO/2959uCo0+yo2ZMtufWf9FWPXCCfeiqAS3rEgOiVSu+e5L9Na+znVtt6+S5NlcdVoQ9NnLT1Tb0s9m24LVTbMcWszcu+aCdC7EwtsHu3XGKvfUUNVosWAd/x1bb/E/DNvTtbXbuVdUVVY3Yt/V+u+Wra+yx3YeZvfAbO/ODaKN9tvkbg3b7tGX28bf1vfu6PfZtsC98aoddtHJxWHtit9173Qob/aMbqulIi8WzRT91rW089Sq76u1OMcRHbrNl//Q7doOEe3Mk2lOzb+uwXX/dJnvj9VfZudX2ObaNhHu3kWhPyB7b/N1hu2fkUXts53PhYx779trul73G3rVsWWAYVw1E2b3hdWLo/d3zT1+wT/94js2ftM9mvuECe6ub1SHGscNrq+vvf40t/6vFZutukGhvyT574AtX2mO/L0O3KVvvtKs/t8fe9TeX2Ck4l351r33qM7vs0usuMvnQomCO9mP2wIb7beOPH7WxX0+z2SeeYqe/4XRb8O/m2swpuhjH8YInPj/8dZv4n1ba0tdPtU3/a5l98ZEZNnvSXrOjF9v7/uIcm9MoElhVMH3Ab5M9Xv+1yp48/0P2rvmTbcf3h+zab8+xD37qIjtBbRYwMmQf+O5Jdp0bBPFs1OGVg/bk275oHzxL12NDJNqbsuff7rXh7260R7fssLoFv9/27ppgr3nnclt2ntqsXSTcu4lEe3J+/oDdcP3XzS682pa8cY5NmegZfLv32v6XTbapr6juYDK6ZtBumbTcPv774TCLSPJ3X2OfkWc8Eb54/9aTZq94o0T7QWy2O6/faKd/lIatZ/iuWmY/OW+1LdXp1RjP+L1664BdiykF4IUH7Asf+om9cfVSU7M5jN1vX/jcnfbIr2fagrcttvPfsMBOOFIXYFMwLexGsyWMGv/zkC25/yRlmzVh8x2D9oNTBgNn40u7besD99id99xvm3bMtoG/rvpUn/HAnhh+9aAtfX34AGxUf073+2SjNkOivQU77IHPXWtftwG7+vJzbM6UibZvz27bu3+CTX7FlFrgSbSHmq9reEbw5yXaE/Pqc2zZRy4yW3uL3TuG4n0TbcrUqZUW7WDO25bY6RtW2S0PbrXdW0fs67ffa4fNUKpkMvbY7qd32V6sh/yyKTZBmiHCCbb4/B12myeuRrZutZHbV9ltTy+0N742/LeIZ86xNvGhDUGhME8obLj1Ttt81hstrDEvyKvn25kXfMA+442DSy9YKNGehNkLbOHEjTYSFgrb8/ze4IZoyAkXDNieb9xga3+6w3bv2GFPbn7EHvvVbHvrR5ZLtEeYc9wJtnUkKBS27+cb7JYVno16+EV25V/IRm3MZrtzhUR7c2baOR+60i56aY3d8t0xfzWHiVM8+32qRHsWKOLeTbBEkCc+x3WInqG3+3nvhFYvGQ+WdrnhB3bCh5xKlVVvs307bMPtQ3bHT/fbzNdfZFf80Sl+4ZQ93vkF54aIZ99DQ7bs23PsqqsGbPKvdtjMV89Um8WwZ+sDtvau+2yTnWTnX3yRLZyBB71r7nDvmtOgG8vuH3/dVn11o+3au9cmnPouu+ovzrGZz6vNkrJ79x7fqBMx7PYE1XVf967HCbb312YL3rfS3rdgitqsGXu22gPfvsc27Tab8urT7a3nL7CZnvmgNouyz7Z+d8gTV0/ac5Nm2ulve59dhGKI6u+bEmc3yJaI4aVRu/9zq+wH/+5D9RoK0jwdI+Hea/aM2G2f+4n9zocvqS97JsazbYNtsIW2kN5ytVkso9++3m6zS+yqt8kLHM8+27evXoUfqM0Ssm2tXf81s0s+slhzapOiNkvIHhu5dZX95NTldok69AYEU8Vs0lSbMgn31WbpUZslRn1XamRLNMAT7xseMlv4+rBdZL93zKGDHuFt0QsmzrHTznjJ7v3cvfbSGafZHGUPHswRR9vRR4S3gdosliNOfKO95t/+h/2Pf3uNvfFEt8FEwKF26KHhzRC1WUKOONHeePzP7H+s/pm95uwT7YhDwsdFY9RmCZloc173u/bSPavs3gO/a6epQ4/hUJs4aZJNnBDeVZu1gdosMeq7UiNbogGHHGFHuwa87PeOUcS9KES9UEiHvuMWu+OfttreydNs/uIP2AdVhXE8arNYop7f3Y/ea7d/Y9ge2TnRJs9YaJd+9F2m1anGozZLSDQSs3uT3fuNb9jwj3fYxMkzbeGlV9q71FDjUZslJBoR3Wc7HrzTbrnrAdu6Z7JNO/EC+8D7z1UEcBxqs/SozRKjvis1siUSIvu9fSDcRUF47hcHfvEc9hsPfOkv33/gL2/8wYFf/Mb/x4H1N37swO0/w20xDrVZLL/Y/gt/v23tNQfe//5rDtyxaZd//8DTdx245rP3HQjvCQe1WUJ2eNfci97+6TUHrnn/+w9cc+dPD+zC/Re3HbjrmlUH7lNDHYzaLCHPedeh36Ef2Pg///LA+//yxgM/2O536Aee23DjgY997TH/tnBRm6VHbZYY9V2pkS2RENnvbSGfYpGYMtNmHj5qa1fdYptPW2orl57jF1Tx/mFzjzLb9az/LOGiNovFL7w2MmSf/u7L7aKPfdwu4vrus+fYzF17nHU1BVGbJWSGd809P2JDn73XXv4nV9vH/+SkoIjRy+bYnJm7bA9KFIvxqM0SMsW7DqfY6JpVdsvm37GlK5faOa8OcimnHD3H7Ne7/NvCRW2WHrVZYtR3pUa2REJkv7eFhHvBGP32art35iV29Z+d4p26IS9tsnvXeZ2BVv2KRW0WwwsjdtttY3buR5bZuc4SOLvX3WePeIOKTqUY1GYJ2Wcj/+s2G1t0pS1zU9l+db/d98gMm3lkeF84qM0SM7bWVn93pl3yXy4Zl1K66f/e74sIEYPaLD1qs4So70qNbInEyH5Pj4R7odhhIyMTbPGfLnRO4B32wI2rbWT+RbZ4Lh/bjZXlhE/CNtvntVmVPMOPbrRHX3eRDTiDxp5/u9M+/7f7bPEfLQyW5fDY/SudSDXUZgl51DY+usAuutAx4vZstjv/+522720X2UK/6rVH1a65pqjNkrJjZKNNuOBiW+iIqR3/9AVbPTLfLnobO3Rdhy5qs/QkajPZWh7J+q593rml7j4koS2hNpPmaQcJ90JxmE2Z9PJwuRePfVv///buJzTrOo4D+Ad51rJkYdkkow5SF8VAWAh1cYSXOhS0DgsvYocODWKBYF0doSCL/oBezJa4Qx0yOpV/FjKy8mJYRLl4cKwQsnDJxthaPYvpno318P16+s7n9brtYZe9+X1+v8/7x37PL754qy8G/twRe17aunBg/30tzry7Lz6+5DSZnNnkj3F8/zsxfHX+59tdS0vc07qwkYx/NxB9B4dj3e7eePrmxWQ6rp19O/Z99IsL7hyZJapEy5qWhdkavxgDb+6P4fbd0ftM3XLXbDPXkMxS3XFnS9zdeuPr0+feM90ffR9eix2vvVz3+iBzWE9m+ZIys2vVpJ27Ji8djwPvDcfvs/MfNLOkXUJmOs+t8Tq4orTGg/dW4+jhkzFSPR+fvn8iRh/ZGXtf2R7r62+xTI3GN2eGYuSfLdGxee3Nu3fNKTGzqz/H2S/PxZX2jtj20MIJ9bZ1f3vE50fi2IWR+OHUYAyeq8RTPXuie3P93z4Vo9+ejqGRiC0dm2Jtcx9IMku2LtpXnYwjgxdi5PtTMTj4VVQ6X4093ZsWLrRzmm3mGpJZqtYN66L6weE4WR2J858cjROXH42de3ti+/r5X/iPOawns3xJmdm1atLOXX/8dDZOf30l1j++LR5u9tN90i4hM53n1ngdXImmJmJ8aiYqrW0Ld6JumJi723koLj/WG70vbFy89DWzRpn9OhT9B09E5fk3oueJZnpoZjomxiejlkqsbrtrycluIi4e64tD1a3R29sVGx1I82SWanpiPCZnIiqrazO39EratDPXmMwSzdbm8HptDletjrY1S4Myh8uSWb5Gmdm1Fml07vrtTH8c+KwSXa/3xJP3zX/Y9BrtEjJbROfJorivJA7gfJbhZVji8sksmZnLJ7NE5jCfzLLZtZIpoPlklsgcLssz7iuFAzifZXgZlrh8Mktm5vLJLJE5zCezbHatZApoPpklMof/S3FfCRzA+SzDy7DE5ZNZMjOXT2aJzGE+mWWzayVTQPPJLJE5bMiX060E02MxNtMZ3c85gJP9VY2xDV2xyzJcZzrGRmej88VnLXHJZJbMzOWTWSJzmE9m2exaya5Xx+KBrl0KaAaZJTKHDXnGHQAAAArmX+UBAACgYIo7AAAAFExxBwAAgIIp7gAAAFAwxR0AAAAKprgDAABAwRR3AAAAKJjiDgAAAAVT3AEAAKBgijsAAAAUTHEHAACAginuAAAAUDDFHQAAAAqmuAMAAEDBFHcAAAAomOIOAAAABVPcAQAAoGCKOwAAABRMcQcAAICCKe4AAABQMMUdAAAACqa4AwAAQMEUdwAAACiY4g4AAAAFU9wBAACgYIo7AAAAFCviX8aaXVM0xqDWAAAAAElFTkSuQmCC;" vertex="1" parent="1">
          <mxGeometry x="100" y="210" width="653.9" height="325" as="geometry" />
        </mxCell>
        <mxCell id="TRVxPomc37XZtXrlSaVd-4" value="" style="whiteSpace=wrap;html=1;aspect=fixed;" vertex="1" parent="1">
          <mxGeometry x="550" y="60" width="20" height="20" as="geometry" />
        </mxCell>
        <mxCell id="TRVxPomc37XZtXrlSaVd-5" value="" style="whiteSpace=wrap;html=1;aspect=fixed;" vertex="1" parent="1">
          <mxGeometry x="550" y="107.5" width="20" height="20" as="geometry" />
        </mxCell>
        <mxCell id="TRVxPomc37XZtXrlSaVd-6" value="" style="whiteSpace=wrap;html=1;aspect=fixed;" vertex="1" parent="1">
          <mxGeometry x="550" y="150" width="20" height="20" as="geometry" />
        </mxCell>
        <mxCell id="TRVxPomc37XZtXrlSaVd-9" value="" style="verticalLabelPosition=bottom;verticalAlign=top;html=1;shape=mxgraph.basic.tick" vertex="1" parent="1">
          <mxGeometry x="550" y="60" width="20" height="20" as="geometry" />
        </mxCell>
        <mxCell id="TRVxPomc37XZtXrlSaVd-10" value="&lt;font style=&quot;font-size: 16px;&quot;&gt;Vonaldiagram&lt;/font&gt;" style="text;html=1;strokeColor=none;fillColor=none;align=center;verticalAlign=middle;whiteSpace=wrap;rounded=0;" vertex="1" parent="1">
          <mxGeometry x="590" y="60" width="160" height="30" as="geometry" />
        </mxCell>
        <mxCell id="TRVxPomc37XZtXrlSaVd-11" value="&lt;font style=&quot;font-size: 16px;&quot;&gt;Oszlopdiagram&lt;/font&gt;" style="text;html=1;strokeColor=none;fillColor=none;align=center;verticalAlign=middle;whiteSpace=wrap;rounded=0;" vertex="1" parent="1">
          <mxGeometry x="590" y="102.5" width="160" height="30" as="geometry" />
        </mxCell>
        <mxCell id="TRVxPomc37XZtXrlSaVd-12" value="&lt;font style=&quot;font-size: 16px;&quot;&gt;Kördiagram&lt;/font&gt;" style="text;html=1;strokeColor=none;fillColor=none;align=center;verticalAlign=middle;whiteSpace=wrap;rounded=0;" vertex="1" parent="1">
          <mxGeometry x="580" y="145" width="160" height="30" as="geometry" />
        </mxCell>
        <mxCell id="TRVxPomc37XZtXrlSaVd-14" value="4. oldal" style="text;html=1;strokeColor=none;fillColor=none;align=center;verticalAlign=middle;whiteSpace=wrap;rounded=0;fontColor=#0066CC;" vertex="1" parent="1">
          <mxGeometry x="680" y="630" width="60" height="30" as="geometry" />
        </mxCell>
      </root>
    </mxGraphModel>
  </diagram>
</mxfile>
